G04 #@! TF.GenerationSoftware,KiCad,Pcbnew,7.0.10*
G04 #@! TF.CreationDate,2024-01-02T03:25:23-08:00*
G04 #@! TF.ProjectId,K40-LED_PCB,4b34302d-4c45-4445-9f50-43422e6b6963,rev?*
G04 #@! TF.SameCoordinates,Original*
G04 #@! TF.FileFunction,Soldermask,Top*
G04 #@! TF.FilePolarity,Negative*
%FSLAX46Y46*%
G04 Gerber Fmt 4.6, Leading zero omitted, Abs format (unit mm)*
G04 Created by KiCad (PCBNEW 7.0.10) date 2024-01-02 03:25:23*
%MOMM*%
%LPD*%
G01*
G04 APERTURE LIST*
G04 Aperture macros list*
%AMRoundRect*
0 Rectangle with rounded corners*
0 $1 Rounding radius*
0 $2 $3 $4 $5 $6 $7 $8 $9 X,Y pos of 4 corners*
0 Add a 4 corners polygon primitive as box body*
4,1,4,$2,$3,$4,$5,$6,$7,$8,$9,$2,$3,0*
0 Add four circle primitives for the rounded corners*
1,1,$1+$1,$2,$3*
1,1,$1+$1,$4,$5*
1,1,$1+$1,$6,$7*
1,1,$1+$1,$8,$9*
0 Add four rect primitives between the rounded corners*
20,1,$1+$1,$2,$3,$4,$5,0*
20,1,$1+$1,$4,$5,$6,$7,0*
20,1,$1+$1,$6,$7,$8,$9,0*
20,1,$1+$1,$8,$9,$2,$3,0*%
%AMRotRect*
0 Rectangle, with rotation*
0 The origin of the aperture is its center*
0 $1 length*
0 $2 width*
0 $3 Rotation angle, in degrees counterclockwise*
0 Add horizontal line*
21,1,$1,$2,0,0,$3*%
G04 Aperture macros list end*
%ADD10O,6.000000X2.000000*%
%ADD11R,4.000000X1.100000*%
%ADD12R,4.000000X1.750000*%
%ADD13RotRect,1.100000X4.000000X315.000000*%
%ADD14RotRect,1.750000X4.000000X315.000000*%
%ADD15R,1.100000X4.000000*%
%ADD16R,1.750000X4.000000*%
%ADD17R,2.030000X1.500000*%
%ADD18RotRect,1.100000X4.000000X225.000000*%
%ADD19RotRect,1.750000X4.000000X225.000000*%
%ADD20RotRect,1.100000X4.000000X45.000000*%
%ADD21RotRect,1.750000X4.000000X45.000000*%
%ADD22RotRect,1.100000X4.000000X135.000000*%
%ADD23RotRect,1.750000X4.000000X135.000000*%
%ADD24RoundRect,0.102000X0.900000X0.900000X-0.900000X0.900000X-0.900000X-0.900000X0.900000X-0.900000X0*%
%ADD25C,2.004000*%
G04 APERTURE END LIST*
D10*
X150495000Y-145384600D03*
X150495000Y-138384600D03*
D11*
X107451357Y-138516823D03*
D12*
X107451357Y-140891823D03*
X107451357Y-136141823D03*
D13*
X97843779Y-115166579D03*
D14*
X96164400Y-113487200D03*
X99523157Y-116845957D03*
D15*
X94098157Y-124801084D03*
D16*
X91723157Y-124801084D03*
X96473157Y-124801084D03*
D15*
X121148157Y-124845957D03*
D16*
X123523157Y-124845957D03*
X118773157Y-124845957D03*
D17*
X158242000Y-95453200D03*
X158242000Y-97993200D03*
X158242000Y-100533200D03*
X158242000Y-103073200D03*
X158242000Y-105613200D03*
X158242000Y-115773200D03*
X158242000Y-118313200D03*
X158242000Y-120853200D03*
X158242000Y-123393200D03*
X133872000Y-123393200D03*
X133872000Y-120853200D03*
X133872000Y-118313200D03*
X133872000Y-115773200D03*
X133872000Y-105613200D03*
X133872000Y-103073200D03*
X133872000Y-100533200D03*
X133872000Y-97993200D03*
X133872000Y-95453200D03*
D18*
X117202535Y-114733936D03*
D19*
X118881914Y-113054557D03*
X115523157Y-116413314D03*
D20*
X97843779Y-134525335D03*
D21*
X96164400Y-136204714D03*
X99523157Y-132845957D03*
D22*
X117202535Y-134525335D03*
D23*
X118881914Y-136204714D03*
X115523157Y-132845957D03*
D11*
X107484357Y-111469157D03*
D12*
X107484357Y-109094157D03*
X107484357Y-113844157D03*
D24*
X140233400Y-143052800D03*
D25*
X136733400Y-143052800D03*
M02*
