G04 #@! TF.GenerationSoftware,KiCad,Pcbnew,7.0.10*
G04 #@! TF.CreationDate,2024-01-02T03:25:23-08:00*
G04 #@! TF.ProjectId,K40-LED_PCB,4b34302d-4c45-4445-9f50-43422e6b6963,rev?*
G04 #@! TF.SameCoordinates,Original*
G04 #@! TF.FileFunction,Legend,Bot*
G04 #@! TF.FilePolarity,Positive*
%FSLAX46Y46*%
G04 Gerber Fmt 4.6, Leading zero omitted, Abs format (unit mm)*
G04 Created by KiCad (PCBNEW 7.0.10) date 2024-01-02 03:25:23*
%MOMM*%
%LPD*%
G01*
G04 APERTURE LIST*
G04 Aperture macros list*
%AMRoundRect*
0 Rectangle with rounded corners*
0 $1 Rounding radius*
0 $2 $3 $4 $5 $6 $7 $8 $9 X,Y pos of 4 corners*
0 Add a 4 corners polygon primitive as box body*
4,1,4,$2,$3,$4,$5,$6,$7,$8,$9,$2,$3,0*
0 Add four circle primitives for the rounded corners*
1,1,$1+$1,$2,$3*
1,1,$1+$1,$4,$5*
1,1,$1+$1,$6,$7*
1,1,$1+$1,$8,$9*
0 Add four rect primitives between the rounded corners*
20,1,$1+$1,$2,$3,$4,$5,0*
20,1,$1+$1,$4,$5,$6,$7,0*
20,1,$1+$1,$6,$7,$8,$9,0*
20,1,$1+$1,$8,$9,$2,$3,0*%
G04 Aperture macros list end*
%ADD10O,6.000000X2.000000*%
%ADD11C,0.400000*%
%ADD12RoundRect,0.102000X0.900000X0.900000X-0.900000X0.900000X-0.900000X-0.900000X0.900000X-0.900000X0*%
%ADD13C,2.004000*%
G04 APERTURE END LIST*
%LPC*%
D10*
X150495000Y-145384600D03*
X150495000Y-138384600D03*
D11*
X105651357Y-138866323D03*
X106251357Y-138866323D03*
X106851357Y-138866323D03*
X107451357Y-138866323D03*
X108051357Y-138866323D03*
X108651357Y-138866323D03*
X109251357Y-138866323D03*
X105651357Y-138166823D03*
X106251357Y-138166823D03*
X106851357Y-138166823D03*
X107451357Y-138166823D03*
X108051357Y-138166823D03*
X108651357Y-138166823D03*
X109251357Y-138166823D03*
X98869437Y-113646652D03*
X98445173Y-114070917D03*
X98020909Y-114495181D03*
X97596645Y-114919445D03*
X97172381Y-115343709D03*
X96748117Y-115767973D03*
X96323853Y-116192237D03*
X99364058Y-114141274D03*
X98939794Y-114565538D03*
X98515530Y-114989802D03*
X98091266Y-115414066D03*
X97667002Y-115838330D03*
X97242738Y-116262594D03*
X96818474Y-116686858D03*
X93748657Y-123001084D03*
X93748657Y-123601084D03*
X93748657Y-124201084D03*
X93748657Y-124801084D03*
X93748657Y-125401084D03*
X93748657Y-126001084D03*
X93748657Y-126601084D03*
X94448157Y-123001084D03*
X94448157Y-123601084D03*
X94448157Y-124201084D03*
X94448157Y-124801084D03*
X94448157Y-125401084D03*
X94448157Y-126001084D03*
X94448157Y-126601084D03*
X121497657Y-126645957D03*
X121497657Y-126045957D03*
X121497657Y-125445957D03*
X121497657Y-124845957D03*
X121497657Y-124245957D03*
X121497657Y-123645957D03*
X121497657Y-123045957D03*
X120798157Y-126645957D03*
X120798157Y-126045957D03*
X120798157Y-125445957D03*
X120798157Y-124845957D03*
X120798157Y-124245957D03*
X120798157Y-123645957D03*
X120798157Y-123045957D03*
X118722462Y-115759594D03*
X118298197Y-115335330D03*
X117873933Y-114911066D03*
X117449669Y-114486802D03*
X117025405Y-114062538D03*
X116601141Y-113638274D03*
X116176877Y-113214010D03*
X118227840Y-116254215D03*
X117803576Y-115829951D03*
X117379312Y-115405687D03*
X116955048Y-114981423D03*
X116530784Y-114557159D03*
X116106520Y-114132895D03*
X115682256Y-113708631D03*
X96323852Y-133499677D03*
X96748117Y-133923941D03*
X97172381Y-134348205D03*
X97596645Y-134772469D03*
X98020909Y-135196733D03*
X98445173Y-135620997D03*
X98869437Y-136045261D03*
X96818474Y-133005056D03*
X97242738Y-133429320D03*
X97667002Y-133853584D03*
X98091266Y-134277848D03*
X98515530Y-134702112D03*
X98939794Y-135126376D03*
X99364058Y-135550640D03*
X116176877Y-136045262D03*
X116601141Y-135620997D03*
X117025405Y-135196733D03*
X117449669Y-134772469D03*
X117873933Y-134348205D03*
X118298197Y-133923941D03*
X118722461Y-133499677D03*
X115682256Y-135550640D03*
X116106520Y-135126376D03*
X116530784Y-134702112D03*
X116955048Y-134277848D03*
X117379312Y-133853584D03*
X117803576Y-133429320D03*
X118227840Y-133005056D03*
X109284357Y-111119657D03*
X108684357Y-111119657D03*
X108084357Y-111119657D03*
X107484357Y-111119657D03*
X106884357Y-111119657D03*
X106284357Y-111119657D03*
X105684357Y-111119657D03*
X109284357Y-111819157D03*
X108684357Y-111819157D03*
X108084357Y-111819157D03*
X107484357Y-111819157D03*
X106884357Y-111819157D03*
X106284357Y-111819157D03*
X105684357Y-111819157D03*
D12*
X140233400Y-143052800D03*
D13*
X136733400Y-143052800D03*
G36*
X109440278Y-137915959D02*
G01*
X109486771Y-137969615D01*
X109498157Y-138021957D01*
X109498157Y-139019957D01*
X109478155Y-139088078D01*
X109424499Y-139134571D01*
X109372157Y-139145957D01*
X105499157Y-139145957D01*
X105431036Y-139125955D01*
X105384543Y-139072299D01*
X105373157Y-139019957D01*
X105373157Y-138021957D01*
X105393159Y-137953836D01*
X105446815Y-137907343D01*
X105499157Y-137895957D01*
X109372157Y-137895957D01*
X109440278Y-137915959D01*
G37*
G36*
X94665278Y-122765959D02*
G01*
X94711771Y-122819615D01*
X94723157Y-122871957D01*
X94723157Y-126744957D01*
X94703155Y-126813078D01*
X94649499Y-126859571D01*
X94597157Y-126870957D01*
X93599157Y-126870957D01*
X93531036Y-126850955D01*
X93484543Y-126797299D01*
X93473157Y-126744957D01*
X93473157Y-122871957D01*
X93493159Y-122803836D01*
X93546815Y-122757343D01*
X93599157Y-122745957D01*
X94597157Y-122745957D01*
X94665278Y-122765959D01*
G37*
G36*
X116217189Y-112856091D02*
G01*
X116262252Y-112885052D01*
X119059062Y-115681862D01*
X119093088Y-115744174D01*
X119088023Y-115814989D01*
X119059062Y-115860052D01*
X118312252Y-116606862D01*
X118249940Y-116640888D01*
X118179125Y-116635823D01*
X118134062Y-116606862D01*
X115337252Y-113810052D01*
X115303226Y-113747740D01*
X115308291Y-113676925D01*
X115337252Y-113631862D01*
X116084062Y-112885052D01*
X116146374Y-112851026D01*
X116217189Y-112856091D01*
G37*
G36*
X109490278Y-110865959D02*
G01*
X109536771Y-110919615D01*
X109548157Y-110971957D01*
X109548157Y-111969957D01*
X109528155Y-112038078D01*
X109474499Y-112084571D01*
X109422157Y-112095957D01*
X105549157Y-112095957D01*
X105481036Y-112075955D01*
X105434543Y-112022299D01*
X105423157Y-111969957D01*
X105423157Y-110971957D01*
X105443159Y-110903836D01*
X105496815Y-110857343D01*
X105549157Y-110845957D01*
X109422157Y-110845957D01*
X109490278Y-110865959D01*
G37*
G36*
X118267189Y-132656091D02*
G01*
X118312252Y-132685052D01*
X119059062Y-133431862D01*
X119093088Y-133494174D01*
X119088023Y-133564989D01*
X119059062Y-133610052D01*
X116262252Y-136406862D01*
X116199940Y-136440888D01*
X116129125Y-136435823D01*
X116084062Y-136406862D01*
X115337252Y-135660052D01*
X115303226Y-135597740D01*
X115308291Y-135526925D01*
X115337252Y-135481862D01*
X118134062Y-132685052D01*
X118196374Y-132651026D01*
X118267189Y-132656091D01*
G37*
G36*
X121715278Y-122815959D02*
G01*
X121761771Y-122869615D01*
X121773157Y-122921957D01*
X121773157Y-126794957D01*
X121753155Y-126863078D01*
X121699499Y-126909571D01*
X121647157Y-126920957D01*
X120649157Y-126920957D01*
X120581036Y-126900955D01*
X120534543Y-126847299D01*
X120523157Y-126794957D01*
X120523157Y-122921957D01*
X120543159Y-122853836D01*
X120596815Y-122807343D01*
X120649157Y-122795957D01*
X121647157Y-122795957D01*
X121715278Y-122815959D01*
G37*
G36*
X98917189Y-113281091D02*
G01*
X98962252Y-113310052D01*
X99709062Y-114056862D01*
X99743088Y-114119174D01*
X99738023Y-114189989D01*
X99709062Y-114235052D01*
X96912252Y-117031862D01*
X96849940Y-117065888D01*
X96779125Y-117060823D01*
X96734062Y-117031862D01*
X95987252Y-116285052D01*
X95953226Y-116222740D01*
X95958291Y-116151925D01*
X95987252Y-116106862D01*
X98784062Y-113310052D01*
X98846374Y-113276026D01*
X98917189Y-113281091D01*
G37*
G36*
X96867189Y-132631091D02*
G01*
X96912252Y-132660052D01*
X99709062Y-135456862D01*
X99743088Y-135519174D01*
X99738023Y-135589989D01*
X99709062Y-135635052D01*
X98962252Y-136381862D01*
X98899940Y-136415888D01*
X98829125Y-136410823D01*
X98784062Y-136381862D01*
X95987252Y-133585052D01*
X95953226Y-133522740D01*
X95958291Y-133451925D01*
X95987252Y-133406862D01*
X96734062Y-132660052D01*
X96796374Y-132626026D01*
X96867189Y-132631091D01*
G37*
%LPD*%
M02*
