M48
; DRILL file {KiCad 7.0.10} date Sat Jan  6 10:32:54 2024
; FORMAT={-:-/ absolute / inch / decimal}
; #@! TF.CreationDate,2024-01-06T10:32:54-08:00
; #@! TF.GenerationSoftware,Kicad,Pcbnew,7.0.10
; #@! TF.FileFunction,Plated,1,2,PTH
FMAT,2
INCH
; #@! TA.AperFunction,Plated,PTH,ComponentDrill
T1C0.0079
; #@! TA.AperFunction,Plated,PTH,ViaDrill
T2C0.0157
; #@! TA.AperFunction,Plated,PTH,ComponentDrill
T3C0.0394
; #@! TA.AperFunction,Plated,PTH,ComponentDrill
T4C0.0472
%
G90
G05
T1
X3.6909Y-4.8426
X3.6909Y-4.8662
X3.6909Y-4.8898
X3.6909Y-4.9134
X3.6909Y-4.9371
X3.6909Y-4.9607
X3.6909Y-4.9843
X3.7184Y-4.8426
X3.7184Y-4.8662
X3.7184Y-4.8898
X3.7184Y-4.9134
X3.7184Y-4.9371
X3.7184Y-4.9607
X3.7184Y-4.9843
X3.7923Y-5.2559
X3.7923Y-4.5745
X3.809Y-4.5578
X3.809Y-5.2726
X3.8118Y-4.594
X3.8118Y-5.2364
X3.8257Y-4.5411
X3.8257Y-5.2893
X3.8285Y-4.5773
X3.8285Y-5.2531
X3.8424Y-4.5244
X3.8424Y-5.306
X3.8452Y-4.5606
X3.8452Y-5.2698
X3.8591Y-4.5077
X3.8591Y-5.3227
X3.8619Y-4.5439
X3.8619Y-5.2865
X3.8758Y-4.491
X3.8758Y-5.3394
X3.8786Y-4.5272
X3.8786Y-5.3032
X3.8925Y-4.4743
X3.8925Y-5.3561
X3.8953Y-4.5105
X3.8953Y-5.3199
X3.912Y-4.4938
X3.912Y-5.3366
X4.1595Y-5.4396
X4.1595Y-5.4672
X4.1608Y-4.3748
X4.1608Y-4.4023
X4.1831Y-5.4396
X4.1831Y-5.4672
X4.1844Y-4.3748
X4.1844Y-4.4023
X4.2067Y-5.4396
X4.2067Y-5.4672
X4.208Y-4.3748
X4.208Y-4.4023
X4.2304Y-5.4396
X4.2304Y-5.4672
X4.2317Y-4.3748
X4.2317Y-4.4023
X4.254Y-5.4396
X4.254Y-5.4672
X4.2553Y-4.3748
X4.2553Y-4.4023
X4.2776Y-5.4396
X4.2776Y-5.4672
X4.2789Y-4.3748
X4.2789Y-4.4023
X4.3012Y-5.4396
X4.3012Y-5.4672
X4.3025Y-4.3748
X4.3025Y-4.4023
X4.5544Y-4.4767
X4.5544Y-5.3366
X4.5711Y-4.4934
X4.5711Y-5.3199
X4.5739Y-4.4572
X4.5739Y-5.3561
X4.5878Y-4.5101
X4.5878Y-5.3032
X4.5906Y-4.4739
X4.5906Y-5.3394
X4.6045Y-4.5268
X4.6045Y-5.2865
X4.6073Y-4.4907
X4.6073Y-5.3227
X4.6212Y-4.5435
X4.6212Y-5.2698
X4.624Y-4.5074
X4.624Y-5.306
X4.6379Y-4.5602
X4.6379Y-5.2531
X4.6407Y-4.5241
X4.6407Y-5.2893
X4.6546Y-4.5769
X4.6546Y-5.2364
X4.6574Y-4.5408
X4.6574Y-5.2726
X4.6741Y-5.2559
X4.6741Y-4.5575
X4.7558Y-4.8443
X4.7558Y-4.868
X4.7558Y-4.8916
X4.7558Y-4.9152
X4.7558Y-4.9388
X4.7558Y-4.9624
X4.7558Y-4.9861
X4.7834Y-4.8443
X4.7834Y-4.868
X4.7834Y-4.8916
X4.7834Y-4.9152
X4.7834Y-4.9388
X4.7834Y-4.9624
X4.7834Y-4.9861
T2
X5.351Y-3.758
X5.351Y-3.859
T4
X5.3832Y-5.632
X5.521Y-5.632
T3
G00X5.8463Y-5.4482
M15
G01X6.0037Y-5.4482
M16
G05
G00X5.8463Y-5.7238
M15
G01X6.0037Y-5.7238
M16
G05
M30
