G04 #@! TF.GenerationSoftware,KiCad,Pcbnew,7.0.10*
G04 #@! TF.CreationDate,2024-01-02T03:25:22-08:00*
G04 #@! TF.ProjectId,K40-LED_PCB,4b34302d-4c45-4445-9f50-43422e6b6963,rev?*
G04 #@! TF.SameCoordinates,Original*
G04 #@! TF.FileFunction,Copper,L2,Bot*
G04 #@! TF.FilePolarity,Positive*
%FSLAX46Y46*%
G04 Gerber Fmt 4.6, Leading zero omitted, Abs format (unit mm)*
G04 Created by KiCad (PCBNEW 7.0.10) date 2024-01-02 03:25:22*
%MOMM*%
%LPD*%
G01*
G04 APERTURE LIST*
G04 #@! TA.AperFunction,ComponentPad*
%ADD10O,6.000000X2.000000*%
G04 #@! TD*
G04 #@! TA.AperFunction,ComponentPad*
%ADD11C,0.400000*%
G04 #@! TD*
G04 #@! TA.AperFunction,ComponentPad*
%ADD12R,1.800000X1.800000*%
G04 #@! TD*
G04 #@! TA.AperFunction,ComponentPad*
%ADD13C,1.800000*%
G04 #@! TD*
G04 #@! TA.AperFunction,ViaPad*
%ADD14C,0.800000*%
G04 #@! TD*
G04 APERTURE END LIST*
D10*
X150495000Y-145384600D03*
X150495000Y-138384600D03*
D11*
X105651357Y-138866323D03*
X106251357Y-138866323D03*
X106851357Y-138866323D03*
X107451357Y-138866323D03*
X108051357Y-138866323D03*
X108651357Y-138866323D03*
X109251357Y-138866323D03*
X105651357Y-138166823D03*
X106251357Y-138166823D03*
X106851357Y-138166823D03*
X107451357Y-138166823D03*
X108051357Y-138166823D03*
X108651357Y-138166823D03*
X109251357Y-138166823D03*
X98869437Y-113646652D03*
X98445173Y-114070917D03*
X98020909Y-114495181D03*
X97596645Y-114919445D03*
X97172381Y-115343709D03*
X96748117Y-115767973D03*
X96323853Y-116192237D03*
X99364058Y-114141274D03*
X98939794Y-114565538D03*
X98515530Y-114989802D03*
X98091266Y-115414066D03*
X97667002Y-115838330D03*
X97242738Y-116262594D03*
X96818474Y-116686858D03*
X93748657Y-123001084D03*
X93748657Y-123601084D03*
X93748657Y-124201084D03*
X93748657Y-124801084D03*
X93748657Y-125401084D03*
X93748657Y-126001084D03*
X93748657Y-126601084D03*
X94448157Y-123001084D03*
X94448157Y-123601084D03*
X94448157Y-124201084D03*
X94448157Y-124801084D03*
X94448157Y-125401084D03*
X94448157Y-126001084D03*
X94448157Y-126601084D03*
X121497657Y-126645957D03*
X121497657Y-126045957D03*
X121497657Y-125445957D03*
X121497657Y-124845957D03*
X121497657Y-124245957D03*
X121497657Y-123645957D03*
X121497657Y-123045957D03*
X120798157Y-126645957D03*
X120798157Y-126045957D03*
X120798157Y-125445957D03*
X120798157Y-124845957D03*
X120798157Y-124245957D03*
X120798157Y-123645957D03*
X120798157Y-123045957D03*
X118722462Y-115759594D03*
X118298197Y-115335330D03*
X117873933Y-114911066D03*
X117449669Y-114486802D03*
X117025405Y-114062538D03*
X116601141Y-113638274D03*
X116176877Y-113214010D03*
X118227840Y-116254215D03*
X117803576Y-115829951D03*
X117379312Y-115405687D03*
X116955048Y-114981423D03*
X116530784Y-114557159D03*
X116106520Y-114132895D03*
X115682256Y-113708631D03*
X96323852Y-133499677D03*
X96748117Y-133923941D03*
X97172381Y-134348205D03*
X97596645Y-134772469D03*
X98020909Y-135196733D03*
X98445173Y-135620997D03*
X98869437Y-136045261D03*
X96818474Y-133005056D03*
X97242738Y-133429320D03*
X97667002Y-133853584D03*
X98091266Y-134277848D03*
X98515530Y-134702112D03*
X98939794Y-135126376D03*
X99364058Y-135550640D03*
X116176877Y-136045262D03*
X116601141Y-135620997D03*
X117025405Y-135196733D03*
X117449669Y-134772469D03*
X117873933Y-134348205D03*
X118298197Y-133923941D03*
X118722461Y-133499677D03*
X115682256Y-135550640D03*
X116106520Y-135126376D03*
X116530784Y-134702112D03*
X116955048Y-134277848D03*
X117379312Y-133853584D03*
X117803576Y-133429320D03*
X118227840Y-133005056D03*
X109284357Y-111119657D03*
X108684357Y-111119657D03*
X108084357Y-111119657D03*
X107484357Y-111119657D03*
X106884357Y-111119657D03*
X106284357Y-111119657D03*
X105684357Y-111119657D03*
X109284357Y-111819157D03*
X108684357Y-111819157D03*
X108084357Y-111819157D03*
X107484357Y-111819157D03*
X106884357Y-111819157D03*
X106284357Y-111819157D03*
X105684357Y-111819157D03*
D12*
X140233400Y-143052800D03*
D13*
X136733400Y-143052800D03*
D14*
X135915400Y-98018600D03*
X135915400Y-95453200D03*
G04 #@! TA.AperFunction,Conductor*
G36*
X161544852Y-88925560D02*
G01*
X161755546Y-88940630D01*
X161758930Y-88941116D01*
X161964509Y-88985837D01*
X161967779Y-88986798D01*
X162164061Y-89060007D01*
X162164893Y-89060317D01*
X162168008Y-89061740D01*
X162352644Y-89162560D01*
X162355518Y-89164406D01*
X162523932Y-89290478D01*
X162526520Y-89292720D01*
X162675279Y-89441479D01*
X162677521Y-89444067D01*
X162803591Y-89612478D01*
X162805442Y-89615359D01*
X162906259Y-89799991D01*
X162907682Y-89803106D01*
X162981199Y-90000213D01*
X162982164Y-90003498D01*
X163026882Y-90209066D01*
X163027369Y-90212456D01*
X163042439Y-90423147D01*
X163042500Y-90424859D01*
X163042500Y-145795140D01*
X163042439Y-145796852D01*
X163027369Y-146007543D01*
X163026882Y-146010933D01*
X162982164Y-146216501D01*
X162981199Y-146219786D01*
X162907682Y-146416893D01*
X162906259Y-146420008D01*
X162805442Y-146604640D01*
X162803591Y-146607521D01*
X162677521Y-146775932D01*
X162675279Y-146778520D01*
X162526520Y-146927279D01*
X162523932Y-146929521D01*
X162355521Y-147055591D01*
X162352640Y-147057442D01*
X162168008Y-147158259D01*
X162164893Y-147159682D01*
X161967786Y-147233199D01*
X161964501Y-147234164D01*
X161758933Y-147278882D01*
X161755543Y-147279369D01*
X161544853Y-147294439D01*
X161543141Y-147294500D01*
X86691059Y-147294500D01*
X86689347Y-147294439D01*
X86478656Y-147279369D01*
X86475266Y-147278882D01*
X86269698Y-147234164D01*
X86266413Y-147233199D01*
X86069306Y-147159682D01*
X86066191Y-147158259D01*
X85881559Y-147057442D01*
X85878678Y-147055591D01*
X85710267Y-146929521D01*
X85707679Y-146927279D01*
X85558920Y-146778520D01*
X85556678Y-146775932D01*
X85430608Y-146607521D01*
X85428757Y-146604640D01*
X85418087Y-146585100D01*
X85327940Y-146420008D01*
X85326517Y-146416893D01*
X85326207Y-146416061D01*
X85252998Y-146219779D01*
X85252037Y-146216509D01*
X85207316Y-146010930D01*
X85206830Y-146007543D01*
X85191761Y-145796852D01*
X85191700Y-145795140D01*
X85191700Y-145495843D01*
X147294500Y-145495843D01*
X147335382Y-145714540D01*
X147415751Y-145921998D01*
X147415752Y-145921999D01*
X147532875Y-146111161D01*
X147682763Y-146275580D01*
X147682768Y-146275585D01*
X147860306Y-146409655D01*
X147860309Y-146409656D01*
X147860311Y-146409658D01*
X148059472Y-146508829D01*
X148273464Y-146569715D01*
X148439497Y-146585100D01*
X148439504Y-146585100D01*
X152550496Y-146585100D01*
X152550503Y-146585100D01*
X152716536Y-146569715D01*
X152930528Y-146508829D01*
X153129689Y-146409658D01*
X153307236Y-146275581D01*
X153457124Y-146111162D01*
X153574247Y-145922001D01*
X153654618Y-145714540D01*
X153695500Y-145495843D01*
X153695500Y-145273357D01*
X153654618Y-145054660D01*
X153574247Y-144847199D01*
X153457124Y-144658038D01*
X153307236Y-144493619D01*
X153307231Y-144493614D01*
X153129693Y-144359544D01*
X153129689Y-144359542D01*
X152930528Y-144260371D01*
X152716536Y-144199485D01*
X152550506Y-144184100D01*
X152550503Y-144184100D01*
X148439497Y-144184100D01*
X148439493Y-144184100D01*
X148273463Y-144199485D01*
X148059472Y-144260371D01*
X147860306Y-144359544D01*
X147682768Y-144493614D01*
X147682763Y-144493619D01*
X147532875Y-144658038D01*
X147415752Y-144847200D01*
X147415751Y-144847201D01*
X147335382Y-145054659D01*
X147294500Y-145273356D01*
X147294500Y-145495843D01*
X85191700Y-145495843D01*
X85191700Y-143052800D01*
X135328602Y-143052800D01*
X135347761Y-143284017D01*
X135404717Y-143508935D01*
X135497918Y-143721411D01*
X135582211Y-143850432D01*
X136170625Y-143262017D01*
X136209301Y-143355388D01*
X136305475Y-143480725D01*
X136430812Y-143576899D01*
X136524179Y-143615572D01*
X135934601Y-144205151D01*
X135934601Y-144205152D01*
X135965046Y-144228849D01*
X135965048Y-144228850D01*
X136169090Y-144339273D01*
X136169095Y-144339275D01*
X136388540Y-144414611D01*
X136617395Y-144452800D01*
X136849405Y-144452800D01*
X137078259Y-144414611D01*
X137297704Y-144339275D01*
X137297709Y-144339273D01*
X137501749Y-144228852D01*
X137532197Y-144205151D01*
X137299598Y-143972552D01*
X139132900Y-143972552D01*
X139144532Y-144031029D01*
X139144532Y-144031030D01*
X139144533Y-144031031D01*
X139188848Y-144097352D01*
X139255169Y-144141667D01*
X139313652Y-144153300D01*
X139313656Y-144153300D01*
X141153144Y-144153300D01*
X141153148Y-144153300D01*
X141211631Y-144141667D01*
X141277952Y-144097352D01*
X141322267Y-144031031D01*
X141333900Y-143972548D01*
X141333900Y-142133052D01*
X141322267Y-142074569D01*
X141277952Y-142008248D01*
X141211631Y-141963933D01*
X141211630Y-141963932D01*
X141211629Y-141963932D01*
X141153152Y-141952300D01*
X141153148Y-141952300D01*
X139313652Y-141952300D01*
X139313647Y-141952300D01*
X139255170Y-141963932D01*
X139188850Y-142008246D01*
X139188846Y-142008250D01*
X139144532Y-142074570D01*
X139132900Y-142133047D01*
X139132900Y-143972552D01*
X137299598Y-143972552D01*
X136942619Y-143615573D01*
X137035988Y-143576899D01*
X137161325Y-143480725D01*
X137257499Y-143355389D01*
X137296173Y-143262018D01*
X137884587Y-143850432D01*
X137968882Y-143721411D01*
X138062082Y-143508935D01*
X138119038Y-143284017D01*
X138138198Y-143052800D01*
X138138198Y-143052799D01*
X138119038Y-142821582D01*
X138062082Y-142596664D01*
X137968881Y-142384188D01*
X137884587Y-142255166D01*
X137296173Y-142843579D01*
X137257499Y-142750212D01*
X137161325Y-142624875D01*
X137035988Y-142528701D01*
X136942617Y-142490025D01*
X137532197Y-141900446D01*
X137501753Y-141876750D01*
X137501751Y-141876749D01*
X137297709Y-141766326D01*
X137297704Y-141766324D01*
X137078259Y-141690988D01*
X136849405Y-141652800D01*
X136617395Y-141652800D01*
X136388540Y-141690988D01*
X136169095Y-141766324D01*
X136169090Y-141766326D01*
X135965051Y-141876747D01*
X135934601Y-141900446D01*
X136524181Y-142490026D01*
X136430812Y-142528701D01*
X136305475Y-142624875D01*
X136209301Y-142750211D01*
X136170626Y-142843581D01*
X135582211Y-142255166D01*
X135497918Y-142384188D01*
X135404717Y-142596664D01*
X135347761Y-142821582D01*
X135328602Y-143052799D01*
X135328602Y-143052800D01*
X85191700Y-143052800D01*
X85191700Y-138866323D01*
X105245865Y-138866323D01*
X105265711Y-138991629D01*
X105323304Y-139104661D01*
X105323305Y-139104662D01*
X105323307Y-139104665D01*
X105413015Y-139194373D01*
X105413017Y-139194374D01*
X105413018Y-139194375D01*
X105526050Y-139251968D01*
X105526051Y-139251968D01*
X105526053Y-139251969D01*
X105651357Y-139271815D01*
X105776661Y-139251969D01*
X105889699Y-139194373D01*
X105934387Y-139149684D01*
X105951357Y-139142656D01*
X105968326Y-139149684D01*
X106013015Y-139194373D01*
X106013017Y-139194374D01*
X106013018Y-139194375D01*
X106126050Y-139251968D01*
X106126051Y-139251968D01*
X106126053Y-139251969D01*
X106251357Y-139271815D01*
X106376661Y-139251969D01*
X106489699Y-139194373D01*
X106534387Y-139149684D01*
X106551357Y-139142656D01*
X106568326Y-139149684D01*
X106613015Y-139194373D01*
X106613017Y-139194374D01*
X106613018Y-139194375D01*
X106726050Y-139251968D01*
X106726051Y-139251968D01*
X106726053Y-139251969D01*
X106851357Y-139271815D01*
X106976661Y-139251969D01*
X107089699Y-139194373D01*
X107134387Y-139149684D01*
X107151357Y-139142656D01*
X107168326Y-139149684D01*
X107213015Y-139194373D01*
X107213017Y-139194374D01*
X107213018Y-139194375D01*
X107326050Y-139251968D01*
X107326051Y-139251968D01*
X107326053Y-139251969D01*
X107451357Y-139271815D01*
X107576661Y-139251969D01*
X107689699Y-139194373D01*
X107734387Y-139149684D01*
X107751357Y-139142656D01*
X107768326Y-139149684D01*
X107813015Y-139194373D01*
X107813017Y-139194374D01*
X107813018Y-139194375D01*
X107926050Y-139251968D01*
X107926051Y-139251968D01*
X107926053Y-139251969D01*
X108051357Y-139271815D01*
X108176661Y-139251969D01*
X108289699Y-139194373D01*
X108334387Y-139149684D01*
X108351357Y-139142656D01*
X108368326Y-139149684D01*
X108413015Y-139194373D01*
X108413017Y-139194374D01*
X108413018Y-139194375D01*
X108526050Y-139251968D01*
X108526051Y-139251968D01*
X108526053Y-139251969D01*
X108651357Y-139271815D01*
X108776661Y-139251969D01*
X108889699Y-139194373D01*
X108934387Y-139149684D01*
X108951357Y-139142656D01*
X108968326Y-139149684D01*
X109013015Y-139194373D01*
X109013017Y-139194374D01*
X109013018Y-139194375D01*
X109126050Y-139251968D01*
X109126051Y-139251968D01*
X109126053Y-139251969D01*
X109251357Y-139271815D01*
X109376661Y-139251969D01*
X109489699Y-139194373D01*
X109579407Y-139104665D01*
X109637003Y-138991627D01*
X109656849Y-138866323D01*
X109637003Y-138741019D01*
X109637002Y-138741017D01*
X109637002Y-138741016D01*
X109579409Y-138627984D01*
X109579408Y-138627983D01*
X109579407Y-138627981D01*
X109489699Y-138538273D01*
X109489081Y-138537958D01*
X109488778Y-138537603D01*
X109488168Y-138537160D01*
X109488274Y-138537013D01*
X109477151Y-138523993D01*
X109478589Y-138505680D01*
X109488216Y-138496052D01*
X109488168Y-138495986D01*
X109488364Y-138495843D01*
X147294500Y-138495843D01*
X147335382Y-138714540D01*
X147415751Y-138921998D01*
X147415752Y-138921999D01*
X147532875Y-139111161D01*
X147682763Y-139275580D01*
X147682768Y-139275585D01*
X147860306Y-139409655D01*
X147860309Y-139409656D01*
X147860311Y-139409658D01*
X148059472Y-139508829D01*
X148273464Y-139569715D01*
X148439497Y-139585100D01*
X148439504Y-139585100D01*
X152550496Y-139585100D01*
X152550503Y-139585100D01*
X152716536Y-139569715D01*
X152930528Y-139508829D01*
X153129689Y-139409658D01*
X153307236Y-139275581D01*
X153457124Y-139111162D01*
X153574247Y-138922001D01*
X153654618Y-138714540D01*
X153695500Y-138495843D01*
X153695500Y-138273357D01*
X153654618Y-138054660D01*
X153574247Y-137847199D01*
X153457124Y-137658038D01*
X153307236Y-137493619D01*
X153307231Y-137493614D01*
X153129693Y-137359544D01*
X153129689Y-137359542D01*
X152930528Y-137260371D01*
X152716536Y-137199485D01*
X152550506Y-137184100D01*
X152550503Y-137184100D01*
X148439497Y-137184100D01*
X148439493Y-137184100D01*
X148273463Y-137199485D01*
X148059472Y-137260371D01*
X147860306Y-137359544D01*
X147682768Y-137493614D01*
X147682763Y-137493619D01*
X147532875Y-137658038D01*
X147415752Y-137847200D01*
X147415751Y-137847201D01*
X147335382Y-138054659D01*
X147294500Y-138273356D01*
X147294500Y-138495843D01*
X109488364Y-138495843D01*
X109488588Y-138495680D01*
X109489081Y-138495187D01*
X109489699Y-138494873D01*
X109579407Y-138405165D01*
X109637003Y-138292127D01*
X109656849Y-138166823D01*
X109637003Y-138041519D01*
X109637002Y-138041517D01*
X109637002Y-138041516D01*
X109579409Y-137928484D01*
X109579408Y-137928483D01*
X109579407Y-137928481D01*
X109489699Y-137838773D01*
X109489696Y-137838771D01*
X109489695Y-137838770D01*
X109376663Y-137781177D01*
X109251357Y-137761331D01*
X109126050Y-137781177D01*
X109013016Y-137838771D01*
X108968327Y-137883460D01*
X108951357Y-137890489D01*
X108934387Y-137883460D01*
X108889697Y-137838771D01*
X108889698Y-137838771D01*
X108776663Y-137781177D01*
X108651357Y-137761331D01*
X108526050Y-137781177D01*
X108413016Y-137838771D01*
X108368327Y-137883460D01*
X108351357Y-137890489D01*
X108334387Y-137883460D01*
X108289697Y-137838771D01*
X108289698Y-137838771D01*
X108176663Y-137781177D01*
X108051357Y-137761331D01*
X107926050Y-137781177D01*
X107813016Y-137838771D01*
X107768327Y-137883460D01*
X107751357Y-137890489D01*
X107734387Y-137883460D01*
X107689697Y-137838771D01*
X107689698Y-137838771D01*
X107576663Y-137781177D01*
X107451357Y-137761331D01*
X107326050Y-137781177D01*
X107213016Y-137838771D01*
X107168327Y-137883460D01*
X107151357Y-137890489D01*
X107134387Y-137883460D01*
X107089697Y-137838771D01*
X107089698Y-137838771D01*
X106976663Y-137781177D01*
X106851357Y-137761331D01*
X106726050Y-137781177D01*
X106613016Y-137838771D01*
X106568327Y-137883460D01*
X106551357Y-137890489D01*
X106534387Y-137883460D01*
X106489697Y-137838771D01*
X106489698Y-137838771D01*
X106376663Y-137781177D01*
X106251357Y-137761331D01*
X106126050Y-137781177D01*
X106013016Y-137838771D01*
X105968327Y-137883460D01*
X105951357Y-137890489D01*
X105934387Y-137883460D01*
X105889697Y-137838771D01*
X105889698Y-137838771D01*
X105776663Y-137781177D01*
X105651357Y-137761331D01*
X105526050Y-137781177D01*
X105413018Y-137838770D01*
X105323304Y-137928484D01*
X105265711Y-138041516D01*
X105245865Y-138166823D01*
X105265711Y-138292129D01*
X105323304Y-138405161D01*
X105323305Y-138405162D01*
X105323307Y-138405165D01*
X105413015Y-138494873D01*
X105413017Y-138494874D01*
X105413018Y-138494875D01*
X105413634Y-138495189D01*
X105413936Y-138495542D01*
X105414546Y-138495986D01*
X105414439Y-138496132D01*
X105425564Y-138509157D01*
X105424122Y-138527469D01*
X105414497Y-138537093D01*
X105414546Y-138537160D01*
X105414125Y-138537465D01*
X105413634Y-138537957D01*
X105413018Y-138538270D01*
X105323304Y-138627984D01*
X105265711Y-138741016D01*
X105245865Y-138866323D01*
X85191700Y-138866323D01*
X85191700Y-133499677D01*
X95918360Y-133499677D01*
X95938206Y-133624983D01*
X95995799Y-133738015D01*
X95995800Y-133738016D01*
X95995802Y-133738019D01*
X96085510Y-133827727D01*
X96085512Y-133827728D01*
X96085513Y-133827729D01*
X96198545Y-133885322D01*
X96198546Y-133885322D01*
X96198548Y-133885323D01*
X96322837Y-133905008D01*
X96338497Y-133914605D01*
X96342786Y-133924958D01*
X96362471Y-134049247D01*
X96420064Y-134162279D01*
X96420065Y-134162280D01*
X96420067Y-134162283D01*
X96509775Y-134251991D01*
X96509777Y-134251992D01*
X96509778Y-134251993D01*
X96622810Y-134309586D01*
X96622811Y-134309586D01*
X96622813Y-134309587D01*
X96747100Y-134329272D01*
X96762761Y-134338869D01*
X96767050Y-134349222D01*
X96786735Y-134473511D01*
X96844328Y-134586543D01*
X96844329Y-134586544D01*
X96844331Y-134586547D01*
X96934039Y-134676255D01*
X96934041Y-134676256D01*
X96934042Y-134676257D01*
X97047074Y-134733850D01*
X97047075Y-134733850D01*
X97047077Y-134733851D01*
X97171364Y-134753536D01*
X97187025Y-134763133D01*
X97191314Y-134773486D01*
X97210999Y-134897775D01*
X97268592Y-135010807D01*
X97268593Y-135010808D01*
X97268595Y-135010811D01*
X97358303Y-135100519D01*
X97358305Y-135100520D01*
X97358306Y-135100521D01*
X97471338Y-135158114D01*
X97471339Y-135158114D01*
X97471341Y-135158115D01*
X97595628Y-135177800D01*
X97611289Y-135187397D01*
X97615578Y-135197750D01*
X97635263Y-135322039D01*
X97692856Y-135435071D01*
X97692857Y-135435072D01*
X97692859Y-135435075D01*
X97782567Y-135524783D01*
X97782569Y-135524784D01*
X97782570Y-135524785D01*
X97895602Y-135582378D01*
X97895603Y-135582378D01*
X97895605Y-135582379D01*
X98019892Y-135602064D01*
X98035553Y-135611661D01*
X98039842Y-135622014D01*
X98059527Y-135746303D01*
X98117120Y-135859335D01*
X98117121Y-135859336D01*
X98117123Y-135859339D01*
X98206831Y-135949047D01*
X98206833Y-135949048D01*
X98206834Y-135949049D01*
X98319866Y-136006642D01*
X98319867Y-136006642D01*
X98319869Y-136006643D01*
X98444156Y-136026328D01*
X98459817Y-136035925D01*
X98464106Y-136046278D01*
X98483791Y-136170567D01*
X98541384Y-136283599D01*
X98541385Y-136283600D01*
X98541387Y-136283603D01*
X98631095Y-136373311D01*
X98631097Y-136373312D01*
X98631098Y-136373313D01*
X98744130Y-136430906D01*
X98744131Y-136430906D01*
X98744133Y-136430907D01*
X98869437Y-136450753D01*
X98994741Y-136430907D01*
X99107779Y-136373311D01*
X99197487Y-136283603D01*
X99255083Y-136170565D01*
X99274929Y-136045261D01*
X99273450Y-136035925D01*
X99268812Y-136006642D01*
X99263322Y-135971982D01*
X99267609Y-135954123D01*
X99283271Y-135944525D01*
X99290777Y-135944525D01*
X99332818Y-135951183D01*
X99364055Y-135956132D01*
X99364056Y-135956132D01*
X99364057Y-135956131D01*
X99364058Y-135956132D01*
X99489362Y-135936286D01*
X99602400Y-135878690D01*
X99692108Y-135788982D01*
X99749704Y-135675944D01*
X99769550Y-135550640D01*
X115276764Y-135550640D01*
X115296610Y-135675946D01*
X115354203Y-135788978D01*
X115354204Y-135788979D01*
X115354206Y-135788982D01*
X115443914Y-135878690D01*
X115443916Y-135878691D01*
X115443917Y-135878692D01*
X115556949Y-135936285D01*
X115556950Y-135936285D01*
X115556952Y-135936286D01*
X115682256Y-135956132D01*
X115682256Y-135956131D01*
X115682258Y-135956132D01*
X115682259Y-135956132D01*
X115755530Y-135944526D01*
X115773392Y-135948813D01*
X115782989Y-135964475D01*
X115782990Y-135971984D01*
X115771385Y-136045261D01*
X115791231Y-136170568D01*
X115848824Y-136283600D01*
X115848825Y-136283601D01*
X115848827Y-136283604D01*
X115938535Y-136373312D01*
X115938537Y-136373313D01*
X115938538Y-136373314D01*
X116051570Y-136430907D01*
X116051571Y-136430907D01*
X116051573Y-136430908D01*
X116176877Y-136450754D01*
X116302181Y-136430908D01*
X116415219Y-136373312D01*
X116504927Y-136283604D01*
X116562523Y-136170566D01*
X116582208Y-136046275D01*
X116591805Y-136030616D01*
X116602154Y-136026328D01*
X116726445Y-136006643D01*
X116839483Y-135949047D01*
X116929191Y-135859339D01*
X116986787Y-135746301D01*
X117006472Y-135622011D01*
X117016069Y-135606352D01*
X117026418Y-135602064D01*
X117150709Y-135582379D01*
X117263747Y-135524783D01*
X117353455Y-135435075D01*
X117411051Y-135322037D01*
X117430736Y-135197747D01*
X117440333Y-135182088D01*
X117450682Y-135177800D01*
X117574973Y-135158115D01*
X117688011Y-135100519D01*
X117777719Y-135010811D01*
X117835315Y-134897773D01*
X117855000Y-134773483D01*
X117864597Y-134757824D01*
X117874946Y-134753536D01*
X117999237Y-134733851D01*
X118112275Y-134676255D01*
X118201983Y-134586547D01*
X118259579Y-134473509D01*
X118279264Y-134349219D01*
X118288861Y-134333560D01*
X118299210Y-134329272D01*
X118423501Y-134309587D01*
X118536539Y-134251991D01*
X118626247Y-134162283D01*
X118683843Y-134049245D01*
X118703528Y-133924955D01*
X118713125Y-133909296D01*
X118723474Y-133905008D01*
X118847765Y-133885323D01*
X118960803Y-133827727D01*
X119050511Y-133738019D01*
X119108107Y-133624981D01*
X119127953Y-133499677D01*
X119108107Y-133374373D01*
X119108106Y-133374371D01*
X119108106Y-133374370D01*
X119050513Y-133261338D01*
X119050512Y-133261337D01*
X119050511Y-133261335D01*
X118960803Y-133171627D01*
X118960800Y-133171625D01*
X118960799Y-133171624D01*
X118847767Y-133114031D01*
X118764229Y-133100800D01*
X118722461Y-133094185D01*
X118722460Y-133094185D01*
X118649184Y-133105790D01*
X118631323Y-133101501D01*
X118621725Y-133085839D01*
X118621726Y-133078330D01*
X118633332Y-133005058D01*
X118633171Y-133004039D01*
X118613486Y-132879752D01*
X118613485Y-132879750D01*
X118613485Y-132879749D01*
X118555892Y-132766717D01*
X118555891Y-132766716D01*
X118555890Y-132766714D01*
X118466182Y-132677006D01*
X118466179Y-132677004D01*
X118466178Y-132677003D01*
X118353146Y-132619410D01*
X118227840Y-132599564D01*
X118102533Y-132619410D01*
X117989501Y-132677003D01*
X117899787Y-132766717D01*
X117842195Y-132879748D01*
X117822509Y-133004039D01*
X117812911Y-133019700D01*
X117802558Y-133023989D01*
X117678272Y-133043674D01*
X117678270Y-133043674D01*
X117678268Y-133043675D01*
X117565237Y-133101267D01*
X117475523Y-133190981D01*
X117417931Y-133304012D01*
X117398245Y-133428303D01*
X117388647Y-133443964D01*
X117378294Y-133448253D01*
X117254008Y-133467938D01*
X117254006Y-133467938D01*
X117254004Y-133467939D01*
X117140973Y-133525531D01*
X117051259Y-133615245D01*
X116993667Y-133728276D01*
X116973981Y-133852567D01*
X116964383Y-133868228D01*
X116954030Y-133872517D01*
X116829744Y-133892202D01*
X116829742Y-133892202D01*
X116829740Y-133892203D01*
X116716709Y-133949795D01*
X116626995Y-134039509D01*
X116569403Y-134152540D01*
X116549717Y-134276831D01*
X116540119Y-134292492D01*
X116529766Y-134296781D01*
X116405480Y-134316466D01*
X116405478Y-134316466D01*
X116405476Y-134316467D01*
X116292445Y-134374059D01*
X116202731Y-134463773D01*
X116145139Y-134576804D01*
X116125453Y-134701095D01*
X116115855Y-134716756D01*
X116105502Y-134721045D01*
X115981216Y-134740730D01*
X115981214Y-134740730D01*
X115981212Y-134740731D01*
X115868181Y-134798323D01*
X115778467Y-134888037D01*
X115720875Y-135001068D01*
X115701189Y-135125359D01*
X115691591Y-135141020D01*
X115681238Y-135145309D01*
X115556952Y-135164994D01*
X115556950Y-135164994D01*
X115556948Y-135164995D01*
X115443917Y-135222587D01*
X115354203Y-135312301D01*
X115296610Y-135425333D01*
X115276764Y-135550640D01*
X99769550Y-135550640D01*
X99749704Y-135425336D01*
X99749703Y-135425334D01*
X99749703Y-135425333D01*
X99692110Y-135312301D01*
X99692109Y-135312300D01*
X99692108Y-135312298D01*
X99602400Y-135222590D01*
X99602397Y-135222588D01*
X99602396Y-135222587D01*
X99489364Y-135164994D01*
X99365075Y-135145309D01*
X99349413Y-135135711D01*
X99345125Y-135125360D01*
X99325440Y-135001072D01*
X99325439Y-135001070D01*
X99325439Y-135001069D01*
X99267846Y-134888037D01*
X99267845Y-134888036D01*
X99267844Y-134888034D01*
X99178136Y-134798326D01*
X99178133Y-134798324D01*
X99178132Y-134798323D01*
X99065100Y-134740730D01*
X98940811Y-134721045D01*
X98925149Y-134711447D01*
X98920861Y-134701096D01*
X98901176Y-134576808D01*
X98901175Y-134576806D01*
X98901175Y-134576805D01*
X98843582Y-134463773D01*
X98843581Y-134463772D01*
X98843580Y-134463770D01*
X98753872Y-134374062D01*
X98753869Y-134374060D01*
X98753868Y-134374059D01*
X98640836Y-134316466D01*
X98516547Y-134296781D01*
X98500885Y-134287183D01*
X98496597Y-134276832D01*
X98476912Y-134152544D01*
X98476911Y-134152542D01*
X98476911Y-134152541D01*
X98419318Y-134039509D01*
X98419317Y-134039508D01*
X98419316Y-134039506D01*
X98329608Y-133949798D01*
X98329605Y-133949796D01*
X98329604Y-133949795D01*
X98216572Y-133892202D01*
X98092283Y-133872517D01*
X98076621Y-133862919D01*
X98072333Y-133852568D01*
X98052648Y-133728280D01*
X98052647Y-133728278D01*
X98052647Y-133728277D01*
X97995054Y-133615245D01*
X97995053Y-133615244D01*
X97995052Y-133615242D01*
X97905344Y-133525534D01*
X97905341Y-133525532D01*
X97905340Y-133525531D01*
X97792308Y-133467938D01*
X97668019Y-133448253D01*
X97652357Y-133438655D01*
X97648069Y-133428304D01*
X97628384Y-133304016D01*
X97628383Y-133304014D01*
X97628383Y-133304013D01*
X97570790Y-133190981D01*
X97570789Y-133190980D01*
X97570788Y-133190978D01*
X97481080Y-133101270D01*
X97481077Y-133101268D01*
X97481076Y-133101267D01*
X97368044Y-133043674D01*
X97243755Y-133023989D01*
X97228093Y-133014391D01*
X97223805Y-133004040D01*
X97204120Y-132879752D01*
X97204119Y-132879750D01*
X97204119Y-132879749D01*
X97146526Y-132766717D01*
X97146525Y-132766716D01*
X97146524Y-132766714D01*
X97056816Y-132677006D01*
X97056813Y-132677004D01*
X97056812Y-132677003D01*
X96943780Y-132619410D01*
X96818474Y-132599564D01*
X96693167Y-132619410D01*
X96580135Y-132677003D01*
X96490421Y-132766717D01*
X96432828Y-132879749D01*
X96412982Y-133005056D01*
X96424587Y-133078331D01*
X96420298Y-133096192D01*
X96404636Y-133105790D01*
X96397128Y-133105790D01*
X96323852Y-133094185D01*
X96198545Y-133114031D01*
X96085513Y-133171624D01*
X95995799Y-133261338D01*
X95938206Y-133374370D01*
X95918360Y-133499677D01*
X85191700Y-133499677D01*
X85191700Y-126601084D01*
X93343165Y-126601084D01*
X93363011Y-126726390D01*
X93420604Y-126839422D01*
X93420605Y-126839423D01*
X93420607Y-126839426D01*
X93510315Y-126929134D01*
X93510317Y-126929135D01*
X93510318Y-126929136D01*
X93623350Y-126986729D01*
X93623351Y-126986729D01*
X93623353Y-126986730D01*
X93748657Y-127006576D01*
X93873961Y-126986730D01*
X93986999Y-126929134D01*
X94076707Y-126839426D01*
X94077021Y-126838808D01*
X94077376Y-126838505D01*
X94077820Y-126837895D01*
X94077966Y-126838001D01*
X94090987Y-126826878D01*
X94109300Y-126828316D01*
X94118927Y-126837943D01*
X94118994Y-126837895D01*
X94119299Y-126838315D01*
X94119792Y-126838808D01*
X94120107Y-126839426D01*
X94209815Y-126929134D01*
X94209817Y-126929135D01*
X94209818Y-126929136D01*
X94322850Y-126986729D01*
X94322851Y-126986729D01*
X94322853Y-126986730D01*
X94448157Y-127006576D01*
X94573461Y-126986730D01*
X94686499Y-126929134D01*
X94776207Y-126839426D01*
X94833803Y-126726388D01*
X94853649Y-126601084D01*
X94833803Y-126475780D01*
X94833802Y-126475778D01*
X94833802Y-126475777D01*
X94776209Y-126362745D01*
X94776208Y-126362744D01*
X94776207Y-126362742D01*
X94731518Y-126318053D01*
X94724490Y-126301084D01*
X94731518Y-126284114D01*
X94776207Y-126239426D01*
X94833803Y-126126388D01*
X94853649Y-126001084D01*
X94833803Y-125875780D01*
X94833802Y-125875778D01*
X94833802Y-125875777D01*
X94776209Y-125762745D01*
X94776208Y-125762744D01*
X94776207Y-125762742D01*
X94731518Y-125718053D01*
X94724490Y-125701084D01*
X94731518Y-125684114D01*
X94776207Y-125639426D01*
X94833803Y-125526388D01*
X94853649Y-125401084D01*
X94833803Y-125275780D01*
X94833802Y-125275778D01*
X94833802Y-125275777D01*
X94776209Y-125162745D01*
X94776208Y-125162744D01*
X94776207Y-125162742D01*
X94731518Y-125118053D01*
X94724490Y-125101084D01*
X94731518Y-125084114D01*
X94776207Y-125039426D01*
X94833803Y-124926388D01*
X94846542Y-124845957D01*
X99992633Y-124845957D01*
X100012721Y-125395647D01*
X100012722Y-125395652D01*
X100070488Y-125920650D01*
X100072883Y-125942410D01*
X100172794Y-126483320D01*
X100203582Y-126601084D01*
X100311920Y-127015485D01*
X100489526Y-127536093D01*
X100489532Y-127536109D01*
X100704657Y-128042339D01*
X100704658Y-128042341D01*
X100956158Y-128531512D01*
X100956173Y-128531539D01*
X101242711Y-129001050D01*
X101242715Y-129001056D01*
X101242716Y-129001057D01*
X101562774Y-129448415D01*
X101914632Y-129871217D01*
X102296415Y-130267207D01*
X102706084Y-130634273D01*
X103082447Y-130924891D01*
X103141454Y-130970455D01*
X103141455Y-130970456D01*
X103600193Y-131273954D01*
X103600210Y-131273964D01*
X104079877Y-131543166D01*
X104079880Y-131543167D01*
X104079883Y-131543169D01*
X104577934Y-131776646D01*
X105091698Y-131973144D01*
X105091702Y-131973145D01*
X105091710Y-131973148D01*
X105618409Y-132131609D01*
X105618421Y-132131612D01*
X105618427Y-132131613D01*
X105618436Y-132131616D01*
X106155336Y-132251216D01*
X106699534Y-132331305D01*
X107248127Y-132371457D01*
X107798187Y-132371457D01*
X108346780Y-132331305D01*
X108890978Y-132251216D01*
X109427878Y-132131616D01*
X109427889Y-132131612D01*
X109427892Y-132131612D01*
X109427904Y-132131609D01*
X109954603Y-131973148D01*
X109954604Y-131973147D01*
X109954616Y-131973144D01*
X110468380Y-131776646D01*
X110966431Y-131543169D01*
X111446111Y-131273960D01*
X111904860Y-130970455D01*
X112340230Y-130634273D01*
X112749899Y-130267207D01*
X113131682Y-129871217D01*
X113483540Y-129448415D01*
X113803598Y-129001057D01*
X114090146Y-128531530D01*
X114341657Y-128042338D01*
X114556788Y-127536093D01*
X114734391Y-127015494D01*
X114831001Y-126645957D01*
X120392665Y-126645957D01*
X120412511Y-126771263D01*
X120470104Y-126884295D01*
X120470105Y-126884296D01*
X120470107Y-126884299D01*
X120559815Y-126974007D01*
X120559817Y-126974008D01*
X120559818Y-126974009D01*
X120672850Y-127031602D01*
X120672851Y-127031602D01*
X120672853Y-127031603D01*
X120798157Y-127051449D01*
X120923461Y-127031603D01*
X121036499Y-126974007D01*
X121126207Y-126884299D01*
X121126521Y-126883681D01*
X121126876Y-126883378D01*
X121127320Y-126882768D01*
X121127466Y-126882874D01*
X121140487Y-126871751D01*
X121158800Y-126873189D01*
X121168427Y-126882816D01*
X121168494Y-126882768D01*
X121168799Y-126883188D01*
X121169292Y-126883681D01*
X121169607Y-126884299D01*
X121259315Y-126974007D01*
X121259317Y-126974008D01*
X121259318Y-126974009D01*
X121372350Y-127031602D01*
X121372351Y-127031602D01*
X121372353Y-127031603D01*
X121497657Y-127051449D01*
X121622961Y-127031603D01*
X121735999Y-126974007D01*
X121825707Y-126884299D01*
X121883303Y-126771261D01*
X121903149Y-126645957D01*
X121883303Y-126520653D01*
X121883302Y-126520651D01*
X121883302Y-126520650D01*
X121825709Y-126407618D01*
X121825708Y-126407617D01*
X121825707Y-126407615D01*
X121781018Y-126362926D01*
X121773990Y-126345957D01*
X121781018Y-126328987D01*
X121825707Y-126284299D01*
X121883303Y-126171261D01*
X121903149Y-126045957D01*
X121883303Y-125920653D01*
X121883302Y-125920651D01*
X121883302Y-125920650D01*
X121825709Y-125807618D01*
X121825708Y-125807617D01*
X121825707Y-125807615D01*
X121781018Y-125762926D01*
X121773990Y-125745957D01*
X121781018Y-125728987D01*
X121825707Y-125684299D01*
X121883303Y-125571261D01*
X121903149Y-125445957D01*
X121883303Y-125320653D01*
X121883302Y-125320651D01*
X121883302Y-125320650D01*
X121825709Y-125207618D01*
X121825708Y-125207617D01*
X121825707Y-125207615D01*
X121781018Y-125162926D01*
X121773990Y-125145957D01*
X121781018Y-125128987D01*
X121825707Y-125084299D01*
X121883303Y-124971261D01*
X121903149Y-124845957D01*
X121883303Y-124720653D01*
X121883302Y-124720651D01*
X121883302Y-124720650D01*
X121825709Y-124607618D01*
X121825708Y-124607617D01*
X121825707Y-124607615D01*
X121781018Y-124562926D01*
X121773990Y-124545957D01*
X121781018Y-124528987D01*
X121825707Y-124484299D01*
X121883303Y-124371261D01*
X121903149Y-124245957D01*
X121883303Y-124120653D01*
X121883302Y-124120651D01*
X121883302Y-124120650D01*
X121825709Y-124007618D01*
X121825708Y-124007617D01*
X121825707Y-124007615D01*
X121781018Y-123962926D01*
X121773990Y-123945957D01*
X121781018Y-123928987D01*
X121825707Y-123884299D01*
X121883303Y-123771261D01*
X121903149Y-123645957D01*
X121883303Y-123520653D01*
X121883302Y-123520651D01*
X121883302Y-123520650D01*
X121825709Y-123407618D01*
X121825708Y-123407617D01*
X121825707Y-123407615D01*
X121781018Y-123362926D01*
X121773990Y-123345957D01*
X121781018Y-123328987D01*
X121825707Y-123284299D01*
X121883303Y-123171261D01*
X121903149Y-123045957D01*
X121883303Y-122920653D01*
X121883302Y-122920651D01*
X121883302Y-122920650D01*
X121825709Y-122807618D01*
X121825708Y-122807617D01*
X121825707Y-122807615D01*
X121735999Y-122717907D01*
X121735996Y-122717905D01*
X121735995Y-122717904D01*
X121622963Y-122660311D01*
X121497657Y-122640465D01*
X121372350Y-122660311D01*
X121259318Y-122717904D01*
X121169604Y-122807618D01*
X121169291Y-122808234D01*
X121168937Y-122808536D01*
X121168494Y-122809146D01*
X121168347Y-122809039D01*
X121155323Y-122820164D01*
X121137011Y-122818722D01*
X121127386Y-122809097D01*
X121127320Y-122809146D01*
X121127014Y-122808725D01*
X121126523Y-122808234D01*
X121126209Y-122807618D01*
X121126208Y-122807617D01*
X121126207Y-122807615D01*
X121036499Y-122717907D01*
X121036496Y-122717905D01*
X121036495Y-122717904D01*
X120923463Y-122660311D01*
X120798157Y-122640465D01*
X120672850Y-122660311D01*
X120559818Y-122717904D01*
X120470104Y-122807618D01*
X120412511Y-122920650D01*
X120392665Y-123045957D01*
X120412511Y-123171263D01*
X120470105Y-123284297D01*
X120514794Y-123328987D01*
X120521823Y-123345957D01*
X120514794Y-123362927D01*
X120470105Y-123407616D01*
X120412511Y-123520650D01*
X120392665Y-123645957D01*
X120412511Y-123771263D01*
X120470105Y-123884297D01*
X120514794Y-123928987D01*
X120521823Y-123945957D01*
X120514794Y-123962927D01*
X120470105Y-124007616D01*
X120412511Y-124120650D01*
X120392665Y-124245957D01*
X120412511Y-124371263D01*
X120470105Y-124484297D01*
X120514794Y-124528987D01*
X120521823Y-124545957D01*
X120514794Y-124562927D01*
X120470105Y-124607616D01*
X120412511Y-124720650D01*
X120392665Y-124845957D01*
X120412511Y-124971263D01*
X120470105Y-125084297D01*
X120514794Y-125128987D01*
X120521823Y-125145957D01*
X120514794Y-125162927D01*
X120470105Y-125207616D01*
X120412511Y-125320650D01*
X120392665Y-125445957D01*
X120412511Y-125571263D01*
X120470105Y-125684297D01*
X120514794Y-125728987D01*
X120521823Y-125745957D01*
X120514794Y-125762927D01*
X120470105Y-125807616D01*
X120412511Y-125920650D01*
X120392665Y-126045957D01*
X120412511Y-126171263D01*
X120470105Y-126284297D01*
X120514794Y-126328987D01*
X120521823Y-126345957D01*
X120514794Y-126362927D01*
X120470105Y-126407616D01*
X120412511Y-126520650D01*
X120392665Y-126645957D01*
X114831001Y-126645957D01*
X114873520Y-126483320D01*
X114973431Y-125942410D01*
X115033592Y-125395650D01*
X115053681Y-124845957D01*
X115033592Y-124296264D01*
X114973431Y-123749504D01*
X114873520Y-123208594D01*
X114734391Y-122676420D01*
X114556788Y-122155821D01*
X114341657Y-121649576D01*
X114090146Y-121160384D01*
X114090140Y-121160374D01*
X113803602Y-120690863D01*
X113803598Y-120690857D01*
X113483540Y-120243499D01*
X113131682Y-119820697D01*
X112749899Y-119424707D01*
X112340230Y-119057641D01*
X112149626Y-118910461D01*
X111904859Y-118721458D01*
X111904858Y-118721457D01*
X111446120Y-118417959D01*
X111446103Y-118417949D01*
X110966436Y-118148747D01*
X110468380Y-117915268D01*
X110468366Y-117915262D01*
X109954623Y-117718772D01*
X109954603Y-117718765D01*
X109427904Y-117560304D01*
X109427892Y-117560301D01*
X108890979Y-117440698D01*
X108890974Y-117440697D01*
X108725175Y-117416297D01*
X108346790Y-117360610D01*
X108346777Y-117360608D01*
X107798187Y-117320457D01*
X107248127Y-117320457D01*
X106699536Y-117360608D01*
X106699523Y-117360610D01*
X106155343Y-117440697D01*
X106155334Y-117440698D01*
X105618421Y-117560301D01*
X105618409Y-117560304D01*
X105091710Y-117718765D01*
X105091690Y-117718772D01*
X104577947Y-117915262D01*
X104577933Y-117915268D01*
X104079877Y-118148747D01*
X103600210Y-118417949D01*
X103600193Y-118417959D01*
X103141455Y-118721457D01*
X103141454Y-118721458D01*
X102706091Y-119057635D01*
X102706086Y-119057639D01*
X102706084Y-119057641D01*
X102296415Y-119424707D01*
X102098912Y-119629558D01*
X101914631Y-119820697D01*
X101562773Y-120243500D01*
X101242711Y-120690863D01*
X100956173Y-121160374D01*
X100956158Y-121160401D01*
X100704658Y-121649572D01*
X100704657Y-121649574D01*
X100489532Y-122155804D01*
X100489526Y-122155820D01*
X100311920Y-122676428D01*
X100172793Y-123208599D01*
X100150556Y-123328987D01*
X100077153Y-123726390D01*
X100072883Y-123749505D01*
X100072881Y-123749517D01*
X100012722Y-124296261D01*
X100012721Y-124296266D01*
X99992633Y-124845957D01*
X94846542Y-124845957D01*
X94853649Y-124801084D01*
X94833803Y-124675780D01*
X94833802Y-124675778D01*
X94833802Y-124675777D01*
X94776209Y-124562745D01*
X94776208Y-124562744D01*
X94776207Y-124562742D01*
X94731518Y-124518053D01*
X94724490Y-124501084D01*
X94731518Y-124484114D01*
X94776207Y-124439426D01*
X94833803Y-124326388D01*
X94853649Y-124201084D01*
X94833803Y-124075780D01*
X94833802Y-124075778D01*
X94833802Y-124075777D01*
X94776209Y-123962745D01*
X94776208Y-123962744D01*
X94776207Y-123962742D01*
X94731518Y-123918053D01*
X94724490Y-123901084D01*
X94731518Y-123884114D01*
X94776207Y-123839426D01*
X94833803Y-123726388D01*
X94853649Y-123601084D01*
X94833803Y-123475780D01*
X94833802Y-123475778D01*
X94833802Y-123475777D01*
X94776209Y-123362745D01*
X94776208Y-123362744D01*
X94776207Y-123362742D01*
X94731518Y-123318053D01*
X94724490Y-123301084D01*
X94731518Y-123284114D01*
X94776207Y-123239426D01*
X94833803Y-123126388D01*
X94853649Y-123001084D01*
X94833803Y-122875780D01*
X94833802Y-122875778D01*
X94833802Y-122875777D01*
X94776209Y-122762745D01*
X94776208Y-122762744D01*
X94776207Y-122762742D01*
X94686499Y-122673034D01*
X94686496Y-122673032D01*
X94686495Y-122673031D01*
X94573463Y-122615438D01*
X94448157Y-122595592D01*
X94322850Y-122615438D01*
X94209818Y-122673031D01*
X94120104Y-122762745D01*
X94119791Y-122763361D01*
X94119437Y-122763663D01*
X94118994Y-122764273D01*
X94118847Y-122764166D01*
X94105823Y-122775291D01*
X94087511Y-122773849D01*
X94077886Y-122764224D01*
X94077820Y-122764273D01*
X94077514Y-122763852D01*
X94077023Y-122763361D01*
X94076709Y-122762745D01*
X94076708Y-122762744D01*
X94076707Y-122762742D01*
X93986999Y-122673034D01*
X93986996Y-122673032D01*
X93986995Y-122673031D01*
X93873963Y-122615438D01*
X93748657Y-122595592D01*
X93623350Y-122615438D01*
X93510318Y-122673031D01*
X93420604Y-122762745D01*
X93363011Y-122875777D01*
X93343165Y-123001084D01*
X93363011Y-123126390D01*
X93420605Y-123239424D01*
X93465294Y-123284114D01*
X93472323Y-123301084D01*
X93465294Y-123318054D01*
X93420605Y-123362743D01*
X93363011Y-123475777D01*
X93343165Y-123601084D01*
X93363011Y-123726390D01*
X93420605Y-123839424D01*
X93465294Y-123884114D01*
X93472323Y-123901084D01*
X93465294Y-123918054D01*
X93420605Y-123962743D01*
X93363011Y-124075777D01*
X93343165Y-124201084D01*
X93363011Y-124326390D01*
X93420605Y-124439424D01*
X93465294Y-124484114D01*
X93472323Y-124501084D01*
X93465294Y-124518054D01*
X93420605Y-124562743D01*
X93363011Y-124675777D01*
X93343165Y-124801084D01*
X93363011Y-124926390D01*
X93420605Y-125039424D01*
X93465294Y-125084114D01*
X93472323Y-125101084D01*
X93465294Y-125118054D01*
X93420605Y-125162743D01*
X93363011Y-125275777D01*
X93343165Y-125401084D01*
X93363011Y-125526390D01*
X93420605Y-125639424D01*
X93465294Y-125684114D01*
X93472323Y-125701084D01*
X93465294Y-125718054D01*
X93420605Y-125762743D01*
X93363011Y-125875777D01*
X93343165Y-126001084D01*
X93363011Y-126126390D01*
X93420605Y-126239424D01*
X93465294Y-126284114D01*
X93472323Y-126301084D01*
X93465294Y-126318054D01*
X93420605Y-126362743D01*
X93363011Y-126475777D01*
X93343165Y-126601084D01*
X85191700Y-126601084D01*
X85191700Y-116192237D01*
X95918361Y-116192237D01*
X95938207Y-116317543D01*
X95995800Y-116430575D01*
X95995801Y-116430576D01*
X95995803Y-116430579D01*
X96085511Y-116520287D01*
X96085513Y-116520288D01*
X96085514Y-116520289D01*
X96198546Y-116577882D01*
X96198547Y-116577882D01*
X96198549Y-116577883D01*
X96323853Y-116597729D01*
X96323853Y-116597728D01*
X96323855Y-116597729D01*
X96323856Y-116597729D01*
X96397127Y-116586123D01*
X96414989Y-116590410D01*
X96424586Y-116606072D01*
X96424587Y-116613581D01*
X96412982Y-116686857D01*
X96432828Y-116812164D01*
X96490421Y-116925196D01*
X96490422Y-116925197D01*
X96490424Y-116925200D01*
X96580132Y-117014908D01*
X96580134Y-117014909D01*
X96580135Y-117014910D01*
X96693167Y-117072503D01*
X96693168Y-117072503D01*
X96693170Y-117072504D01*
X96818474Y-117092350D01*
X96943778Y-117072504D01*
X97056816Y-117014908D01*
X97146524Y-116925200D01*
X97204120Y-116812162D01*
X97223805Y-116687872D01*
X97233402Y-116672213D01*
X97243751Y-116667925D01*
X97368042Y-116648240D01*
X97481080Y-116590644D01*
X97570788Y-116500936D01*
X97628384Y-116387898D01*
X97648069Y-116263608D01*
X97657666Y-116247949D01*
X97668015Y-116243661D01*
X97792306Y-116223976D01*
X97905344Y-116166380D01*
X97995052Y-116076672D01*
X98052648Y-115963634D01*
X98072333Y-115839344D01*
X98081930Y-115823685D01*
X98092279Y-115819397D01*
X98216570Y-115799712D01*
X98329608Y-115742116D01*
X98419316Y-115652408D01*
X98476912Y-115539370D01*
X98496597Y-115415080D01*
X98506194Y-115399421D01*
X98516543Y-115395133D01*
X98640834Y-115375448D01*
X98753872Y-115317852D01*
X98843580Y-115228144D01*
X98901176Y-115115106D01*
X98920861Y-114990816D01*
X98930458Y-114975157D01*
X98940807Y-114970869D01*
X99065098Y-114951184D01*
X99178136Y-114893588D01*
X99267844Y-114803880D01*
X99325440Y-114690842D01*
X99345125Y-114566552D01*
X99354722Y-114550893D01*
X99365071Y-114546605D01*
X99489362Y-114526920D01*
X99602400Y-114469324D01*
X99692108Y-114379616D01*
X99749704Y-114266578D01*
X99769550Y-114141274D01*
X99749704Y-114015970D01*
X99749703Y-114015968D01*
X99749703Y-114015967D01*
X99692110Y-113902935D01*
X99692109Y-113902934D01*
X99692108Y-113902932D01*
X99602400Y-113813224D01*
X99602397Y-113813222D01*
X99602396Y-113813221D01*
X99489364Y-113755628D01*
X99384426Y-113739008D01*
X99364058Y-113735782D01*
X99364057Y-113735782D01*
X99290780Y-113747387D01*
X99272919Y-113743098D01*
X99263321Y-113727436D01*
X99263321Y-113719933D01*
X99265111Y-113708631D01*
X115276764Y-113708631D01*
X115296610Y-113833937D01*
X115354203Y-113946969D01*
X115354204Y-113946970D01*
X115354206Y-113946973D01*
X115443914Y-114036681D01*
X115443916Y-114036682D01*
X115443917Y-114036683D01*
X115556949Y-114094276D01*
X115556950Y-114094276D01*
X115556952Y-114094277D01*
X115681239Y-114113962D01*
X115696900Y-114123559D01*
X115701189Y-114133912D01*
X115720874Y-114258201D01*
X115778467Y-114371233D01*
X115778468Y-114371234D01*
X115778470Y-114371237D01*
X115868178Y-114460945D01*
X115868180Y-114460946D01*
X115868181Y-114460947D01*
X115981213Y-114518540D01*
X115981214Y-114518540D01*
X115981216Y-114518541D01*
X116105503Y-114538226D01*
X116121164Y-114547823D01*
X116125453Y-114558176D01*
X116145138Y-114682465D01*
X116202731Y-114795497D01*
X116202732Y-114795498D01*
X116202734Y-114795501D01*
X116292442Y-114885209D01*
X116292444Y-114885210D01*
X116292445Y-114885211D01*
X116405477Y-114942804D01*
X116405478Y-114942804D01*
X116405480Y-114942805D01*
X116529767Y-114962490D01*
X116545428Y-114972087D01*
X116549717Y-114982440D01*
X116569402Y-115106729D01*
X116626995Y-115219761D01*
X116626996Y-115219762D01*
X116626998Y-115219765D01*
X116716706Y-115309473D01*
X116716708Y-115309474D01*
X116716709Y-115309475D01*
X116829741Y-115367068D01*
X116829742Y-115367068D01*
X116829744Y-115367069D01*
X116954031Y-115386754D01*
X116969692Y-115396351D01*
X116973981Y-115406704D01*
X116993666Y-115530993D01*
X117051259Y-115644025D01*
X117051260Y-115644026D01*
X117051262Y-115644029D01*
X117140970Y-115733737D01*
X117140972Y-115733738D01*
X117140973Y-115733739D01*
X117254005Y-115791332D01*
X117254006Y-115791332D01*
X117254008Y-115791333D01*
X117378295Y-115811018D01*
X117393956Y-115820615D01*
X117398245Y-115830968D01*
X117417930Y-115955257D01*
X117475523Y-116068289D01*
X117475524Y-116068290D01*
X117475526Y-116068293D01*
X117565234Y-116158001D01*
X117565236Y-116158002D01*
X117565237Y-116158003D01*
X117678269Y-116215596D01*
X117678270Y-116215596D01*
X117678272Y-116215597D01*
X117802559Y-116235282D01*
X117818220Y-116244879D01*
X117822509Y-116255232D01*
X117842194Y-116379521D01*
X117899787Y-116492553D01*
X117899788Y-116492554D01*
X117899790Y-116492557D01*
X117989498Y-116582265D01*
X117989500Y-116582266D01*
X117989501Y-116582267D01*
X118102533Y-116639860D01*
X118102534Y-116639860D01*
X118102536Y-116639861D01*
X118227840Y-116659707D01*
X118353144Y-116639861D01*
X118466182Y-116582265D01*
X118555890Y-116492557D01*
X118613486Y-116379519D01*
X118633332Y-116254215D01*
X118631853Y-116244879D01*
X118621726Y-116180939D01*
X118626013Y-116163077D01*
X118641675Y-116153480D01*
X118649185Y-116153480D01*
X118722459Y-116165086D01*
X118722460Y-116165086D01*
X118722461Y-116165085D01*
X118722462Y-116165086D01*
X118847766Y-116145240D01*
X118960804Y-116087644D01*
X119050512Y-115997936D01*
X119108108Y-115884898D01*
X119127954Y-115759594D01*
X119108108Y-115634290D01*
X119108107Y-115634288D01*
X119108107Y-115634287D01*
X119050514Y-115521255D01*
X119050513Y-115521254D01*
X119050512Y-115521252D01*
X118960804Y-115431544D01*
X118960801Y-115431542D01*
X118960800Y-115431541D01*
X118847768Y-115373948D01*
X118744762Y-115357634D01*
X118723477Y-115354262D01*
X118707816Y-115344665D01*
X118703528Y-115334314D01*
X118683843Y-115210026D01*
X118683842Y-115210024D01*
X118683842Y-115210023D01*
X118626249Y-115096991D01*
X118626248Y-115096990D01*
X118626247Y-115096988D01*
X118536539Y-115007280D01*
X118536536Y-115007278D01*
X118536535Y-115007277D01*
X118423503Y-114949684D01*
X118299214Y-114929999D01*
X118283552Y-114920401D01*
X118279264Y-114910050D01*
X118259579Y-114785762D01*
X118259578Y-114785760D01*
X118259578Y-114785759D01*
X118201985Y-114672727D01*
X118201984Y-114672726D01*
X118201983Y-114672724D01*
X118112275Y-114583016D01*
X118112272Y-114583014D01*
X118112271Y-114583013D01*
X117999239Y-114525420D01*
X117874950Y-114505735D01*
X117859288Y-114496137D01*
X117855000Y-114485786D01*
X117835315Y-114361498D01*
X117835314Y-114361496D01*
X117835314Y-114361495D01*
X117777721Y-114248463D01*
X117777720Y-114248462D01*
X117777719Y-114248460D01*
X117688011Y-114158752D01*
X117688008Y-114158750D01*
X117688007Y-114158749D01*
X117574975Y-114101156D01*
X117450686Y-114081471D01*
X117435024Y-114071873D01*
X117430736Y-114061522D01*
X117411051Y-113937234D01*
X117411050Y-113937232D01*
X117411050Y-113937231D01*
X117353457Y-113824199D01*
X117353456Y-113824198D01*
X117353455Y-113824196D01*
X117263747Y-113734488D01*
X117263744Y-113734486D01*
X117263743Y-113734485D01*
X117150711Y-113676892D01*
X117026422Y-113657207D01*
X117010760Y-113647609D01*
X117006472Y-113637258D01*
X116986787Y-113512970D01*
X116986786Y-113512968D01*
X116986786Y-113512967D01*
X116929193Y-113399935D01*
X116929192Y-113399934D01*
X116929191Y-113399932D01*
X116839483Y-113310224D01*
X116839480Y-113310222D01*
X116839479Y-113310221D01*
X116726447Y-113252628D01*
X116602158Y-113232943D01*
X116586496Y-113223345D01*
X116582208Y-113212994D01*
X116562523Y-113088706D01*
X116562522Y-113088704D01*
X116562522Y-113088703D01*
X116504929Y-112975671D01*
X116504928Y-112975670D01*
X116504927Y-112975668D01*
X116415219Y-112885960D01*
X116415216Y-112885958D01*
X116415215Y-112885957D01*
X116302183Y-112828364D01*
X116176877Y-112808518D01*
X116051570Y-112828364D01*
X115938538Y-112885957D01*
X115848824Y-112975671D01*
X115791231Y-113088703D01*
X115771385Y-113214010D01*
X115782990Y-113287285D01*
X115778701Y-113305146D01*
X115763039Y-113314744D01*
X115755531Y-113314744D01*
X115682256Y-113303139D01*
X115556949Y-113322985D01*
X115443917Y-113380578D01*
X115354203Y-113470292D01*
X115296610Y-113583324D01*
X115276764Y-113708631D01*
X99265111Y-113708631D01*
X99273283Y-113657046D01*
X99274929Y-113646654D01*
X99273441Y-113637256D01*
X99255083Y-113521348D01*
X99255082Y-113521346D01*
X99255082Y-113521345D01*
X99197489Y-113408313D01*
X99197488Y-113408312D01*
X99197487Y-113408310D01*
X99107779Y-113318602D01*
X99107776Y-113318600D01*
X99107775Y-113318599D01*
X98994743Y-113261006D01*
X98869437Y-113241160D01*
X98744130Y-113261006D01*
X98631098Y-113318599D01*
X98541384Y-113408313D01*
X98483791Y-113521345D01*
X98464106Y-113645635D01*
X98454508Y-113661297D01*
X98444155Y-113665586D01*
X98319869Y-113685271D01*
X98319867Y-113685271D01*
X98319865Y-113685272D01*
X98206834Y-113742864D01*
X98117120Y-113832578D01*
X98059528Y-113945609D01*
X98059527Y-113945611D01*
X98059527Y-113945613D01*
X98059312Y-113946973D01*
X98039842Y-114069900D01*
X98030244Y-114085561D01*
X98019891Y-114089850D01*
X97895605Y-114109535D01*
X97895603Y-114109535D01*
X97895601Y-114109536D01*
X97782570Y-114167128D01*
X97692856Y-114256842D01*
X97635264Y-114369873D01*
X97635263Y-114369875D01*
X97635263Y-114369877D01*
X97635048Y-114371237D01*
X97615578Y-114494164D01*
X97605980Y-114509825D01*
X97595627Y-114514114D01*
X97471341Y-114533799D01*
X97471339Y-114533799D01*
X97471337Y-114533800D01*
X97358306Y-114591392D01*
X97268592Y-114681106D01*
X97211000Y-114794137D01*
X97210999Y-114794139D01*
X97210999Y-114794141D01*
X97210784Y-114795501D01*
X97191314Y-114918428D01*
X97181716Y-114934089D01*
X97171363Y-114938378D01*
X97047077Y-114958063D01*
X97047075Y-114958063D01*
X97047073Y-114958064D01*
X96934042Y-115015656D01*
X96844328Y-115105370D01*
X96786736Y-115218401D01*
X96786735Y-115218403D01*
X96786735Y-115218405D01*
X96786520Y-115219765D01*
X96767050Y-115342692D01*
X96757452Y-115358353D01*
X96747099Y-115362642D01*
X96622813Y-115382327D01*
X96622811Y-115382327D01*
X96622809Y-115382328D01*
X96509778Y-115439920D01*
X96420064Y-115529634D01*
X96362472Y-115642665D01*
X96362471Y-115642667D01*
X96362471Y-115642669D01*
X96362256Y-115644029D01*
X96342786Y-115766956D01*
X96333188Y-115782617D01*
X96322835Y-115786906D01*
X96198549Y-115806591D01*
X96198547Y-115806591D01*
X96198545Y-115806592D01*
X96085514Y-115864184D01*
X95995800Y-115953898D01*
X95938207Y-116066930D01*
X95918361Y-116192237D01*
X85191700Y-116192237D01*
X85191700Y-111819157D01*
X105278865Y-111819157D01*
X105298711Y-111944463D01*
X105356304Y-112057495D01*
X105356305Y-112057496D01*
X105356307Y-112057499D01*
X105446015Y-112147207D01*
X105446017Y-112147208D01*
X105446018Y-112147209D01*
X105559050Y-112204802D01*
X105559051Y-112204802D01*
X105559053Y-112204803D01*
X105684357Y-112224649D01*
X105809661Y-112204803D01*
X105922699Y-112147207D01*
X105967387Y-112102518D01*
X105984357Y-112095490D01*
X106001326Y-112102518D01*
X106046015Y-112147207D01*
X106046017Y-112147208D01*
X106046018Y-112147209D01*
X106159050Y-112204802D01*
X106159051Y-112204802D01*
X106159053Y-112204803D01*
X106284357Y-112224649D01*
X106409661Y-112204803D01*
X106522699Y-112147207D01*
X106567387Y-112102518D01*
X106584357Y-112095490D01*
X106601326Y-112102518D01*
X106646015Y-112147207D01*
X106646017Y-112147208D01*
X106646018Y-112147209D01*
X106759050Y-112204802D01*
X106759051Y-112204802D01*
X106759053Y-112204803D01*
X106884357Y-112224649D01*
X107009661Y-112204803D01*
X107122699Y-112147207D01*
X107167387Y-112102518D01*
X107184357Y-112095490D01*
X107201326Y-112102518D01*
X107246015Y-112147207D01*
X107246017Y-112147208D01*
X107246018Y-112147209D01*
X107359050Y-112204802D01*
X107359051Y-112204802D01*
X107359053Y-112204803D01*
X107484357Y-112224649D01*
X107609661Y-112204803D01*
X107722699Y-112147207D01*
X107767387Y-112102518D01*
X107784357Y-112095490D01*
X107801326Y-112102518D01*
X107846015Y-112147207D01*
X107846017Y-112147208D01*
X107846018Y-112147209D01*
X107959050Y-112204802D01*
X107959051Y-112204802D01*
X107959053Y-112204803D01*
X108084357Y-112224649D01*
X108209661Y-112204803D01*
X108322699Y-112147207D01*
X108367387Y-112102518D01*
X108384357Y-112095490D01*
X108401326Y-112102518D01*
X108446015Y-112147207D01*
X108446017Y-112147208D01*
X108446018Y-112147209D01*
X108559050Y-112204802D01*
X108559051Y-112204802D01*
X108559053Y-112204803D01*
X108684357Y-112224649D01*
X108809661Y-112204803D01*
X108922699Y-112147207D01*
X108967387Y-112102518D01*
X108984357Y-112095490D01*
X109001326Y-112102518D01*
X109046015Y-112147207D01*
X109046017Y-112147208D01*
X109046018Y-112147209D01*
X109159050Y-112204802D01*
X109159051Y-112204802D01*
X109159053Y-112204803D01*
X109284357Y-112224649D01*
X109409661Y-112204803D01*
X109522699Y-112147207D01*
X109612407Y-112057499D01*
X109670003Y-111944461D01*
X109689849Y-111819157D01*
X109670003Y-111693853D01*
X109670002Y-111693851D01*
X109670002Y-111693850D01*
X109612409Y-111580818D01*
X109612408Y-111580817D01*
X109612407Y-111580815D01*
X109522699Y-111491107D01*
X109522081Y-111490792D01*
X109521778Y-111490437D01*
X109521168Y-111489994D01*
X109521274Y-111489847D01*
X109510151Y-111476827D01*
X109511589Y-111458514D01*
X109521216Y-111448886D01*
X109521168Y-111448820D01*
X109521588Y-111448514D01*
X109522081Y-111448021D01*
X109522699Y-111447707D01*
X109612407Y-111357999D01*
X109670003Y-111244961D01*
X109689849Y-111119657D01*
X109670003Y-110994353D01*
X109670002Y-110994351D01*
X109670002Y-110994350D01*
X109612409Y-110881318D01*
X109612408Y-110881317D01*
X109612407Y-110881315D01*
X109522699Y-110791607D01*
X109522696Y-110791605D01*
X109522695Y-110791604D01*
X109409663Y-110734011D01*
X109284357Y-110714165D01*
X109159050Y-110734011D01*
X109046016Y-110791605D01*
X109001327Y-110836294D01*
X108984357Y-110843323D01*
X108967387Y-110836294D01*
X108922697Y-110791605D01*
X108922698Y-110791605D01*
X108809663Y-110734011D01*
X108684357Y-110714165D01*
X108559050Y-110734011D01*
X108446016Y-110791605D01*
X108401327Y-110836294D01*
X108384357Y-110843323D01*
X108367387Y-110836294D01*
X108322697Y-110791605D01*
X108322698Y-110791605D01*
X108209663Y-110734011D01*
X108084357Y-110714165D01*
X107959050Y-110734011D01*
X107846016Y-110791605D01*
X107801327Y-110836294D01*
X107784357Y-110843323D01*
X107767387Y-110836294D01*
X107722697Y-110791605D01*
X107722698Y-110791605D01*
X107609663Y-110734011D01*
X107484357Y-110714165D01*
X107359050Y-110734011D01*
X107246016Y-110791605D01*
X107201327Y-110836294D01*
X107184357Y-110843323D01*
X107167387Y-110836294D01*
X107122697Y-110791605D01*
X107122698Y-110791605D01*
X107009663Y-110734011D01*
X106884357Y-110714165D01*
X106759050Y-110734011D01*
X106646016Y-110791605D01*
X106601327Y-110836294D01*
X106584357Y-110843323D01*
X106567387Y-110836294D01*
X106522697Y-110791605D01*
X106522698Y-110791605D01*
X106409663Y-110734011D01*
X106284357Y-110714165D01*
X106159050Y-110734011D01*
X106046016Y-110791605D01*
X106001327Y-110836294D01*
X105984357Y-110843323D01*
X105967387Y-110836294D01*
X105922697Y-110791605D01*
X105922698Y-110791605D01*
X105809663Y-110734011D01*
X105684357Y-110714165D01*
X105559050Y-110734011D01*
X105446018Y-110791604D01*
X105356304Y-110881318D01*
X105298711Y-110994350D01*
X105278865Y-111119657D01*
X105298711Y-111244963D01*
X105356304Y-111357995D01*
X105356305Y-111357996D01*
X105356307Y-111357999D01*
X105446015Y-111447707D01*
X105446017Y-111447708D01*
X105446018Y-111447709D01*
X105446634Y-111448023D01*
X105446936Y-111448376D01*
X105447546Y-111448820D01*
X105447439Y-111448966D01*
X105458564Y-111461991D01*
X105457122Y-111480303D01*
X105447497Y-111489927D01*
X105447546Y-111489994D01*
X105447125Y-111490299D01*
X105446634Y-111490791D01*
X105446018Y-111491104D01*
X105356304Y-111580818D01*
X105298711Y-111693850D01*
X105278865Y-111819157D01*
X85191700Y-111819157D01*
X85191700Y-104902859D01*
X85191761Y-104901147D01*
X85206830Y-104690456D01*
X85207317Y-104687066D01*
X85232394Y-104571789D01*
X85252038Y-104481486D01*
X85252996Y-104478223D01*
X85326519Y-104281101D01*
X85327937Y-104277996D01*
X85428763Y-104093348D01*
X85430601Y-104090487D01*
X85556684Y-103922058D01*
X85558913Y-103919486D01*
X85707686Y-103770713D01*
X85710258Y-103768484D01*
X85878687Y-103642401D01*
X85881548Y-103640563D01*
X86066196Y-103539737D01*
X86069301Y-103538319D01*
X86266423Y-103464796D01*
X86269686Y-103463838D01*
X86475271Y-103419116D01*
X86478651Y-103418630D01*
X86689347Y-103403560D01*
X86691059Y-103403500D01*
X127872822Y-103403500D01*
X128092211Y-103371957D01*
X128304878Y-103309512D01*
X128506493Y-103217437D01*
X128507043Y-103217084D01*
X128692948Y-103097610D01*
X128692947Y-103097610D01*
X128692953Y-103097607D01*
X128860461Y-102952461D01*
X129005607Y-102784953D01*
X129125437Y-102598493D01*
X129217512Y-102396878D01*
X129279957Y-102184211D01*
X129311500Y-101964822D01*
X129311500Y-101854000D01*
X129311500Y-101845715D01*
X129311500Y-97022928D01*
X129311500Y-90424859D01*
X129311561Y-90423147D01*
X129326630Y-90212456D01*
X129327117Y-90209066D01*
X129352194Y-90093789D01*
X129371838Y-90003486D01*
X129372796Y-90000223D01*
X129446319Y-89803101D01*
X129447737Y-89799996D01*
X129548563Y-89615348D01*
X129550401Y-89612487D01*
X129676484Y-89444058D01*
X129678713Y-89441486D01*
X129827486Y-89292713D01*
X129830058Y-89290484D01*
X129998487Y-89164401D01*
X130001348Y-89162563D01*
X130185996Y-89061737D01*
X130189101Y-89060319D01*
X130386223Y-88986796D01*
X130389486Y-88985838D01*
X130595071Y-88941116D01*
X130598451Y-88940630D01*
X130809147Y-88925560D01*
X130810859Y-88925500D01*
X130818285Y-88925500D01*
X161535715Y-88925500D01*
X161543141Y-88925500D01*
X161544852Y-88925560D01*
G37*
G04 #@! TD.AperFunction*
M02*
