0
SECTION
2
HEADER
9
$INSUNITS
70
4
9
$ACADVER
1
AC1014
9
$HANDSEED
5
FFFF
0
ENDSEC
0
SECTION
2
TABLES
0
TABLE
2
VPORT
5
8
100
AcDbSymbolTable
0
ENDTAB
0
TABLE
2
LTYPE
5
5
100
AcDbSymbolTable
0
LTYPE
5
14
100
AcDbSymbolTableRecord
100
AcDbLinetypeTableRecord
2
BYBLOCK
70
0
0
LTYPE
5
15
100
AcDbSymbolTableRecord
100
AcDbLinetypeTableRecord
2
BYLAYER
70
0
0
ENDTAB
0
TABLE
2
LAYER
5
2
100
AcDbSymbolTable
70
2
0
LAYER
5
50
100
AcDbSymbolTableRecord
100
AcDbLayerTableRecord
2
0
70
0
6
CONTINUOUS
0
ENDTAB
0
TABLE
2
STYLE
5
3
100
AcDbSymbolTable
70
1
0
STYLE
5
11
100
AcDbSymbolTableRecord
100
AcDbTextStyleTableRecord
2
STANDARD
70
0
0
ENDTAB
0
TABLE
2
VIEW
5
6
100
AcDbSymbolTable
70
0
0
ENDTAB
0
TABLE
2
UCS
5
7
100
AcDbSymbolTable
70
0
0
ENDTAB
0
TABLE
2
APPID
5
9
100
AcDbSymbolTable
70
2
0
APPID
5
12
100
AcDbSymbolTableRecord
100
AcDbRegAppTableRecord
2
ACAD
70
0
0
ENDTAB
0
TABLE
2
DIMSTYLE
5
A
100
AcDbSymbolTable
70
1
0
ENDTAB
0
TABLE
2
BLOCK_RECORD
5
1
100
AcDbSymbolTable
70
1
0
BLOCK_RECORD
5
1F
100
AcDbSymbolTableRecord
100
AcDbBlockTableRecord
2
*MODEL_SPACE
0
BLOCK_RECORD
5
1B
100
AcDbSymbolTableRecord
100
AcDbBlockTableRecord
2
*PAPER_SPACE
0
ENDTAB
0
ENDSEC
0
SECTION
2
BLOCKS
0
BLOCK
5
20
100
AcDbEntity
100
AcDbBlockBegin
2
*MODEL_SPACE
0
ENDBLK
5
21
100
AcDbEntity
100
AcDbBlockEnd
0
BLOCK
5
1C
100
AcDbEntity
100
AcDbBlockBegin
2
*PAPER_SPACE
0
ENDBLK
5
1D
100
AcDbEntity
100
AcDbBlockEnd
0
ENDSEC
0
SECTION
2
ENTITIES
0
LWPOLYLINE
5
100
100
AcDbEntity
8
0
100
AcDbPolyline
90
28
70
1
43
0.0
10
75.468185709692847
20
29.795751311064581
10
77.468185709692847
20
29.795751311064581
10
77.468185709692847
20
41.649999999999991
10
99.468185709692861
20
41.649999999999991
10
99.468185709692861
20
29.795751311064585
10
101.46818570969286
20
29.795751311064592
10
101.46818570969286
20
41.649999999999991
10
123.46818570969288
20
41.649999999999991
10
123.46818570969288
20
29.795751311064596
10
125.46818570969286
20
29.795751311064596
10
125.46818570969286
20
41.649999999999991
10
125.64185168713009
20
41.649999999999991
10
125.64185168713007
20
43.649999999999991
10
125.46818570969286
20
43.649999999999991
10
125.46818570969286
20
55.504248688935427
10
123.46818570969288
20
55.504248688935427
10
123.46818570969288
20
43.649999999999991
10
101.46818570969286
20
43.649999999999991
10
101.46818570969286
20
55.504248688935405
10
99.468185709692861
20
55.504248688935405
10
99.468185709692861
20
43.649999999999991
10
77.468185709692847
20
43.649999999999984
10
77.468185709692847
20
55.504248688935391
10
75.468185709692847
20
55.504248688935391
10
75.468185709692847
20
43.649999999999984
10
60.349874371066207
20
43.649999999999963
42
-0.050125628933799869
10
60.349874371066207
20
41.649999999999991
10
75.468185709692847
20
41.649999999999991
0
CIRCLE
5
101
100
AcDbEntity
8
0
100
AcDbCircle
10
76.468185709692861
20
42.649999999999991
30
0
40
2.2999999999999972
210
0
220
0
230
1
0
CIRCLE
5
102
100
AcDbEntity
8
0
100
AcDbCircle
10
76.468185709692861
20
42.649999999999991
30
0
40
3.9999999999999956
210
0
220
0
230
1
0
CIRCLE
5
103
100
AcDbEntity
8
0
100
AcDbCircle
10
76.468185709692861
20
42.649999999999991
30
0
40
2.1999999999999984
210
0
220
0
230
1
0
CIRCLE
5
104
100
AcDbEntity
8
0
100
AcDbCircle
10
76.468185709692861
20
42.649999999999991
30
0
40
2.0000000000000022
210
0
220
0
230
1
0
CIRCLE
5
105
100
AcDbEntity
8
0
100
AcDbCircle
10
50.399999999999999
20
42.649999999999991
30
0
40
8.0000000000000036
210
0
220
0
230
1
0
ENDSEC
0
SECTION
2
OBJECTS
0
DICTIONARY
5
C
100
AcDbDictionary
3
ACAD_GROUP
350
D
3
ACAD_MLINESTYLE
350
17
0
DICTIONARY
5
D
100
AcDbDictionary
0
DICTIONARY
5
1A
330
C
100
AcDbDictionary
0
DICTIONARY
5
17
100
AcDbDictionary
0
ENDSEC
0
EOF
