0
SECTION
2
HEADER
9
$INSUNITS
70
4
9
$ACADVER
1
AC1014
9
$HANDSEED
5
FFFF
0
ENDSEC
0
SECTION
2
TABLES
0
TABLE
2
VPORT
5
8
100
AcDbSymbolTable
0
ENDTAB
0
TABLE
2
LTYPE
5
5
100
AcDbSymbolTable
0
LTYPE
5
14
100
AcDbSymbolTableRecord
100
AcDbLinetypeTableRecord
2
BYBLOCK
70
0
0
LTYPE
5
15
100
AcDbSymbolTableRecord
100
AcDbLinetypeTableRecord
2
BYLAYER
70
0
0
ENDTAB
0
TABLE
2
LAYER
5
2
100
AcDbSymbolTable
70
2
0
LAYER
5
50
100
AcDbSymbolTableRecord
100
AcDbLayerTableRecord
2
0
70
0
6
CONTINUOUS
0
ENDTAB
0
TABLE
2
STYLE
5
3
100
AcDbSymbolTable
70
1
0
STYLE
5
11
100
AcDbSymbolTableRecord
100
AcDbTextStyleTableRecord
2
STANDARD
70
0
0
ENDTAB
0
TABLE
2
VIEW
5
6
100
AcDbSymbolTable
70
0
0
ENDTAB
0
TABLE
2
UCS
5
7
100
AcDbSymbolTable
70
0
0
ENDTAB
0
TABLE
2
APPID
5
9
100
AcDbSymbolTable
70
2
0
APPID
5
12
100
AcDbSymbolTableRecord
100
AcDbRegAppTableRecord
2
ACAD
70
0
0
ENDTAB
0
TABLE
2
DIMSTYLE
5
A
100
AcDbSymbolTable
70
1
0
ENDTAB
0
TABLE
2
BLOCK_RECORD
5
1
100
AcDbSymbolTable
70
1
0
BLOCK_RECORD
5
1F
100
AcDbSymbolTableRecord
100
AcDbBlockTableRecord
2
*MODEL_SPACE
0
BLOCK_RECORD
5
1B
100
AcDbSymbolTableRecord
100
AcDbBlockTableRecord
2
*PAPER_SPACE
0
ENDTAB
0
ENDSEC
0
SECTION
2
BLOCKS
0
BLOCK
5
20
100
AcDbEntity
100
AcDbBlockBegin
2
*MODEL_SPACE
0
ENDBLK
5
21
100
AcDbEntity
100
AcDbBlockEnd
0
BLOCK
5
1C
100
AcDbEntity
100
AcDbBlockBegin
2
*PAPER_SPACE
0
ENDBLK
5
1D
100
AcDbEntity
100
AcDbBlockEnd
0
ENDSEC
0
SECTION
2
ENTITIES
0
LWPOLYLINE
5
100
100
AcDbEntity
8
0
100
AcDbPolyline
90
19
70
1
43
0.0
10
73.609140224734162
20
27.149999999999981
42
0.24663358194300866
10
73.197481584302025
20
26.933790704142272
42
-0.23204399640806458
10
51.927583884773711
20
15.002380053741064
42
-0.027604904542236033
10
48.872416115226294
20
15.002380053741128
42
-0.3822380237156599
10
22.752380053741092
20
41.122416115226272
42
-0.027604904542236033
10
22.752380053741085
20
44.177583884773675
42
-0.38223802371566118
10
48.872416115226336
20
70.297619946258919
42
-0.027604904542235478
10
51.927583884773682
20
70.297619946258948
42
-0.23453593113762694
10
73.345029989472565
20
58.149999999999977
10
82.744894376789162
20
58.149999999999977
10
85.744894376789176
20
58.149999999999977
10
127.59134142991317
20
58.150000000000013
42
-0.41421356237310542
10
128.0913414299132
20
57.650000000000006
10
128.09134142991323
20
44.149999999999991
10
128.09134142991326
20
41.149999999999991
10
128.09134142991329
20
27.650000000000002
42
-0.41421356237313145
10
127.59134142991329
20
27.150000000000002
10
85.744894376789176
20
27.149999999999991
10
82.744894376789162
20
27.149999999999991
0
LWPOLYLINE
5
101
100
AcDbEntity
8
0
100
AcDbPolyline
90
6
70
1
43
0.0
10
127.59134142991317
20
59.65000000000002
10
74.128543307133924
20
59.649999999999977
42
3.1128430623948438
10
74.128543307133924
20
25.649999999999995
10
127.59134142991329
20
25.650000000000006
42
0.41421356237310542
10
129.59134142991329
20
27.650000000000009
10
129.5913414299132
20
57.650000000000006
42
0.41421356237309764
0
LWPOLYLINE
5
102
100
AcDbEntity
8
0
100
AcDbPolyline
90
6
70
1
43
0.0
10
127.59134142991329
20
26.400000000000006
42
0.41421356237310858
10
128.84134142991329
20
27.649999999999999
10
128.8413414299132
20
57.650000000000006
42
0.4142135623730992
10
127.59134142991317
20
58.900000000000013
10
73.740074643157456
20
58.899999999999991
42
3.1864531321068172
10
73.740074643157399
20
26.399999999999974
0
CIRCLE
5
103
100
AcDbEntity
8
0
100
AcDbCircle
10
84.244894376789162
20
42.649999999999991
30
0
40
1.6000000000000016
210
0
220
0
230
1
0
CIRCLE
5
104
100
AcDbEntity
8
0
100
AcDbCircle
10
84.244894376789162
20
42.649999999999991
30
0
40
3.3000000000000007
210
0
220
-0
230
1
0
CIRCLE
5
105
100
AcDbEntity
8
0
100
AcDbCircle
10
50.399999999999977
20
42.650000000000034
30
0
40
7.9999999999999973
210
0
220
0
230
1
0
LINE
5
106
100
AcDbEntity
8
0
100
AcDbLine
10
50.399999999999977
20
52.450000000000031
30
0
11
47.479999999999976
21
52.450000000000031
31
0
0
LWPOLYLINE
5
107
100
AcDbEntity
8
0
100
AcDbPolyline
90
4
70
1
43
0.0
10
47.479999999999976
20
52.450000000000031
10
53.319999999999972
20
52.450000000000031
10
53.319999999999972
20
59.450000000000031
10
47.479999999999976
20
59.450000000000031
0
LINE
5
108
100
AcDbEntity
8
0
100
AcDbLine
10
50.399999999999977
20
32.85000000000003
30
0
11
53.319999999999972
21
32.85000000000003
31
0
0
LWPOLYLINE
5
109
100
AcDbEntity
8
0
100
AcDbPolyline
90
4
70
1
43
0.0
10
53.319999999999972
20
32.85000000000003
10
47.479999999999976
20
32.85000000000003
10
47.479999999999976
20
25.85000000000003
10
53.319999999999972
20
25.85000000000003
0
LINE
5
110
100
AcDbEntity
8
0
100
AcDbLine
10
60.199999999999967
20
42.650000000000034
30
0
11
60.199999999999967
21
39.730000000000032
31
0
0
LWPOLYLINE
5
111
100
AcDbEntity
8
0
100
AcDbPolyline
90
4
70
1
43
0.0
10
60.199999999999967
20
39.730000000000032
10
67.199999999999974
20
39.730000000000032
10
67.199999999999974
20
45.570000000000029
10
60.199999999999967
20
45.570000000000029
0
LINE
5
112
100
AcDbEntity
8
0
100
AcDbLine
10
40.59999999999998
20
42.650000000000034
30
0
11
40.59999999999998
21
39.730000000000032
31
0
0
LWPOLYLINE
5
113
100
AcDbEntity
8
0
100
AcDbPolyline
90
4
70
1
43
0.0
10
40.59999999999998
20
39.730000000000032
10
33.59999999999998
20
39.730000000000032
10
33.59999999999998
20
45.570000000000029
10
40.59999999999998
20
45.570000000000029
0
LWPOLYLINE
5
114
100
AcDbEntity
8
0
100
AcDbPolyline
90
4
70
1
43
0.0
10
36.455854275001258
20
52.464642122869307
10
41.405601743307095
20
47.514894654563477
10
45.53510534543652
20
51.644398256692917
10
40.58535787713069
20
56.594145724998754
0
LWPOLYLINE
5
115
100
AcDbEntity
8
0
100
AcDbPolyline
90
4
70
1
43
0.0
10
55.26489465456342
20
51.644398256692917
10
60.21464212286925
20
56.594145724998754
10
64.344145724998697
20
52.464642122869307
10
59.39439825669286
20
47.514894654563477
0
LWPOLYLINE
5
116
100
AcDbEntity
8
0
100
AcDbPolyline
90
4
70
1
43
0.0
10
55.26489465456342
20
33.655601743307152
10
60.21464212286925
20
28.705854275001318
10
64.344145724998697
20
32.835357877130761
10
59.39439825669286
20
37.785105345436591
0
LWPOLYLINE
5
117
100
AcDbEntity
8
0
100
AcDbPolyline
90
4
70
1
43
0.0
10
41.405601743307088
20
37.785105345436591
10
36.455854275001258
20
32.835357877130754
10
40.585357877130697
20
28.705854275001315
10
45.535105345436534
20
33.655601743307145
0
ENDSEC
0
SECTION
2
OBJECTS
0
DICTIONARY
5
C
100
AcDbDictionary
3
ACAD_GROUP
350
D
3
ACAD_MLINESTYLE
350
17
0
DICTIONARY
5
D
100
AcDbDictionary
0
DICTIONARY
5
1A
330
C
100
AcDbDictionary
0
DICTIONARY
5
17
100
AcDbDictionary
0
ENDSEC
0
EOF
