<?xml version="1.0" standalone="no"?>
 <!DOCTYPE svg PUBLIC "-//W3C//DTD SVG 1.1//EN" 
 "http://www.w3.org/Graphics/SVG/1.1/DTD/svg11.dtd"> 
<svg
  xmlns:svg="http://www.w3.org/2000/svg"
  xmlns="http://www.w3.org/2000/svg"
  xmlns:xlink="http://www.w3.org/1999/xlink"
  version="1.1"
  width="297.002200mm" height="210.007200mm" viewBox="0.000000 0.000000 297.002200 210.007200">
<title>SVG Image created as K40-LED_PCB-F_Silkscreen.svg date 2024/05/18 14:00:57 </title>
  <desc>Image generated by PCBNEW </desc>
<g style="fill:#000000; fill-opacity:1.000000;stroke:#000000; stroke-opacity:1.000000;
stroke-linecap:round; stroke-linejoin:round;"
 transform="translate(0 0) scale(1 1)">
</g>
<g style="fill:#000000; fill-opacity:0.0; 
stroke:#000000; stroke-width:0.000000; stroke-opacity:1; 
stroke-linecap:round; stroke-linejoin:round;">
</g>
<g style="fill:#000000; fill-opacity:0.0; 
stroke:#000000; stroke-width:0.150000; stroke-opacity:1; 
stroke-linecap:round; stroke-linejoin:round;">
<text x="122.399200" y="109.944200"
textLength="2.202381" font-size="1.333333" lengthAdjust="spacingAndGlyphs"
text-anchor="middle" opacity="0">D5</text>
<g class="stroked-text"><desc>D5</desc>
<path d="M121.661105 109.899019
L121.661105 108.899019
" />
<path d="M121.661105 108.899019
L121.899200 108.899019
" />
<path d="M121.899200 108.899019
L122.042057 108.946638
" />
<path d="M122.042057 108.946638
L122.137295 109.041876
" />
<path d="M122.137295 109.041876
L122.184914 109.137114
" />
<path d="M122.184914 109.137114
L122.232533 109.327590
" />
<path d="M122.232533 109.327590
L122.232533 109.470447
" />
<path d="M122.232533 109.470447
L122.184914 109.660923
" />
<path d="M122.184914 109.660923
L122.137295 109.756161
" />
<path d="M122.137295 109.756161
L122.042057 109.851400
" />
<path d="M122.042057 109.851400
L121.899200 109.899019
" />
<path d="M121.899200 109.899019
L121.661105 109.899019
" />
<path d="M123.137295 108.899019
L122.661105 108.899019
" />
<path d="M122.661105 108.899019
L122.613486 109.375209
" />
<path d="M122.613486 109.375209
L122.661105 109.327590
" />
<path d="M122.661105 109.327590
L122.756343 109.279971
" />
<path d="M122.756343 109.279971
L122.994438 109.279971
" />
<path d="M122.994438 109.279971
L123.089676 109.327590
" />
<path d="M123.089676 109.327590
L123.137295 109.375209
" />
<path d="M123.137295 109.375209
L123.184914 109.470447
" />
<path d="M123.184914 109.470447
L123.184914 109.708542
" />
<path d="M123.184914 109.708542
L123.137295 109.803780
" />
<path d="M123.137295 109.803780
L123.089676 109.851400
" />
<path d="M123.089676 109.851400
L122.994438 109.899019
" />
<path d="M122.994438 109.899019
L122.756343 109.899019
" />
<path d="M122.756343 109.899019
L122.661105 109.851400
" />
<path d="M122.661105 109.851400
L122.613486 109.803780
" />
</g><g transform="rotate(-45.000000 109.932420 79.345105)">
<text x="109.932420" y="79.845105"
textLength="2.202381" font-size="1.333333" lengthAdjust="spacingAndGlyphs"
text-anchor="middle" opacity="0">D2</text>
</g>
<g class="stroked-text"><desc>D2</desc>
<path d="M109.732113 80.188622
L109.025007 79.481515
" />
<path d="M109.025007 79.481515
L109.193365 79.313156
" />
<path d="M109.193365 79.313156
L109.328052 79.245813
" />
<path d="M109.328052 79.245813
L109.462739 79.245813
" />
<path d="M109.462739 79.245813
L109.563755 79.279485
" />
<path d="M109.563755 79.279485
L109.732113 79.380500
" />
<path d="M109.732113 79.380500
L109.833129 79.481515
" />
<path d="M109.833129 79.481515
L109.934144 79.649874
" />
<path d="M109.934144 79.649874
L109.967816 79.750889
" />
<path d="M109.967816 79.750889
L109.967816 79.885576
" />
<path d="M109.967816 79.885576
L109.900472 80.020263
" />
<path d="M109.900472 80.020263
L109.732113 80.188622
" />
<path d="M109.765785 78.875424
L109.765785 78.808080
" />
<path d="M109.765785 78.808080
L109.799457 78.707065
" />
<path d="M109.799457 78.707065
L109.967816 78.538706
" />
<path d="M109.967816 78.538706
L110.068831 78.505034
" />
<path d="M110.068831 78.505034
L110.136174 78.505034
" />
<path d="M110.136174 78.505034
L110.237190 78.538706
" />
<path d="M110.237190 78.538706
L110.304533 78.606050
" />
<path d="M110.304533 78.606050
L110.371877 78.740737
" />
<path d="M110.371877 78.740737
L110.371877 79.548859
" />
<path d="M110.371877 79.548859
L110.809609 79.111126
" />
</g><text x="104.509300" y="92.318300"
textLength="2.202381" font-size="1.333333" lengthAdjust="spacingAndGlyphs"
text-anchor="middle" opacity="0">D3</text>
<g class="stroked-text"><desc>D3</desc>
<path d="M103.771205 92.273119
L103.771205 91.273119
" />
<path d="M103.771205 91.273119
L104.009300 91.273119
" />
<path d="M104.009300 91.273119
L104.152157 91.320738
" />
<path d="M104.152157 91.320738
L104.247395 91.415976
" />
<path d="M104.247395 91.415976
L104.295014 91.511214
" />
<path d="M104.295014 91.511214
L104.342633 91.701690
" />
<path d="M104.342633 91.701690
L104.342633 91.844547
" />
<path d="M104.342633 91.844547
L104.295014 92.035023
" />
<path d="M104.295014 92.035023
L104.247395 92.130261
" />
<path d="M104.247395 92.130261
L104.152157 92.225500
" />
<path d="M104.152157 92.225500
L104.009300 92.273119
" />
<path d="M104.009300 92.273119
L103.771205 92.273119
" />
<path d="M104.675967 91.273119
L105.295014 91.273119
" />
<path d="M105.295014 91.273119
L104.961681 91.654071
" />
<path d="M104.961681 91.654071
L105.104538 91.654071
" />
<path d="M105.104538 91.654071
L105.199776 91.701690
" />
<path d="M105.199776 91.701690
L105.247395 91.749309
" />
<path d="M105.247395 91.749309
L105.295014 91.844547
" />
<path d="M105.295014 91.844547
L105.295014 92.082642
" />
<path d="M105.295014 92.082642
L105.247395 92.177880
" />
<path d="M105.247395 92.177880
L105.199776 92.225500
" />
<path d="M105.199776 92.225500
L105.104538 92.273119
" />
<path d="M105.104538 92.273119
L104.818824 92.273119
" />
<path d="M104.818824 92.273119
L104.723586 92.225500
" />
<path d="M104.723586 92.225500
L104.675967 92.177880
" />
</g><text x="140.226400" y="92.297100"
textLength="2.202381" font-size="1.333333" lengthAdjust="spacingAndGlyphs"
text-anchor="middle" opacity="0">D7</text>
<g class="stroked-text"><desc>D7</desc>
<path d="M139.488305 92.251919
L139.488305 91.251919
" />
<path d="M139.488305 91.251919
L139.726400 91.251919
" />
<path d="M139.726400 91.251919
L139.869257 91.299538
" />
<path d="M139.869257 91.299538
L139.964495 91.394776
" />
<path d="M139.964495 91.394776
L140.012114 91.490014
" />
<path d="M140.012114 91.490014
L140.059733 91.680490
" />
<path d="M140.059733 91.680490
L140.059733 91.823347
" />
<path d="M140.059733 91.823347
L140.012114 92.013823
" />
<path d="M140.012114 92.013823
L139.964495 92.109061
" />
<path d="M139.964495 92.109061
L139.869257 92.204300
" />
<path d="M139.869257 92.204300
L139.726400 92.251919
" />
<path d="M139.726400 92.251919
L139.488305 92.251919
" />
<path d="M140.393067 91.251919
L141.059733 91.251919
" />
<path d="M141.059733 91.251919
L140.631162 92.251919
" />
</g><text x="167.005000" y="80.408400"
textLength="2.250000" font-size="1.333333" lengthAdjust="spacingAndGlyphs"
text-anchor="middle" opacity="0">U1</text>
<g class="stroked-text"><desc>U1</desc>
<path d="M166.243095 79.363219
L166.243095 80.172742
" />
<path d="M166.243095 80.172742
L166.290714 80.267980
" />
<path d="M166.290714 80.267980
L166.338333 80.315600
" />
<path d="M166.338333 80.315600
L166.433571 80.363219
" />
<path d="M166.433571 80.363219
L166.624047 80.363219
" />
<path d="M166.624047 80.363219
L166.719285 80.315600
" />
<path d="M166.719285 80.315600
L166.766904 80.267980
" />
<path d="M166.766904 80.267980
L166.814523 80.172742
" />
<path d="M166.814523 80.172742
L166.814523 79.363219
" />
<path d="M167.814523 80.363219
L167.243095 80.363219
" />
<path d="M167.528809 80.363219
L167.528809 79.363219
" />
<path d="M167.528809 79.363219
L167.433571 79.506076
" />
<path d="M167.433571 79.506076
L167.338333 79.601314
" />
<path d="M167.338333 79.601314
L167.243095 79.648933
" />
</g><g transform="rotate(45.000000 134.828479 79.326021)">
<text x="134.828479" y="79.826021"
textLength="2.202381" font-size="1.333333" lengthAdjust="spacingAndGlyphs"
text-anchor="middle" opacity="0">D8</text>
</g>
<g class="stroked-text"><desc>D8</desc>
<path d="M133.984961 79.125714
L134.692068 78.418608
" />
<path d="M134.692068 78.418608
L134.860427 78.586966
" />
<path d="M134.860427 78.586966
L134.927770 78.721653
" />
<path d="M134.927770 78.721653
L134.927770 78.856340
" />
<path d="M134.927770 78.856340
L134.894098 78.957356
" />
<path d="M134.894098 78.957356
L134.793083 79.125714
" />
<path d="M134.793083 79.125714
L134.692068 79.226730
" />
<path d="M134.692068 79.226730
L134.523709 79.327745
" />
<path d="M134.523709 79.327745
L134.422694 79.361417
" />
<path d="M134.422694 79.361417
L134.288007 79.361417
" />
<path d="M134.288007 79.361417
L134.153320 79.294073
" />
<path d="M134.153320 79.294073
L133.984961 79.125714
" />
<path d="M135.197144 79.529775
L135.163472 79.428760
" />
<path d="M135.163472 79.428760
L135.163472 79.361417
" />
<path d="M135.163472 79.361417
L135.197144 79.260401
" />
<path d="M135.197144 79.260401
L135.230816 79.226730
" />
<path d="M135.230816 79.226730
L135.331831 79.193058
" />
<path d="M135.331831 79.193058
L135.399175 79.193058
" />
<path d="M135.399175 79.193058
L135.500190 79.226730
" />
<path d="M135.500190 79.226730
L135.634877 79.361417
" />
<path d="M135.634877 79.361417
L135.668549 79.462432
" />
<path d="M135.668549 79.462432
L135.668549 79.529775
" />
<path d="M135.668549 79.529775
L135.634877 79.630791
" />
<path d="M135.634877 79.630791
L135.601205 79.664462
" />
<path d="M135.601205 79.664462
L135.500190 79.698134
" />
<path d="M135.500190 79.698134
L135.432846 79.698134
" />
<path d="M135.432846 79.698134
L135.331831 79.664462
" />
<path d="M135.331831 79.664462
L135.197144 79.529775
" />
<path d="M135.197144 79.529775
L135.096129 79.496104
" />
<path d="M135.096129 79.496104
L135.028785 79.496104
" />
<path d="M135.028785 79.496104
L134.927770 79.529775
" />
<path d="M134.927770 79.529775
L134.793083 79.664462
" />
<path d="M134.793083 79.664462
L134.759411 79.765478
" />
<path d="M134.759411 79.765478
L134.759411 79.832821
" />
<path d="M134.759411 79.832821
L134.793083 79.933836
" />
<path d="M134.793083 79.933836
L134.927770 80.068523
" />
<path d="M134.927770 80.068523
L135.028785 80.102195
" />
<path d="M135.028785 80.102195
L135.096129 80.102195
" />
<path d="M135.096129 80.102195
L135.197144 80.068523
" />
<path d="M135.197144 80.068523
L135.331831 79.933836
" />
<path d="M135.331831 79.933836
L135.365503 79.832821
" />
<path d="M135.365503 79.832821
L135.365503 79.765478
" />
<path d="M135.365503 79.765478
L135.331831 79.664462
" />
</g><g transform="rotate(45.000000 109.925721 104.286379)">
<text x="109.925721" y="104.786379"
textLength="2.202381" font-size="1.333333" lengthAdjust="spacingAndGlyphs"
text-anchor="middle" opacity="0">D4</text>
</g>
<g class="stroked-text"><desc>D4</desc>
<path d="M109.082203 104.086072
L109.789310 103.378966
" />
<path d="M109.789310 103.378966
L109.957669 103.547324
" />
<path d="M109.957669 103.547324
L110.025012 103.682011
" />
<path d="M110.025012 103.682011
L110.025012 103.816698
" />
<path d="M110.025012 103.816698
L109.991340 103.917714
" />
<path d="M109.991340 103.917714
L109.890325 104.086072
" />
<path d="M109.890325 104.086072
L109.789310 104.187088
" />
<path d="M109.789310 104.187088
L109.620951 104.288103
" />
<path d="M109.620951 104.288103
L109.519936 104.321775
" />
<path d="M109.519936 104.321775
L109.385249 104.321775
" />
<path d="M109.385249 104.321775
L109.250562 104.254431
" />
<path d="M109.250562 104.254431
L109.082203 104.086072
" />
<path d="M110.563760 104.624820
L110.092356 105.096225
" />
<path d="M110.664775 104.187088
L109.991340 104.523805
" />
<path d="M109.991340 104.523805
L110.429073 104.961538
" />
</g><g transform="rotate(-45.000000 134.904679 104.312179)">
<text x="134.904679" y="104.812179"
textLength="2.202381" font-size="1.333333" lengthAdjust="spacingAndGlyphs"
text-anchor="middle" opacity="0">D6</text>
</g>
<g class="stroked-text"><desc>D6</desc>
<path d="M134.704372 105.155696
L133.997266 104.448589
" />
<path d="M133.997266 104.448589
L134.165624 104.280230
" />
<path d="M134.165624 104.280230
L134.300311 104.212887
" />
<path d="M134.300311 104.212887
L134.434998 104.212887
" />
<path d="M134.434998 104.212887
L134.536014 104.246559
" />
<path d="M134.536014 104.246559
L134.704372 104.347574
" />
<path d="M134.704372 104.347574
L134.805388 104.448589
" />
<path d="M134.805388 104.448589
L134.906403 104.616948
" />
<path d="M134.906403 104.616948
L134.940075 104.717963
" />
<path d="M134.940075 104.717963
L134.940075 104.852650
" />
<path d="M134.940075 104.852650
L134.872731 104.987337
" />
<path d="M134.872731 104.987337
L134.704372 105.155696
" />
<path d="M135.007418 103.438437
L134.872731 103.573124
" />
<path d="M134.872731 103.573124
L134.839059 103.674139
" />
<path d="M134.839059 103.674139
L134.839059 103.741482
" />
<path d="M134.839059 103.741482
L134.872731 103.909841
" />
<path d="M134.872731 103.909841
L134.973746 104.078200
" />
<path d="M134.973746 104.078200
L135.243120 104.347574
" />
<path d="M135.243120 104.347574
L135.344136 104.381246
" />
<path d="M135.344136 104.381246
L135.411479 104.381246
" />
<path d="M135.411479 104.381246
L135.512494 104.347574
" />
<path d="M135.512494 104.347574
L135.647181 104.212887
" />
<path d="M135.647181 104.212887
L135.680853 104.111872
" />
<path d="M135.680853 104.111872
L135.680853 104.044528
" />
<path d="M135.680853 104.044528
L135.647181 103.943513
" />
<path d="M135.647181 103.943513
L135.478823 103.775154
" />
<path d="M135.478823 103.775154
L135.377807 103.741482
" />
<path d="M135.377807 103.741482
L135.310464 103.741482
" />
<path d="M135.310464 103.741482
L135.209449 103.775154
" />
<path d="M135.209449 103.775154
L135.074762 103.909841
" />
<path d="M135.074762 103.909841
L135.041090 104.010856
" />
<path d="M135.041090 104.010856
L135.041090 104.078200
" />
<path d="M135.041090 104.078200
L135.074762 104.179215
" />
</g><text x="122.389300" y="74.758200"
textLength="2.202381" font-size="1.333333" lengthAdjust="spacingAndGlyphs"
text-anchor="middle" opacity="0">D1</text>
<g class="stroked-text"><desc>D1</desc>
<path d="M121.651205 74.713019
L121.651205 73.713019
" />
<path d="M121.651205 73.713019
L121.889300 73.713019
" />
<path d="M121.889300 73.713019
L122.032157 73.760638
" />
<path d="M122.032157 73.760638
L122.127395 73.855876
" />
<path d="M122.127395 73.855876
L122.175014 73.951114
" />
<path d="M122.175014 73.951114
L122.222633 74.141590
" />
<path d="M122.222633 74.141590
L122.222633 74.284447
" />
<path d="M122.222633 74.284447
L122.175014 74.474923
" />
<path d="M122.175014 74.474923
L122.127395 74.570161
" />
<path d="M122.127395 74.570161
L122.032157 74.665400
" />
<path d="M122.032157 74.665400
L121.889300 74.713019
" />
<path d="M121.889300 74.713019
L121.651205 74.713019
" />
<path d="M123.175014 74.713019
L122.603586 74.713019
" />
<path d="M122.889300 74.713019
L122.889300 73.713019
" />
<path d="M122.889300 73.713019
L122.794062 73.855876
" />
<path d="M122.794062 73.855876
L122.698824 73.951114
" />
<path d="M122.698824 73.951114
L122.603586 73.998733
" />
</g><text x="195.910200" y="85.615400"
textLength="1.964286" font-size="1.333333" lengthAdjust="spacingAndGlyphs"
text-anchor="middle" opacity="0">J2</text>
<g class="stroked-text"><desc>J2</desc>
<path d="M195.576866 84.570219
L195.576866 85.284504
" />
<path d="M195.576866 85.284504
L195.529247 85.427361
" />
<path d="M195.529247 85.427361
L195.434009 85.522600
" />
<path d="M195.434009 85.522600
L195.291152 85.570219
" />
<path d="M195.291152 85.570219
L195.195914 85.570219
" />
<path d="M196.005438 84.665457
L196.053057 84.617838
" />
<path d="M196.053057 84.617838
L196.148295 84.570219
" />
<path d="M196.148295 84.570219
L196.386390 84.570219
" />
<path d="M196.386390 84.570219
L196.481628 84.617838
" />
<path d="M196.481628 84.617838
L196.529247 84.665457
" />
<path d="M196.529247 84.665457
L196.576866 84.760695
" />
<path d="M196.576866 84.760695
L196.576866 84.855933
" />
<path d="M196.576866 84.855933
L196.529247 84.998790
" />
<path d="M196.529247 84.998790
L195.957819 85.570219
" />
<path d="M195.957819 85.570219
L196.576866 85.570219
" />
</g><text x="148.463000" y="89.781000"
textLength="2.345238" font-size="1.333333" lengthAdjust="spacingAndGlyphs"
text-anchor="middle" opacity="0">M3</text>
<g class="stroked-text"><desc>M3</desc>
<path d="M147.653476 89.735819
L147.653476 88.735819
" />
<path d="M147.653476 88.735819
L147.986809 89.450104
" />
<path d="M147.986809 89.450104
L148.320142 88.735819
" />
<path d="M148.320142 88.735819
L148.320142 89.735819
" />
<path d="M148.701095 88.735819
L149.320142 88.735819
" />
<path d="M149.320142 88.735819
L148.986809 89.116771
" />
<path d="M148.986809 89.116771
L149.129666 89.116771
" />
<path d="M149.129666 89.116771
L149.224904 89.164390
" />
<path d="M149.224904 89.164390
L149.272523 89.212009
" />
<path d="M149.272523 89.212009
L149.320142 89.307247
" />
<path d="M149.320142 89.307247
L149.320142 89.545342
" />
<path d="M149.320142 89.545342
L149.272523 89.640580
" />
<path d="M149.272523 89.640580
L149.224904 89.688200
" />
<path d="M149.224904 89.688200
L149.129666 89.735819
" />
<path d="M149.129666 89.735819
L148.843952 89.735819
" />
<path d="M148.843952 89.735819
L148.748714 89.688200
" />
<path d="M148.748714 89.688200
L148.701095 89.640580
" />
</g></g>
<g style="fill:#000000; fill-opacity:0.0; 
stroke:#000000; stroke-width:0.600000; stroke-opacity:1; 
stroke-linecap:round; stroke-linejoin:round;">
<circle cx="122.399200" cy="100.488600" r="0.300000" /> 
<circle cx="116.253289" cy="85.665874" r="0.300000" /> 
<circle cx="113.711900" cy="91.806200" r="0.300000" /> 
<circle cx="131.074600" cy="91.809600" r="0.300000" /> 
</g>
<g style="fill:#000000; fill-opacity:0.0; 
stroke:#000000; stroke-width:0.120000; stroke-opacity:1; 
stroke-linecap:round; stroke-linejoin:round;">
<path d="M184.041800 81.678000
L152.101800 81.678000
" />
<path d="M184.041800 81.678000
L184.041800 101.978000
" />
<path d="M152.101800 81.678000
L152.101800 101.978000
" />
<path d="M184.041800 101.978000
L152.101800 101.978000
" />
</g>
<g style="fill:#000000; fill-opacity:0.0; 
stroke:#000000; stroke-width:0.500000; stroke-opacity:1; 
stroke-linecap:round; stroke-linejoin:round;">
<circle cx="181.969800" cy="76.595000" r="0.250000" /> 
</g>
<g style="fill:#000000; fill-opacity:0.0; 
stroke:#000000; stroke-width:0.600000; stroke-opacity:1; 
stroke-linecap:round; stroke-linejoin:round;">
<circle cx="128.533210" cy="85.678990" r="0.300000" /> 
<circle cx="116.271990" cy="97.940210" r="0.300000" /> 
<circle cx="128.533210" cy="97.940210" r="0.300000" /> 
<circle cx="122.402700" cy="83.130600" r="0.300000" /> 
</g>
<g style="fill:#000000; fill-opacity:0.0; 
stroke:#000000; stroke-width:0.127000; stroke-opacity:1; 
stroke-linecap:round; stroke-linejoin:round;">
<path d="M190.292300 96.327000
L190.292300 93.947000
" />
<path d="M204.592300 96.327000
L190.292300 96.327000
" />
<path d="M190.292300 89.707000
L190.292300 87.327000
" />
<path d="M190.292300 87.327000
L191.722300 87.327000
" />
<path d="M204.592300 87.327000
L204.592300 96.327000
" />
<path d="M204.592300 87.327000
L195.962300 87.327000
" />
</g>
<g style="fill:#000000; fill-opacity:0.0; 
stroke:#000000; stroke-width:0.200000; stroke-opacity:1; 
stroke-linecap:round; stroke-linejoin:round;">
<circle cx="189.642300" cy="91.827000" r="0.100000" /> 
<g >
</g>
<g >
</g>
<g >
</g>
<g >
</g>
<g >
</g>
<g >
</g>
<g >
</g>
<g >
</g>
<g >
</g>
<g >
</g>
<g >
</g>
<g >
</g>
<g >
</g>
<g >
</g>
</g> 
</svg>
