<?xml version="1.0" standalone="no"?>
 <!DOCTYPE svg PUBLIC "-//W3C//DTD SVG 1.1//EN" 
 "http://www.w3.org/Graphics/SVG/1.1/DTD/svg11.dtd"> 
<svg
  xmlns:svg="http://www.w3.org/2000/svg"
  xmlns="http://www.w3.org/2000/svg"
  xmlns:xlink="http://www.w3.org/1999/xlink"
  version="1.1"
  width="297.002200mm" height="210.007200mm" viewBox="0.000000 0.000000 297.002200 210.007200">
<title>SVG Image created as K40-LED_PCB-F_Silkscreen.svg date 2024/05/27 09:51:35 </title>
  <desc>Image generated by PCBNEW </desc>
<g style="fill:#000000; fill-opacity:1.000000;stroke:#000000; stroke-opacity:1.000000;
stroke-linecap:round; stroke-linejoin:round;"
 transform="translate(0 0) scale(1 1)">
</g>
<g style="fill:#000000; fill-opacity:0.0; 
stroke:#000000; stroke-width:0.000000; stroke-opacity:1; 
stroke-linecap:round; stroke-linejoin:round;">
</g>
<g style="fill:#000000; fill-opacity:0.0; 
stroke:#000000; stroke-width:0.150000; stroke-opacity:1; 
stroke-linecap:round; stroke-linejoin:round;">
<g transform="rotate(-90.000000 104.768100 91.806100)">
<text x="104.768100" y="92.306100"
textLength="2.202381" font-size="1.333333" lengthAdjust="spacingAndGlyphs"
text-anchor="middle" opacity="0">D5</text>
</g>
<g class="stroked-text"><desc>D5</desc>
<path d="M105.222919 92.544194
L104.222919 92.544194
" />
<path d="M104.222919 92.544194
L104.222919 92.306099
" />
<path d="M104.222919 92.306099
L104.270538 92.163242
" />
<path d="M104.270538 92.163242
L104.365776 92.068004
" />
<path d="M104.365776 92.068004
L104.461014 92.020385
" />
<path d="M104.461014 92.020385
L104.651490 91.972766
" />
<path d="M104.651490 91.972766
L104.794347 91.972766
" />
<path d="M104.794347 91.972766
L104.984823 92.020385
" />
<path d="M104.984823 92.020385
L105.080061 92.068004
" />
<path d="M105.080061 92.068004
L105.175300 92.163242
" />
<path d="M105.175300 92.163242
L105.222919 92.306099
" />
<path d="M105.222919 92.306099
L105.222919 92.544194
" />
<path d="M104.222919 91.068004
L104.222919 91.544194
" />
<path d="M104.222919 91.544194
L104.699109 91.591813
" />
<path d="M104.699109 91.591813
L104.651490 91.544194
" />
<path d="M104.651490 91.544194
L104.603871 91.448956
" />
<path d="M104.603871 91.448956
L104.603871 91.210861
" />
<path d="M104.603871 91.210861
L104.651490 91.115623
" />
<path d="M104.651490 91.115623
L104.699109 91.068004
" />
<path d="M104.699109 91.068004
L104.794347 91.020385
" />
<path d="M104.794347 91.020385
L105.032442 91.020385
" />
<path d="M105.032442 91.020385
L105.127680 91.068004
" />
<path d="M105.127680 91.068004
L105.175300 91.115623
" />
<path d="M105.175300 91.115623
L105.222919 91.210861
" />
<path d="M105.222919 91.210861
L105.222919 91.448956
" />
<path d="M105.222919 91.448956
L105.175300 91.544194
" />
<path d="M105.175300 91.544194
L105.127680 91.591813
" />
</g><g transform="rotate(45.000000 134.867195 79.339320)">
<text x="134.867195" y="79.839320"
textLength="2.202381" font-size="1.333333" lengthAdjust="spacingAndGlyphs"
text-anchor="middle" opacity="0">D2</text>
</g>
<g class="stroked-text"><desc>D2</desc>
<path d="M134.023677 79.139013
L134.730784 78.431907
" />
<path d="M134.730784 78.431907
L134.899143 78.600265
" />
<path d="M134.899143 78.600265
L134.966486 78.734952
" />
<path d="M134.966486 78.734952
L134.966486 78.869639
" />
<path d="M134.966486 78.869639
L134.932814 78.970655
" />
<path d="M134.932814 78.970655
L134.831799 79.139013
" />
<path d="M134.831799 79.139013
L134.730784 79.240029
" />
<path d="M134.730784 79.240029
L134.562425 79.341044
" />
<path d="M134.562425 79.341044
L134.461410 79.374716
" />
<path d="M134.461410 79.374716
L134.326723 79.374716
" />
<path d="M134.326723 79.374716
L134.192036 79.307372
" />
<path d="M134.192036 79.307372
L134.023677 79.139013
" />
<path d="M135.336875 79.172685
L135.404219 79.172685
" />
<path d="M135.404219 79.172685
L135.505234 79.206357
" />
<path d="M135.505234 79.206357
L135.673593 79.374716
" />
<path d="M135.673593 79.374716
L135.707265 79.475731
" />
<path d="M135.707265 79.475731
L135.707265 79.543074
" />
<path d="M135.707265 79.543074
L135.673593 79.644090
" />
<path d="M135.673593 79.644090
L135.606249 79.711433
" />
<path d="M135.606249 79.711433
L135.471562 79.778777
" />
<path d="M135.471562 79.778777
L134.663440 79.778777
" />
<path d="M134.663440 79.778777
L135.101173 80.216509
" />
</g><g transform="rotate(-90.000000 122.394000 73.916200)">
<text x="122.394000" y="74.416200"
textLength="2.202381" font-size="1.333333" lengthAdjust="spacingAndGlyphs"
text-anchor="middle" opacity="0">D3</text>
</g>
<g class="stroked-text"><desc>D3</desc>
<path d="M122.848819 74.654294
L121.848819 74.654294
" />
<path d="M121.848819 74.654294
L121.848819 74.416199
" />
<path d="M121.848819 74.416199
L121.896438 74.273342
" />
<path d="M121.896438 74.273342
L121.991676 74.178104
" />
<path d="M121.991676 74.178104
L122.086914 74.130485
" />
<path d="M122.086914 74.130485
L122.277390 74.082866
" />
<path d="M122.277390 74.082866
L122.420247 74.082866
" />
<path d="M122.420247 74.082866
L122.610723 74.130485
" />
<path d="M122.610723 74.130485
L122.705961 74.178104
" />
<path d="M122.705961 74.178104
L122.801200 74.273342
" />
<path d="M122.801200 74.273342
L122.848819 74.416199
" />
<path d="M122.848819 74.416199
L122.848819 74.654294
" />
<path d="M121.848819 73.749532
L121.848819 73.130485
" />
<path d="M121.848819 73.130485
L122.229771 73.463818
" />
<path d="M122.229771 73.463818
L122.229771 73.320961
" />
<path d="M122.229771 73.320961
L122.277390 73.225723
" />
<path d="M122.277390 73.225723
L122.325009 73.178104
" />
<path d="M122.325009 73.178104
L122.420247 73.130485
" />
<path d="M122.420247 73.130485
L122.658342 73.130485
" />
<path d="M122.658342 73.130485
L122.753580 73.178104
" />
<path d="M122.753580 73.178104
L122.801200 73.225723
" />
<path d="M122.801200 73.225723
L122.848819 73.320961
" />
<path d="M122.848819 73.320961
L122.848819 73.606675
" />
<path d="M122.848819 73.606675
L122.801200 73.701913
" />
<path d="M122.801200 73.701913
L122.753580 73.749532
" />
</g><g transform="rotate(-90.000000 122.415200 109.633300)">
<text x="122.415200" y="110.133300"
textLength="2.202381" font-size="1.333333" lengthAdjust="spacingAndGlyphs"
text-anchor="middle" opacity="0">D7</text>
</g>
<g class="stroked-text"><desc>D7</desc>
<path d="M122.870019 110.371394
L121.870019 110.371394
" />
<path d="M121.870019 110.371394
L121.870019 110.133299
" />
<path d="M121.870019 110.133299
L121.917638 109.990442
" />
<path d="M121.917638 109.990442
L122.012876 109.895204
" />
<path d="M122.012876 109.895204
L122.108114 109.847585
" />
<path d="M122.108114 109.847585
L122.298590 109.799966
" />
<path d="M122.298590 109.799966
L122.441447 109.799966
" />
<path d="M122.441447 109.799966
L122.631923 109.847585
" />
<path d="M122.631923 109.847585
L122.727161 109.895204
" />
<path d="M122.727161 109.895204
L122.822400 109.990442
" />
<path d="M122.822400 109.990442
L122.870019 110.133299
" />
<path d="M122.870019 110.133299
L122.870019 110.371394
" />
<path d="M121.870019 109.466632
L121.870019 108.799966
" />
<path d="M121.870019 108.799966
L122.870019 109.228537
" />
</g><text x="167.005000" y="80.408400"
textLength="2.250000" font-size="1.333333" lengthAdjust="spacingAndGlyphs"
text-anchor="middle" opacity="0">U1</text>
<g class="stroked-text"><desc>U1</desc>
<path d="M166.243095 79.363219
L166.243095 80.172742
" />
<path d="M166.243095 80.172742
L166.290714 80.267980
" />
<path d="M166.290714 80.267980
L166.338333 80.315600
" />
<path d="M166.338333 80.315600
L166.433571 80.363219
" />
<path d="M166.433571 80.363219
L166.624047 80.363219
" />
<path d="M166.624047 80.363219
L166.719285 80.315600
" />
<path d="M166.719285 80.315600
L166.766904 80.267980
" />
<path d="M166.766904 80.267980
L166.814523 80.172742
" />
<path d="M166.814523 80.172742
L166.814523 79.363219
" />
<path d="M167.814523 80.363219
L167.243095 80.363219
" />
<path d="M167.528809 80.363219
L167.528809 79.363219
" />
<path d="M167.528809 79.363219
L167.433571 79.506076
" />
<path d="M167.433571 79.506076
L167.338333 79.601314
" />
<path d="M167.338333 79.601314
L167.243095 79.648933
" />
</g><g transform="rotate(-45.000000 134.886279 104.235379)">
<text x="134.886279" y="104.735379"
textLength="2.202381" font-size="1.333333" lengthAdjust="spacingAndGlyphs"
text-anchor="middle" opacity="0">D8</text>
</g>
<g class="stroked-text"><desc>D8</desc>
<path d="M134.685972 105.078896
L133.978866 104.371789
" />
<path d="M133.978866 104.371789
L134.147224 104.203430
" />
<path d="M134.147224 104.203430
L134.281911 104.136087
" />
<path d="M134.281911 104.136087
L134.416598 104.136087
" />
<path d="M134.416598 104.136087
L134.517614 104.169759
" />
<path d="M134.517614 104.169759
L134.685972 104.270774
" />
<path d="M134.685972 104.270774
L134.786988 104.371789
" />
<path d="M134.786988 104.371789
L134.888003 104.540148
" />
<path d="M134.888003 104.540148
L134.921675 104.641163
" />
<path d="M134.921675 104.641163
L134.921675 104.775850
" />
<path d="M134.921675 104.775850
L134.854331 104.910537
" />
<path d="M134.854331 104.910537
L134.685972 105.078896
" />
<path d="M135.090033 103.866713
L134.989018 103.900385
" />
<path d="M134.989018 103.900385
L134.921675 103.900385
" />
<path d="M134.921675 103.900385
L134.820659 103.866713
" />
<path d="M134.820659 103.866713
L134.786988 103.833041
" />
<path d="M134.786988 103.833041
L134.753316 103.732026
" />
<path d="M134.753316 103.732026
L134.753316 103.664682
" />
<path d="M134.753316 103.664682
L134.786988 103.563667
" />
<path d="M134.786988 103.563667
L134.921675 103.428980
" />
<path d="M134.921675 103.428980
L135.022690 103.395308
" />
<path d="M135.022690 103.395308
L135.090033 103.395308
" />
<path d="M135.090033 103.395308
L135.191049 103.428980
" />
<path d="M135.191049 103.428980
L135.224720 103.462652
" />
<path d="M135.224720 103.462652
L135.258392 103.563667
" />
<path d="M135.258392 103.563667
L135.258392 103.631011
" />
<path d="M135.258392 103.631011
L135.224720 103.732026
" />
<path d="M135.224720 103.732026
L135.090033 103.866713
" />
<path d="M135.090033 103.866713
L135.056362 103.967728
" />
<path d="M135.056362 103.967728
L135.056362 104.035072
" />
<path d="M135.056362 104.035072
L135.090033 104.136087
" />
<path d="M135.090033 104.136087
L135.224720 104.270774
" />
<path d="M135.224720 104.270774
L135.325736 104.304446
" />
<path d="M135.325736 104.304446
L135.393079 104.304446
" />
<path d="M135.393079 104.304446
L135.494094 104.270774
" />
<path d="M135.494094 104.270774
L135.628781 104.136087
" />
<path d="M135.628781 104.136087
L135.662453 104.035072
" />
<path d="M135.662453 104.035072
L135.662453 103.967728
" />
<path d="M135.662453 103.967728
L135.628781 103.866713
" />
<path d="M135.628781 103.866713
L135.494094 103.732026
" />
<path d="M135.494094 103.732026
L135.393079 103.698354
" />
<path d="M135.393079 103.698354
L135.325736 103.698354
" />
<path d="M135.325736 103.698354
L135.224720 103.732026
" />
</g><g transform="rotate(-45.000000 109.925921 79.332621)">
<text x="109.925921" y="79.832621"
textLength="2.202381" font-size="1.333333" lengthAdjust="spacingAndGlyphs"
text-anchor="middle" opacity="0">D4</text>
</g>
<g class="stroked-text"><desc>D4</desc>
<path d="M109.725614 80.176138
L109.018508 79.469031
" />
<path d="M109.018508 79.469031
L109.186866 79.300672
" />
<path d="M109.186866 79.300672
L109.321553 79.233329
" />
<path d="M109.321553 79.233329
L109.456240 79.233329
" />
<path d="M109.456240 79.233329
L109.557256 79.267001
" />
<path d="M109.557256 79.267001
L109.725614 79.368016
" />
<path d="M109.725614 79.368016
L109.826630 79.469031
" />
<path d="M109.826630 79.469031
L109.927645 79.637390
" />
<path d="M109.927645 79.637390
L109.961317 79.738405
" />
<path d="M109.961317 79.738405
L109.961317 79.873092
" />
<path d="M109.961317 79.873092
L109.893973 80.007779
" />
<path d="M109.893973 80.007779
L109.725614 80.176138
" />
<path d="M110.264362 78.694581
L110.735767 79.165985
" />
<path d="M109.826630 78.593566
L110.163347 79.267001
" />
<path d="M110.163347 79.267001
L110.601080 78.829268
" />
</g><g transform="rotate(45.000000 109.900121 104.311579)">
<text x="109.900121" y="104.811579"
textLength="2.202381" font-size="1.333333" lengthAdjust="spacingAndGlyphs"
text-anchor="middle" opacity="0">D6</text>
</g>
<g class="stroked-text"><desc>D6</desc>
<path d="M109.056603 104.111272
L109.763710 103.404166
" />
<path d="M109.763710 103.404166
L109.932069 103.572524
" />
<path d="M109.932069 103.572524
L109.999412 103.707211
" />
<path d="M109.999412 103.707211
L109.999412 103.841898
" />
<path d="M109.999412 103.841898
L109.965740 103.942914
" />
<path d="M109.965740 103.942914
L109.864725 104.111272
" />
<path d="M109.864725 104.111272
L109.763710 104.212288
" />
<path d="M109.763710 104.212288
L109.595351 104.313303
" />
<path d="M109.595351 104.313303
L109.494336 104.346975
" />
<path d="M109.494336 104.346975
L109.359649 104.346975
" />
<path d="M109.359649 104.346975
L109.224962 104.279631
" />
<path d="M109.224962 104.279631
L109.056603 104.111272
" />
<path d="M110.773862 104.414318
L110.639175 104.279631
" />
<path d="M110.639175 104.279631
L110.538160 104.245959
" />
<path d="M110.538160 104.245959
L110.470817 104.245959
" />
<path d="M110.470817 104.245959
L110.302458 104.279631
" />
<path d="M110.302458 104.279631
L110.134099 104.380646
" />
<path d="M110.134099 104.380646
L109.864725 104.650020
" />
<path d="M109.864725 104.650020
L109.831053 104.751036
" />
<path d="M109.831053 104.751036
L109.831053 104.818379
" />
<path d="M109.831053 104.818379
L109.864725 104.919394
" />
<path d="M109.864725 104.919394
L109.999412 105.054081
" />
<path d="M109.999412 105.054081
L110.100427 105.087753
" />
<path d="M110.100427 105.087753
L110.167771 105.087753
" />
<path d="M110.167771 105.087753
L110.268786 105.054081
" />
<path d="M110.268786 105.054081
L110.437145 104.885723
" />
<path d="M110.437145 104.885723
L110.470817 104.784707
" />
<path d="M110.470817 104.784707
L110.470817 104.717364
" />
<path d="M110.470817 104.717364
L110.437145 104.616349
" />
<path d="M110.437145 104.616349
L110.302458 104.481662
" />
<path d="M110.302458 104.481662
L110.201443 104.447990
" />
<path d="M110.201443 104.447990
L110.134099 104.447990
" />
<path d="M110.134099 104.447990
L110.033084 104.481662
" />
</g><g transform="rotate(-90.000000 139.954100 91.796200)">
<text x="139.954100" y="92.296200"
textLength="2.202381" font-size="1.333333" lengthAdjust="spacingAndGlyphs"
text-anchor="middle" opacity="0">D1</text>
</g>
<g class="stroked-text"><desc>D1</desc>
<path d="M140.408919 92.534294
L139.408919 92.534294
" />
<path d="M139.408919 92.534294
L139.408919 92.296199
" />
<path d="M139.408919 92.296199
L139.456538 92.153342
" />
<path d="M139.456538 92.153342
L139.551776 92.058104
" />
<path d="M139.551776 92.058104
L139.647014 92.010485
" />
<path d="M139.647014 92.010485
L139.837490 91.962866
" />
<path d="M139.837490 91.962866
L139.980347 91.962866
" />
<path d="M139.980347 91.962866
L140.170823 92.010485
" />
<path d="M140.170823 92.010485
L140.266061 92.058104
" />
<path d="M140.266061 92.058104
L140.361300 92.153342
" />
<path d="M140.361300 92.153342
L140.408919 92.296199
" />
<path d="M140.408919 92.296199
L140.408919 92.534294
" />
<path d="M140.408919 91.010485
L140.408919 91.581913
" />
<path d="M140.408919 91.296199
L139.408919 91.296199
" />
<path d="M139.408919 91.296199
L139.551776 91.391437
" />
<path d="M139.551776 91.391437
L139.647014 91.486675
" />
<path d="M139.647014 91.486675
L139.694633 91.581913
" />
</g><text x="195.910200" y="85.615400"
textLength="1.964286" font-size="1.333333" lengthAdjust="spacingAndGlyphs"
text-anchor="middle" opacity="0">J2</text>
<g class="stroked-text"><desc>J2</desc>
<path d="M195.576866 84.570219
L195.576866 85.284504
" />
<path d="M195.576866 85.284504
L195.529247 85.427361
" />
<path d="M195.529247 85.427361
L195.434009 85.522600
" />
<path d="M195.434009 85.522600
L195.291152 85.570219
" />
<path d="M195.291152 85.570219
L195.195914 85.570219
" />
<path d="M196.005438 84.665457
L196.053057 84.617838
" />
<path d="M196.053057 84.617838
L196.148295 84.570219
" />
<path d="M196.148295 84.570219
L196.386390 84.570219
" />
<path d="M196.386390 84.570219
L196.481628 84.617838
" />
<path d="M196.481628 84.617838
L196.529247 84.665457
" />
<path d="M196.529247 84.665457
L196.576866 84.760695
" />
<path d="M196.576866 84.760695
L196.576866 84.855933
" />
<path d="M196.576866 84.855933
L196.529247 84.998790
" />
<path d="M196.529247 84.998790
L195.957819 85.570219
" />
<path d="M195.957819 85.570219
L196.576866 85.570219
" />
</g><text x="148.463000" y="89.781000"
textLength="2.345238" font-size="1.333333" lengthAdjust="spacingAndGlyphs"
text-anchor="middle" opacity="0">M3</text>
<g class="stroked-text"><desc>M3</desc>
<path d="M147.653476 89.735819
L147.653476 88.735819
" />
<path d="M147.653476 88.735819
L147.986809 89.450104
" />
<path d="M147.986809 89.450104
L148.320142 88.735819
" />
<path d="M148.320142 88.735819
L148.320142 89.735819
" />
<path d="M148.701095 88.735819
L149.320142 88.735819
" />
<path d="M149.320142 88.735819
L148.986809 89.116771
" />
<path d="M148.986809 89.116771
L149.129666 89.116771
" />
<path d="M149.129666 89.116771
L149.224904 89.164390
" />
<path d="M149.224904 89.164390
L149.272523 89.212009
" />
<path d="M149.272523 89.212009
L149.320142 89.307247
" />
<path d="M149.320142 89.307247
L149.320142 89.545342
" />
<path d="M149.320142 89.545342
L149.272523 89.640580
" />
<path d="M149.272523 89.640580
L149.224904 89.688200
" />
<path d="M149.224904 89.688200
L149.129666 89.735819
" />
<path d="M149.129666 89.735819
L148.843952 89.735819
" />
<path d="M148.843952 89.735819
L148.748714 89.688200
" />
<path d="M148.748714 89.688200
L148.701095 89.640580
" />
</g></g>
<g style="fill:#000000; fill-opacity:0.0; 
stroke:#000000; stroke-width:0.600000; stroke-opacity:1; 
stroke-linecap:round; stroke-linejoin:round;">
<circle cx="113.723700" cy="91.806100" r="0.300000" /> 
<circle cx="128.546426" cy="85.660189" r="0.300000" /> 
<circle cx="122.406100" cy="83.118800" r="0.300000" /> 
<circle cx="122.402700" cy="100.481500" r="0.300000" /> 
</g>
<g style="fill:#000000; fill-opacity:0.0; 
stroke:#000000; stroke-width:0.120000; stroke-opacity:1; 
stroke-linecap:round; stroke-linejoin:round;">
<path d="M184.041800 81.678000
L152.101800 81.678000
" />
<path d="M184.041800 81.678000
L184.041800 101.978000
" />
<path d="M152.101800 81.678000
L152.101800 101.978000
" />
<path d="M184.041800 101.978000
L152.101800 101.978000
" />
</g>
<g style="fill:#000000; fill-opacity:0.0; 
stroke:#000000; stroke-width:0.500000; stroke-opacity:1; 
stroke-linecap:round; stroke-linejoin:round;">
<circle cx="181.969800" cy="76.595000" r="0.250000" /> 
</g>
<g style="fill:#000000; fill-opacity:0.0; 
stroke:#000000; stroke-width:0.600000; stroke-opacity:1; 
stroke-linecap:round; stroke-linejoin:round;">
<circle cx="128.533310" cy="97.940110" r="0.300000" /> 
<circle cx="116.272090" cy="85.678890" r="0.300000" /> 
<circle cx="116.272090" cy="97.940110" r="0.300000" /> 
<circle cx="131.081700" cy="91.809600" r="0.300000" /> 
</g>
<g style="fill:#000000; fill-opacity:0.0; 
stroke:#000000; stroke-width:0.127000; stroke-opacity:1; 
stroke-linecap:round; stroke-linejoin:round;">
<path d="M190.292300 96.327000
L190.292300 93.947000
" />
<path d="M204.592300 96.327000
L190.292300 96.327000
" />
<path d="M190.292300 89.707000
L190.292300 87.327000
" />
<path d="M190.292300 87.327000
L191.722300 87.327000
" />
<path d="M204.592300 87.327000
L204.592300 96.327000
" />
<path d="M204.592300 87.327000
L195.962300 87.327000
" />
</g>
<g style="fill:#000000; fill-opacity:0.0; 
stroke:#000000; stroke-width:0.200000; stroke-opacity:1; 
stroke-linecap:round; stroke-linejoin:round;">
<circle cx="189.642300" cy="91.827000" r="0.100000" /> 
<g >
</g>
<g >
</g>
<g >
</g>
<g >
</g>
<g >
</g>
<g >
</g>
<g >
</g>
<g >
</g>
<g >
</g>
<g >
</g>
<g >
</g>
<g >
</g>
<g >
</g>
<g >
</g>
</g> 
</svg>
