G04 #@! TF.GenerationSoftware,KiCad,Pcbnew,7.0.10*
G04 #@! TF.CreationDate,2024-05-27T20:12:39-07:00*
G04 #@! TF.ProjectId,K40-LED_PCB,4b34302d-4c45-4445-9f50-43422e6b6963,rev?*
G04 #@! TF.SameCoordinates,Original*
G04 #@! TF.FileFunction,Soldermask,Bot*
G04 #@! TF.FilePolarity,Negative*
%FSLAX46Y46*%
G04 Gerber Fmt 4.6, Leading zero omitted, Abs format (unit mm)*
G04 Created by KiCad (PCBNEW 7.0.10) date 2024-05-27 20:12:39*
%MOMM*%
%LPD*%
G01*
G04 APERTURE LIST*
%ADD10C,0.100000*%
%ADD11C,0.400000*%
%ADD12O,1.604000X3.804000*%
%ADD13O,3.804000X1.604000*%
%ADD14C,3.200000*%
G04 APERTURE END LIST*
D10*
G36*
X197396552Y-104315788D02*
G01*
X197396552Y-105163800D01*
X197551891Y-105163800D01*
X197862323Y-104460380D01*
X197862323Y-105106647D01*
X197863130Y-105116684D01*
X197866026Y-105127355D01*
X197871029Y-105137170D01*
X197877135Y-105145058D01*
X197879176Y-105147191D01*
X197886900Y-105153662D01*
X197896586Y-105159112D01*
X197907187Y-105162486D01*
X197917215Y-105163735D01*
X197920209Y-105163800D01*
X197930342Y-105163005D01*
X197941092Y-105160150D01*
X197950957Y-105155220D01*
X197958863Y-105149202D01*
X197960997Y-105147191D01*
X197967564Y-105139479D01*
X197973094Y-105129835D01*
X197976517Y-105119306D01*
X197977784Y-105109367D01*
X197977850Y-105106402D01*
X197977850Y-104257170D01*
X197824710Y-104257170D01*
X197513545Y-104960589D01*
X197513545Y-104315788D01*
X197512703Y-104305727D01*
X197510179Y-104296274D01*
X197505971Y-104287428D01*
X197500081Y-104279190D01*
X197495959Y-104274756D01*
X197487962Y-104267903D01*
X197479356Y-104262734D01*
X197470143Y-104259248D01*
X197460322Y-104257445D01*
X197454438Y-104257170D01*
X197444210Y-104257988D01*
X197434683Y-104260443D01*
X197424653Y-104265251D01*
X197416629Y-104271212D01*
X197413405Y-104274267D01*
X197406838Y-104282098D01*
X197401885Y-104290629D01*
X197398544Y-104299862D01*
X197396816Y-104309797D01*
X197396552Y-104315788D01*
G37*
G36*
X197135457Y-105106402D02*
G01*
X197135457Y-104314567D01*
X197134650Y-104304708D01*
X197131754Y-104294156D01*
X197126750Y-104284367D01*
X197120645Y-104276428D01*
X197118604Y-104274267D01*
X197110892Y-104267605D01*
X197102502Y-104262580D01*
X197092083Y-104258840D01*
X197082241Y-104257320D01*
X197077815Y-104257170D01*
X197067861Y-104257976D01*
X197057229Y-104260873D01*
X197047390Y-104265876D01*
X197039433Y-104271982D01*
X197037271Y-104274023D01*
X197030609Y-104281688D01*
X197024999Y-104291164D01*
X197021526Y-104301403D01*
X197020191Y-104312405D01*
X197020174Y-104313834D01*
X197020174Y-104647959D01*
X196668464Y-104647959D01*
X196668464Y-104313834D01*
X196667658Y-104304082D01*
X196664761Y-104293652D01*
X196659758Y-104283985D01*
X196653652Y-104276153D01*
X196651612Y-104274023D01*
X196643899Y-104267456D01*
X196634256Y-104261926D01*
X196623727Y-104258503D01*
X196613787Y-104257236D01*
X196610823Y-104257170D01*
X196600595Y-104257988D01*
X196591068Y-104260443D01*
X196581039Y-104265251D01*
X196573014Y-104271212D01*
X196569790Y-104274267D01*
X196563223Y-104282098D01*
X196558270Y-104290629D01*
X196554929Y-104299862D01*
X196553201Y-104309797D01*
X196552937Y-104315788D01*
X196552937Y-105106402D01*
X196553779Y-105116262D01*
X196556801Y-105126814D01*
X196562022Y-105136602D01*
X196568393Y-105144542D01*
X196570523Y-105146703D01*
X196578462Y-105153364D01*
X196586892Y-105158390D01*
X196597127Y-105162130D01*
X196608004Y-105163733D01*
X196610823Y-105163800D01*
X196621230Y-105162981D01*
X196630865Y-105160527D01*
X196640933Y-105155718D01*
X196648915Y-105149758D01*
X196652100Y-105146703D01*
X196658476Y-105138872D01*
X196663287Y-105130340D01*
X196666531Y-105121107D01*
X196668209Y-105111173D01*
X196668464Y-105105181D01*
X196668464Y-104757379D01*
X197018709Y-104757379D01*
X197018709Y-105105181D01*
X197019550Y-105115254D01*
X197022074Y-105124743D01*
X197026282Y-105133647D01*
X197032172Y-105141966D01*
X197036294Y-105146458D01*
X197044208Y-105153215D01*
X197052777Y-105158313D01*
X197062000Y-105161750D01*
X197071877Y-105163529D01*
X197077815Y-105163800D01*
X197087686Y-105163005D01*
X197098280Y-105160150D01*
X197108141Y-105155220D01*
X197116169Y-105149202D01*
X197118360Y-105147191D01*
X197125021Y-105139479D01*
X197130047Y-105131089D01*
X197133787Y-105120671D01*
X197135306Y-105110828D01*
X197135457Y-105106402D01*
G37*
G36*
X196290376Y-105163800D02*
G01*
X195937201Y-105163800D01*
X195925373Y-105163530D01*
X195913761Y-105162723D01*
X195902368Y-105161378D01*
X195891192Y-105159495D01*
X195880233Y-105157073D01*
X195869492Y-105154114D01*
X195858969Y-105150616D01*
X195848663Y-105146580D01*
X195838575Y-105142007D01*
X195828704Y-105136895D01*
X195819051Y-105131245D01*
X195809615Y-105125056D01*
X195800397Y-105118330D01*
X195791396Y-105111066D01*
X195782613Y-105103264D01*
X195774047Y-105094923D01*
X195765854Y-105086207D01*
X195758190Y-105077276D01*
X195751055Y-105068133D01*
X195744448Y-105058775D01*
X195738369Y-105049204D01*
X195732820Y-105039419D01*
X195727798Y-105029420D01*
X195723306Y-105019208D01*
X195719341Y-105008782D01*
X195715906Y-104998142D01*
X195712999Y-104987288D01*
X195710620Y-104976221D01*
X195708770Y-104964940D01*
X195707449Y-104953445D01*
X195706656Y-104941737D01*
X195706441Y-104932013D01*
X195824605Y-104932013D01*
X195825143Y-104944370D01*
X195826758Y-104956285D01*
X195829448Y-104967756D01*
X195833215Y-104978786D01*
X195838058Y-104989372D01*
X195843977Y-104999516D01*
X195850972Y-105009217D01*
X195859043Y-105018475D01*
X195867790Y-105026890D01*
X195876934Y-105034183D01*
X195886475Y-105040354D01*
X195896413Y-105045403D01*
X195906747Y-105049330D01*
X195917479Y-105052135D01*
X195928607Y-105053818D01*
X195940132Y-105054379D01*
X196173628Y-105054379D01*
X196173628Y-104757379D01*
X195940132Y-104757379D01*
X195928439Y-104757948D01*
X195917173Y-104759654D01*
X195906335Y-104762497D01*
X195895924Y-104766477D01*
X195885941Y-104771595D01*
X195876385Y-104777850D01*
X195867256Y-104785242D01*
X195858555Y-104793772D01*
X195850598Y-104803099D01*
X195843702Y-104812884D01*
X195837867Y-104823127D01*
X195833093Y-104833827D01*
X195829379Y-104844986D01*
X195826727Y-104856603D01*
X195825136Y-104868678D01*
X195824605Y-104881211D01*
X195824605Y-104932013D01*
X195706441Y-104932013D01*
X195706392Y-104929815D01*
X195706392Y-104878524D01*
X195706701Y-104865901D01*
X195707628Y-104853497D01*
X195709174Y-104841309D01*
X195711338Y-104829339D01*
X195714120Y-104817587D01*
X195717520Y-104806052D01*
X195721539Y-104794735D01*
X195726175Y-104783636D01*
X195731430Y-104772753D01*
X195737304Y-104762089D01*
X195743795Y-104751642D01*
X195750905Y-104741412D01*
X195758633Y-104731400D01*
X195766979Y-104721605D01*
X195775944Y-104712028D01*
X195785526Y-104702669D01*
X195775944Y-104693730D01*
X195766979Y-104684561D01*
X195758633Y-104675160D01*
X195750905Y-104665529D01*
X195743795Y-104655667D01*
X195737304Y-104645573D01*
X195731430Y-104635249D01*
X195726175Y-104624694D01*
X195721539Y-104613909D01*
X195717520Y-104602892D01*
X195714120Y-104591644D01*
X195711338Y-104580166D01*
X195709174Y-104568457D01*
X195707628Y-104556516D01*
X195706701Y-104544345D01*
X195706392Y-104531943D01*
X195706392Y-104531699D01*
X195824605Y-104531699D01*
X195825143Y-104543453D01*
X195826758Y-104554780D01*
X195829448Y-104565679D01*
X195833215Y-104576151D01*
X195838058Y-104586196D01*
X195843977Y-104595813D01*
X195850972Y-104605002D01*
X195859043Y-104613765D01*
X195867790Y-104621779D01*
X195876934Y-104628724D01*
X195886475Y-104634602D01*
X195896413Y-104639410D01*
X195906747Y-104643150D01*
X195917479Y-104645821D01*
X195928607Y-104647424D01*
X195940132Y-104647959D01*
X196175094Y-104647959D01*
X196175094Y-104366591D01*
X195940132Y-104366591D01*
X195928496Y-104367133D01*
X195917280Y-104368759D01*
X195906484Y-104371468D01*
X195896107Y-104375261D01*
X195886151Y-104380139D01*
X195876614Y-104386100D01*
X195867497Y-104393145D01*
X195858799Y-104401273D01*
X195850785Y-104410100D01*
X195843839Y-104419363D01*
X195837962Y-104429060D01*
X195833154Y-104439192D01*
X195829414Y-104449759D01*
X195826742Y-104460762D01*
X195825140Y-104472199D01*
X195824605Y-104484072D01*
X195824605Y-104531699D01*
X195706392Y-104531699D01*
X195706392Y-104484316D01*
X195706656Y-104472670D01*
X195707449Y-104461239D01*
X195708770Y-104450024D01*
X195710620Y-104439024D01*
X195712999Y-104428240D01*
X195715906Y-104417672D01*
X195719341Y-104407319D01*
X195723306Y-104397182D01*
X195727798Y-104387261D01*
X195732820Y-104377555D01*
X195738369Y-104368065D01*
X195744448Y-104358790D01*
X195751055Y-104349731D01*
X195758190Y-104340888D01*
X195765854Y-104332260D01*
X195774047Y-104323848D01*
X195782613Y-104315774D01*
X195791396Y-104308221D01*
X195800397Y-104301188D01*
X195809615Y-104294677D01*
X195819051Y-104288686D01*
X195828704Y-104283216D01*
X195838575Y-104278267D01*
X195848663Y-104273840D01*
X195858969Y-104269933D01*
X195869492Y-104266547D01*
X195880233Y-104263682D01*
X195891192Y-104261337D01*
X195902368Y-104259514D01*
X195913761Y-104258212D01*
X195925373Y-104257431D01*
X195937201Y-104257170D01*
X196290376Y-104257170D01*
X196290376Y-105163800D01*
G37*
G36*
X194544314Y-104257320D02*
G01*
X194554156Y-104258840D01*
X194564575Y-104262580D01*
X194572964Y-104267605D01*
X194580676Y-104274267D01*
X194584626Y-104278656D01*
X194590271Y-104286887D01*
X194594303Y-104295820D01*
X194596723Y-104305453D01*
X194597529Y-104315788D01*
X194597529Y-105106402D01*
X194597462Y-105109279D01*
X194596177Y-105118971D01*
X194592704Y-105129332D01*
X194587094Y-105138930D01*
X194580432Y-105146703D01*
X194578242Y-105148773D01*
X194570214Y-105154967D01*
X194560353Y-105160043D01*
X194549759Y-105162981D01*
X194539888Y-105163800D01*
X194073872Y-105163800D01*
X194070908Y-105163737D01*
X194060969Y-105162544D01*
X194050440Y-105159319D01*
X194040796Y-105154110D01*
X194033084Y-105147924D01*
X194032047Y-105146910D01*
X194025711Y-105139452D01*
X194020444Y-105130155D01*
X194017284Y-105120034D01*
X194016231Y-105109089D01*
X194016248Y-105107676D01*
X194017564Y-105096853D01*
X194020987Y-105086885D01*
X194026517Y-105077772D01*
X194033084Y-105070499D01*
X194035218Y-105068547D01*
X194043124Y-105062706D01*
X194052989Y-105057921D01*
X194063740Y-105055150D01*
X194073872Y-105054379D01*
X194306147Y-105054379D01*
X194306147Y-104366591D01*
X194421674Y-104366591D01*
X194421674Y-105054379D01*
X194482002Y-105054379D01*
X194482002Y-104366591D01*
X194421674Y-104366591D01*
X194306147Y-104366591D01*
X194073872Y-104366591D01*
X194070908Y-104366527D01*
X194060969Y-104365296D01*
X194050440Y-104361972D01*
X194040796Y-104356603D01*
X194033084Y-104350227D01*
X194032047Y-104349198D01*
X194025711Y-104341648D01*
X194020444Y-104332275D01*
X194017284Y-104322108D01*
X194016231Y-104311148D01*
X194016248Y-104309795D01*
X194017603Y-104299365D01*
X194021125Y-104289637D01*
X194026815Y-104280611D01*
X194033572Y-104273290D01*
X194035733Y-104271338D01*
X194043672Y-104265498D01*
X194053461Y-104260712D01*
X194064013Y-104257941D01*
X194073872Y-104257170D01*
X194539888Y-104257170D01*
X194544314Y-104257320D01*
G37*
G36*
X193228792Y-105163800D02*
G01*
X193753670Y-105163800D01*
X193753670Y-104764951D01*
X193753140Y-104753136D01*
X193751548Y-104741748D01*
X193748896Y-104730787D01*
X193745183Y-104720254D01*
X193740408Y-104710149D01*
X193734573Y-104700471D01*
X193727677Y-104691220D01*
X193719720Y-104682397D01*
X193711023Y-104674325D01*
X193701906Y-104667330D01*
X193692369Y-104661411D01*
X193682412Y-104656568D01*
X193672036Y-104652801D01*
X193661239Y-104650111D01*
X193650023Y-104648497D01*
X193638387Y-104647959D01*
X193288143Y-104647959D01*
X193288143Y-104366591D01*
X193700181Y-104366591D01*
X193710588Y-104365831D01*
X193720223Y-104363552D01*
X193730291Y-104359087D01*
X193739350Y-104352638D01*
X193741458Y-104350715D01*
X193748617Y-104342243D01*
X193753731Y-104332946D01*
X193756799Y-104322826D01*
X193757822Y-104311880D01*
X193756799Y-104300951D01*
X193753731Y-104290876D01*
X193748617Y-104281655D01*
X193741458Y-104273290D01*
X193733806Y-104267009D01*
X193724116Y-104261720D01*
X193713419Y-104258445D01*
X193703233Y-104257233D01*
X193700181Y-104257170D01*
X193287899Y-104257170D01*
X193276088Y-104257689D01*
X193264711Y-104259246D01*
X193253770Y-104261841D01*
X193243264Y-104265474D01*
X193233192Y-104270145D01*
X193223556Y-104275855D01*
X193214355Y-104282602D01*
X193205589Y-104290387D01*
X193197518Y-104298840D01*
X193190522Y-104307713D01*
X193184603Y-104317006D01*
X193179760Y-104326718D01*
X193175994Y-104336850D01*
X193173303Y-104347403D01*
X193171689Y-104358374D01*
X193171151Y-104369766D01*
X193171151Y-104643562D01*
X193171689Y-104655244D01*
X193173303Y-104666475D01*
X193175994Y-104677256D01*
X193179760Y-104687587D01*
X193184603Y-104697467D01*
X193190522Y-104706897D01*
X193197518Y-104715877D01*
X193205589Y-104724407D01*
X193214355Y-104732135D01*
X193223556Y-104738832D01*
X193233192Y-104744499D01*
X193243264Y-104749136D01*
X193253770Y-104752743D01*
X193264711Y-104755319D01*
X193276088Y-104756864D01*
X193287899Y-104757379D01*
X193638387Y-104757379D01*
X193638387Y-105054379D01*
X193228792Y-105054379D01*
X193218933Y-105055150D01*
X193208381Y-105057921D01*
X193198592Y-105062706D01*
X193190653Y-105068547D01*
X193188492Y-105070499D01*
X193181735Y-105077772D01*
X193176045Y-105086885D01*
X193172523Y-105096853D01*
X193171168Y-105107676D01*
X193171151Y-105109089D01*
X193172235Y-105120034D01*
X193175486Y-105130155D01*
X193180905Y-105139452D01*
X193187425Y-105146910D01*
X193188492Y-105147924D01*
X193196264Y-105154110D01*
X193205862Y-105159319D01*
X193216224Y-105162544D01*
X193227348Y-105163784D01*
X193228792Y-105163800D01*
G37*
G36*
X192809843Y-104257681D02*
G01*
X192820617Y-104259216D01*
X192831001Y-104261773D01*
X192840996Y-104265352D01*
X192850601Y-104269955D01*
X192859818Y-104275580D01*
X192868645Y-104282228D01*
X192877083Y-104289899D01*
X192884811Y-104298272D01*
X192891508Y-104307026D01*
X192897175Y-104316162D01*
X192901812Y-104325680D01*
X192905419Y-104335580D01*
X192907995Y-104345861D01*
X192909540Y-104356523D01*
X192910055Y-104367568D01*
X192910055Y-105053402D01*
X192909552Y-105064614D01*
X192908040Y-105075414D01*
X192905522Y-105085802D01*
X192901995Y-105095778D01*
X192897462Y-105105342D01*
X192891920Y-105114493D01*
X192885372Y-105123232D01*
X192877815Y-105131559D01*
X192869526Y-105139116D01*
X192860779Y-105145664D01*
X192851574Y-105151206D01*
X192841912Y-105155739D01*
X192831791Y-105159266D01*
X192821212Y-105161784D01*
X192810175Y-105163296D01*
X192798681Y-105163800D01*
X192440376Y-105163800D01*
X192429050Y-105163296D01*
X192418150Y-105161784D01*
X192407678Y-105159266D01*
X192397634Y-105155739D01*
X192388017Y-105151206D01*
X192378827Y-105145664D01*
X192370065Y-105139116D01*
X192361730Y-105131559D01*
X192354059Y-105123232D01*
X192347411Y-105114493D01*
X192341786Y-105105342D01*
X192337184Y-105095778D01*
X192333604Y-105085802D01*
X192331047Y-105075414D01*
X192329513Y-105064614D01*
X192329002Y-105053402D01*
X192329002Y-104367568D01*
X192329047Y-104366591D01*
X192443063Y-104366591D01*
X192443063Y-105054379D01*
X192794773Y-105054379D01*
X192794773Y-104366591D01*
X192443063Y-104366591D01*
X192329047Y-104366591D01*
X192329513Y-104356523D01*
X192331047Y-104345861D01*
X192333604Y-104335580D01*
X192337184Y-104325680D01*
X192341786Y-104316162D01*
X192347411Y-104307026D01*
X192354059Y-104298272D01*
X192361730Y-104289899D01*
X192370042Y-104282228D01*
X192378736Y-104275580D01*
X192387811Y-104269955D01*
X192397267Y-104265352D01*
X192407106Y-104261773D01*
X192417326Y-104259216D01*
X192427928Y-104257681D01*
X192438911Y-104257170D01*
X192798681Y-104257170D01*
X192809843Y-104257681D01*
G37*
G36*
X191538632Y-105163800D02*
G01*
X192063510Y-105163800D01*
X192063510Y-104764951D01*
X192062979Y-104753136D01*
X192061388Y-104741748D01*
X192058735Y-104730787D01*
X192055022Y-104720254D01*
X192050248Y-104710149D01*
X192044413Y-104700471D01*
X192037517Y-104691220D01*
X192029560Y-104682397D01*
X192020863Y-104674325D01*
X192011745Y-104667330D01*
X192002208Y-104661411D01*
X191992252Y-104656568D01*
X191981875Y-104652801D01*
X191971079Y-104650111D01*
X191959863Y-104648497D01*
X191948227Y-104647959D01*
X191597983Y-104647959D01*
X191597983Y-104366591D01*
X192010020Y-104366591D01*
X192020427Y-104365831D01*
X192030063Y-104363552D01*
X192040130Y-104359087D01*
X192049190Y-104352638D01*
X192051297Y-104350715D01*
X192058457Y-104342243D01*
X192063571Y-104332946D01*
X192066639Y-104322826D01*
X192067662Y-104311880D01*
X192066639Y-104300951D01*
X192063571Y-104290876D01*
X192058457Y-104281655D01*
X192051297Y-104273290D01*
X192043646Y-104267009D01*
X192033956Y-104261720D01*
X192023259Y-104258445D01*
X192013073Y-104257233D01*
X192010020Y-104257170D01*
X191597739Y-104257170D01*
X191585927Y-104257689D01*
X191574551Y-104259246D01*
X191563609Y-104261841D01*
X191553103Y-104265474D01*
X191543032Y-104270145D01*
X191533396Y-104275855D01*
X191524195Y-104282602D01*
X191515429Y-104290387D01*
X191507357Y-104298840D01*
X191500362Y-104307713D01*
X191494443Y-104317006D01*
X191489600Y-104326718D01*
X191485833Y-104336850D01*
X191483143Y-104347403D01*
X191481529Y-104358374D01*
X191480990Y-104369766D01*
X191480990Y-104643562D01*
X191481529Y-104655244D01*
X191483143Y-104666475D01*
X191485833Y-104677256D01*
X191489600Y-104687587D01*
X191494443Y-104697467D01*
X191500362Y-104706897D01*
X191507357Y-104715877D01*
X191515429Y-104724407D01*
X191524195Y-104732135D01*
X191533396Y-104738832D01*
X191543032Y-104744499D01*
X191553103Y-104749136D01*
X191563609Y-104752743D01*
X191574551Y-104755319D01*
X191585927Y-104756864D01*
X191597739Y-104757379D01*
X191948227Y-104757379D01*
X191948227Y-105054379D01*
X191538632Y-105054379D01*
X191528773Y-105055150D01*
X191518221Y-105057921D01*
X191508432Y-105062706D01*
X191500493Y-105068547D01*
X191498332Y-105070499D01*
X191491575Y-105077772D01*
X191485885Y-105086885D01*
X191482362Y-105096853D01*
X191481007Y-105107676D01*
X191480990Y-105109089D01*
X191482074Y-105120034D01*
X191485326Y-105130155D01*
X191490745Y-105139452D01*
X191497265Y-105146910D01*
X191498332Y-105147924D01*
X191506104Y-105154110D01*
X191515702Y-105159319D01*
X191526063Y-105162544D01*
X191537188Y-105163784D01*
X191538632Y-105163800D01*
G37*
G36*
X190840097Y-105106402D02*
G01*
X190840097Y-104866800D01*
X191187655Y-104866800D01*
X191187655Y-104315788D01*
X191186825Y-104305632D01*
X191184336Y-104296107D01*
X191180187Y-104287213D01*
X191174378Y-104278950D01*
X191170314Y-104274511D01*
X191162304Y-104267754D01*
X191153664Y-104262657D01*
X191144393Y-104259219D01*
X191134490Y-104257441D01*
X191128548Y-104257170D01*
X191118689Y-104258012D01*
X191108137Y-104261034D01*
X191098348Y-104266255D01*
X191090409Y-104272626D01*
X191088248Y-104274756D01*
X191081491Y-104282765D01*
X191076394Y-104291405D01*
X191072956Y-104300677D01*
X191071178Y-104310579D01*
X191070907Y-104316521D01*
X191070907Y-104757379D01*
X190840097Y-104757379D01*
X190840097Y-104411532D01*
X190839291Y-104401066D01*
X190836871Y-104391256D01*
X190832839Y-104382099D01*
X190827194Y-104373598D01*
X190823244Y-104369033D01*
X190815532Y-104361991D01*
X190807143Y-104356678D01*
X190796724Y-104352724D01*
X190786882Y-104351118D01*
X190782456Y-104350959D01*
X190772228Y-104351824D01*
X190762701Y-104354419D01*
X190753875Y-104358743D01*
X190745751Y-104364797D01*
X190741423Y-104369033D01*
X190734856Y-104377161D01*
X190729903Y-104385943D01*
X190726562Y-104395380D01*
X190724834Y-104405471D01*
X190724570Y-104411532D01*
X190724570Y-104757379D01*
X190714437Y-104758151D01*
X190703687Y-104760921D01*
X190693822Y-104765707D01*
X190685916Y-104771547D01*
X190683782Y-104773499D01*
X190677215Y-104780772D01*
X190671685Y-104789886D01*
X190668262Y-104799854D01*
X190666945Y-104810677D01*
X190666929Y-104812090D01*
X190667982Y-104823035D01*
X190671142Y-104833156D01*
X190676409Y-104842452D01*
X190682745Y-104849910D01*
X190683782Y-104850924D01*
X190691494Y-104857110D01*
X190701138Y-104862320D01*
X190711667Y-104865544D01*
X190721606Y-104866738D01*
X190724570Y-104866800D01*
X190724570Y-105106647D01*
X190725400Y-105116684D01*
X190728381Y-105127355D01*
X190733529Y-105137170D01*
X190739812Y-105145058D01*
X190741912Y-105147191D01*
X190749695Y-105153662D01*
X190759335Y-105159112D01*
X190769769Y-105162486D01*
X190779550Y-105163735D01*
X190782456Y-105163800D01*
X190792589Y-105163005D01*
X190803339Y-105160150D01*
X190813204Y-105155220D01*
X190821110Y-105149202D01*
X190823244Y-105147191D01*
X190829811Y-105139479D01*
X190835341Y-105129835D01*
X190838764Y-105119306D01*
X190840031Y-105109367D01*
X190840097Y-105106402D01*
G37*
G36*
X190320184Y-104257426D02*
G01*
X190330087Y-104259104D01*
X190339358Y-104262348D01*
X190347999Y-104267158D01*
X190356008Y-104273534D01*
X190357075Y-104274548D01*
X190363595Y-104281976D01*
X190369014Y-104291181D01*
X190372265Y-104301149D01*
X190373349Y-104311880D01*
X190373332Y-104313294D01*
X190371997Y-104324136D01*
X190368524Y-104334154D01*
X190362914Y-104343347D01*
X190356252Y-104350715D01*
X190351802Y-104354436D01*
X190343464Y-104359754D01*
X190334425Y-104363552D01*
X190324684Y-104365831D01*
X190314242Y-104366591D01*
X190083677Y-104366591D01*
X190083677Y-105054379D01*
X190314487Y-105054379D01*
X190317451Y-105054440D01*
X190327390Y-105055615D01*
X190337919Y-105058790D01*
X190347563Y-105063919D01*
X190355275Y-105070010D01*
X190362648Y-105078238D01*
X190367915Y-105087290D01*
X190371075Y-105097167D01*
X190372128Y-105107868D01*
X190372111Y-105109282D01*
X190370795Y-105120162D01*
X190367372Y-105130279D01*
X190361842Y-105139633D01*
X190355275Y-105147191D01*
X190353141Y-105149202D01*
X190345235Y-105155220D01*
X190335370Y-105160150D01*
X190324620Y-105163005D01*
X190314487Y-105163800D01*
X189848471Y-105163800D01*
X189845595Y-105163735D01*
X189835903Y-105162486D01*
X189825541Y-105159112D01*
X189815943Y-105153662D01*
X189808171Y-105147191D01*
X189805072Y-105143969D01*
X189799026Y-105135966D01*
X189794149Y-105125991D01*
X189791660Y-105116535D01*
X189790830Y-105106402D01*
X189790830Y-104366591D01*
X189906357Y-104366591D01*
X189906357Y-105054379D01*
X189966685Y-105054379D01*
X189966685Y-104366591D01*
X189906357Y-104366591D01*
X189790830Y-104366591D01*
X189790830Y-104314567D01*
X189790984Y-104310144D01*
X189792547Y-104300323D01*
X189796394Y-104289958D01*
X189801563Y-104281640D01*
X189808415Y-104274023D01*
X189812858Y-104270073D01*
X189821146Y-104264428D01*
X189830088Y-104260396D01*
X189839685Y-104257976D01*
X189849937Y-104257170D01*
X190314242Y-104257170D01*
X190320184Y-104257426D01*
G37*
D11*
X108749200Y-90006100D03*
X108749200Y-90606100D03*
X108749200Y-91206100D03*
X108749200Y-91806100D03*
X108749200Y-92406100D03*
X108749200Y-93006100D03*
X108749200Y-93606100D03*
X109448700Y-90006100D03*
X109448700Y-90606100D03*
X109448700Y-91206100D03*
X109448700Y-91806100D03*
X109448700Y-92406100D03*
X109448700Y-93006100D03*
X109448700Y-93606100D03*
X133336721Y-83415478D03*
X132912457Y-82991214D03*
X132488193Y-82566950D03*
X132063929Y-82142686D03*
X131639665Y-81718422D03*
X131215401Y-81294158D03*
X130791137Y-80869894D03*
X131993572Y-83061571D03*
X131569308Y-82637307D03*
X131145044Y-82213043D03*
X132842100Y-83910100D03*
X132417836Y-83485836D03*
X130720779Y-81788779D03*
X130296515Y-81364515D03*
X124206100Y-78144300D03*
X123606100Y-78144300D03*
X123006100Y-78144300D03*
X122406100Y-78144300D03*
X121806100Y-78144300D03*
X121206100Y-78144300D03*
X120606100Y-78144300D03*
X124206100Y-78843800D03*
X123606100Y-78843800D03*
X123006100Y-78843800D03*
X122406100Y-78843800D03*
X121806100Y-78843800D03*
X121206100Y-78843800D03*
X120606100Y-78843800D03*
X120602700Y-105456000D03*
X121202700Y-105456000D03*
X121802700Y-105456000D03*
X122402700Y-105456000D03*
X123002700Y-105456000D03*
X123602700Y-105456000D03*
X124202700Y-105456000D03*
X120602700Y-104756500D03*
X121202700Y-104756500D03*
X121802700Y-104756500D03*
X122402700Y-104756500D03*
X123002700Y-104756500D03*
X123602700Y-104756500D03*
X124202700Y-104756500D03*
X130778021Y-102730405D03*
X131202285Y-102306141D03*
X131626549Y-101881877D03*
X132050813Y-101457613D03*
X132475077Y-101033349D03*
X132899341Y-100609085D03*
X133323605Y-100184821D03*
X131131928Y-101387256D03*
X131556192Y-100962992D03*
X131980456Y-100538728D03*
X130283399Y-102235784D03*
X130707663Y-101811520D03*
X132404720Y-100114463D03*
X132828984Y-99690199D03*
X114027379Y-80888595D03*
X113603115Y-81312859D03*
X113178851Y-81737123D03*
X112754587Y-82161387D03*
X112330323Y-82585651D03*
X111906059Y-83009915D03*
X111481795Y-83434179D03*
X113673472Y-82231744D03*
X113249208Y-82656008D03*
X112824944Y-83080272D03*
X114522001Y-81383216D03*
X114097737Y-81807480D03*
X112400680Y-83504537D03*
X111976416Y-83928801D03*
X111481795Y-100184821D03*
X111906059Y-100609085D03*
X112330323Y-101033349D03*
X112754587Y-101457613D03*
X113178851Y-101881877D03*
X113603115Y-102306141D03*
X114027379Y-102730405D03*
X112824944Y-100538728D03*
X113249208Y-100962992D03*
X113673472Y-101387256D03*
X111976416Y-99690199D03*
X112400680Y-100114463D03*
X114097737Y-101811520D03*
X114522001Y-102235784D03*
X136056200Y-93609600D03*
X136056200Y-93009600D03*
X136056200Y-92409600D03*
X136056200Y-91809600D03*
X136056200Y-91209600D03*
X136056200Y-90609600D03*
X136056200Y-90009600D03*
X135356700Y-93609600D03*
X135356700Y-93009600D03*
X135356700Y-92409600D03*
X135356700Y-91809600D03*
X135356700Y-91209600D03*
X135356700Y-90609600D03*
X135356700Y-90009600D03*
D12*
X190842300Y-91827000D03*
X197092300Y-91827000D03*
D13*
X193842300Y-87027000D03*
D14*
X148470886Y-91809600D03*
M02*
