G04 #@! TF.GenerationSoftware,KiCad,Pcbnew,7.0.10*
G04 #@! TF.CreationDate,2024-05-27T20:12:39-07:00*
G04 #@! TF.ProjectId,K40-LED_PCB,4b34302d-4c45-4445-9f50-43422e6b6963,rev?*
G04 #@! TF.SameCoordinates,Original*
G04 #@! TF.FileFunction,Legend,Top*
G04 #@! TF.FilePolarity,Positive*
%FSLAX46Y46*%
G04 Gerber Fmt 4.6, Leading zero omitted, Abs format (unit mm)*
G04 Created by KiCad (PCBNEW 7.0.10) date 2024-05-27 20:12:39*
%MOMM*%
%LPD*%
G01*
G04 APERTURE LIST*
G04 Aperture macros list*
%AMRotRect*
0 Rectangle, with rotation*
0 The origin of the aperture is its center*
0 $1 length*
0 $2 width*
0 $3 Rotation angle, in degrees counterclockwise*
0 Add horizontal line*
21,1,$1,$2,0,0,$3*%
G04 Aperture macros list end*
%ADD10C,0.150000*%
%ADD11C,0.600000*%
%ADD12C,0.120000*%
%ADD13C,0.500000*%
%ADD14C,0.127000*%
%ADD15C,0.200000*%
%ADD16C,1.000000*%
%ADD17R,1.100000X4.000000*%
%ADD18R,1.750000X4.000000*%
%ADD19RotRect,1.100000X4.000000X225.000000*%
%ADD20RotRect,1.750000X4.000000X225.000000*%
%ADD21R,4.000000X1.100000*%
%ADD22R,4.000000X1.750000*%
%ADD23R,1.500000X2.030000*%
%ADD24RotRect,1.100000X4.000000X135.000000*%
%ADD25RotRect,1.750000X4.000000X135.000000*%
%ADD26RotRect,1.100000X4.000000X315.000000*%
%ADD27RotRect,1.750000X4.000000X315.000000*%
%ADD28RotRect,1.100000X4.000000X45.000000*%
%ADD29RotRect,1.750000X4.000000X45.000000*%
%ADD30O,1.604000X3.804000*%
%ADD31O,3.804000X1.604000*%
%ADD32C,3.200000*%
G04 APERTURE END LIST*
D10*
X105222919Y-92544194D02*
X104222919Y-92544194D01*
X104222919Y-92544194D02*
X104222919Y-92306099D01*
X104222919Y-92306099D02*
X104270538Y-92163242D01*
X104270538Y-92163242D02*
X104365776Y-92068004D01*
X104365776Y-92068004D02*
X104461014Y-92020385D01*
X104461014Y-92020385D02*
X104651490Y-91972766D01*
X104651490Y-91972766D02*
X104794347Y-91972766D01*
X104794347Y-91972766D02*
X104984823Y-92020385D01*
X104984823Y-92020385D02*
X105080061Y-92068004D01*
X105080061Y-92068004D02*
X105175300Y-92163242D01*
X105175300Y-92163242D02*
X105222919Y-92306099D01*
X105222919Y-92306099D02*
X105222919Y-92544194D01*
X104222919Y-91068004D02*
X104222919Y-91544194D01*
X104222919Y-91544194D02*
X104699109Y-91591813D01*
X104699109Y-91591813D02*
X104651490Y-91544194D01*
X104651490Y-91544194D02*
X104603871Y-91448956D01*
X104603871Y-91448956D02*
X104603871Y-91210861D01*
X104603871Y-91210861D02*
X104651490Y-91115623D01*
X104651490Y-91115623D02*
X104699109Y-91068004D01*
X104699109Y-91068004D02*
X104794347Y-91020385D01*
X104794347Y-91020385D02*
X105032442Y-91020385D01*
X105032442Y-91020385D02*
X105127680Y-91068004D01*
X105127680Y-91068004D02*
X105175300Y-91115623D01*
X105175300Y-91115623D02*
X105222919Y-91210861D01*
X105222919Y-91210861D02*
X105222919Y-91448956D01*
X105222919Y-91448956D02*
X105175300Y-91544194D01*
X105175300Y-91544194D02*
X105127680Y-91591813D01*
X134023677Y-79139013D02*
X134730784Y-78431907D01*
X134730784Y-78431907D02*
X134899143Y-78600265D01*
X134899143Y-78600265D02*
X134966486Y-78734952D01*
X134966486Y-78734952D02*
X134966486Y-78869639D01*
X134966486Y-78869639D02*
X134932814Y-78970655D01*
X134932814Y-78970655D02*
X134831799Y-79139013D01*
X134831799Y-79139013D02*
X134730784Y-79240029D01*
X134730784Y-79240029D02*
X134562425Y-79341044D01*
X134562425Y-79341044D02*
X134461410Y-79374716D01*
X134461410Y-79374716D02*
X134326723Y-79374716D01*
X134326723Y-79374716D02*
X134192036Y-79307372D01*
X134192036Y-79307372D02*
X134023677Y-79139013D01*
X135336875Y-79172685D02*
X135404219Y-79172685D01*
X135404219Y-79172685D02*
X135505234Y-79206357D01*
X135505234Y-79206357D02*
X135673593Y-79374716D01*
X135673593Y-79374716D02*
X135707265Y-79475731D01*
X135707265Y-79475731D02*
X135707265Y-79543074D01*
X135707265Y-79543074D02*
X135673593Y-79644090D01*
X135673593Y-79644090D02*
X135606249Y-79711433D01*
X135606249Y-79711433D02*
X135471562Y-79778777D01*
X135471562Y-79778777D02*
X134663440Y-79778777D01*
X134663440Y-79778777D02*
X135101173Y-80216509D01*
X122848819Y-74654294D02*
X121848819Y-74654294D01*
X121848819Y-74654294D02*
X121848819Y-74416199D01*
X121848819Y-74416199D02*
X121896438Y-74273342D01*
X121896438Y-74273342D02*
X121991676Y-74178104D01*
X121991676Y-74178104D02*
X122086914Y-74130485D01*
X122086914Y-74130485D02*
X122277390Y-74082866D01*
X122277390Y-74082866D02*
X122420247Y-74082866D01*
X122420247Y-74082866D02*
X122610723Y-74130485D01*
X122610723Y-74130485D02*
X122705961Y-74178104D01*
X122705961Y-74178104D02*
X122801200Y-74273342D01*
X122801200Y-74273342D02*
X122848819Y-74416199D01*
X122848819Y-74416199D02*
X122848819Y-74654294D01*
X121848819Y-73749532D02*
X121848819Y-73130485D01*
X121848819Y-73130485D02*
X122229771Y-73463818D01*
X122229771Y-73463818D02*
X122229771Y-73320961D01*
X122229771Y-73320961D02*
X122277390Y-73225723D01*
X122277390Y-73225723D02*
X122325009Y-73178104D01*
X122325009Y-73178104D02*
X122420247Y-73130485D01*
X122420247Y-73130485D02*
X122658342Y-73130485D01*
X122658342Y-73130485D02*
X122753580Y-73178104D01*
X122753580Y-73178104D02*
X122801200Y-73225723D01*
X122801200Y-73225723D02*
X122848819Y-73320961D01*
X122848819Y-73320961D02*
X122848819Y-73606675D01*
X122848819Y-73606675D02*
X122801200Y-73701913D01*
X122801200Y-73701913D02*
X122753580Y-73749532D01*
X122870019Y-110371394D02*
X121870019Y-110371394D01*
X121870019Y-110371394D02*
X121870019Y-110133299D01*
X121870019Y-110133299D02*
X121917638Y-109990442D01*
X121917638Y-109990442D02*
X122012876Y-109895204D01*
X122012876Y-109895204D02*
X122108114Y-109847585D01*
X122108114Y-109847585D02*
X122298590Y-109799966D01*
X122298590Y-109799966D02*
X122441447Y-109799966D01*
X122441447Y-109799966D02*
X122631923Y-109847585D01*
X122631923Y-109847585D02*
X122727161Y-109895204D01*
X122727161Y-109895204D02*
X122822400Y-109990442D01*
X122822400Y-109990442D02*
X122870019Y-110133299D01*
X122870019Y-110133299D02*
X122870019Y-110371394D01*
X121870019Y-109466632D02*
X121870019Y-108799966D01*
X121870019Y-108799966D02*
X122870019Y-109228537D01*
X166243095Y-79363219D02*
X166243095Y-80172742D01*
X166243095Y-80172742D02*
X166290714Y-80267980D01*
X166290714Y-80267980D02*
X166338333Y-80315600D01*
X166338333Y-80315600D02*
X166433571Y-80363219D01*
X166433571Y-80363219D02*
X166624047Y-80363219D01*
X166624047Y-80363219D02*
X166719285Y-80315600D01*
X166719285Y-80315600D02*
X166766904Y-80267980D01*
X166766904Y-80267980D02*
X166814523Y-80172742D01*
X166814523Y-80172742D02*
X166814523Y-79363219D01*
X167814523Y-80363219D02*
X167243095Y-80363219D01*
X167528809Y-80363219D02*
X167528809Y-79363219D01*
X167528809Y-79363219D02*
X167433571Y-79506076D01*
X167433571Y-79506076D02*
X167338333Y-79601314D01*
X167338333Y-79601314D02*
X167243095Y-79648933D01*
X134685972Y-105078896D02*
X133978866Y-104371789D01*
X133978866Y-104371789D02*
X134147224Y-104203430D01*
X134147224Y-104203430D02*
X134281911Y-104136087D01*
X134281911Y-104136087D02*
X134416598Y-104136087D01*
X134416598Y-104136087D02*
X134517614Y-104169759D01*
X134517614Y-104169759D02*
X134685972Y-104270774D01*
X134685972Y-104270774D02*
X134786988Y-104371789D01*
X134786988Y-104371789D02*
X134888003Y-104540148D01*
X134888003Y-104540148D02*
X134921675Y-104641163D01*
X134921675Y-104641163D02*
X134921675Y-104775850D01*
X134921675Y-104775850D02*
X134854331Y-104910537D01*
X134854331Y-104910537D02*
X134685972Y-105078896D01*
X135090033Y-103866713D02*
X134989018Y-103900385D01*
X134989018Y-103900385D02*
X134921675Y-103900385D01*
X134921675Y-103900385D02*
X134820659Y-103866713D01*
X134820659Y-103866713D02*
X134786988Y-103833041D01*
X134786988Y-103833041D02*
X134753316Y-103732026D01*
X134753316Y-103732026D02*
X134753316Y-103664682D01*
X134753316Y-103664682D02*
X134786988Y-103563667D01*
X134786988Y-103563667D02*
X134921675Y-103428980D01*
X134921675Y-103428980D02*
X135022690Y-103395308D01*
X135022690Y-103395308D02*
X135090033Y-103395308D01*
X135090033Y-103395308D02*
X135191049Y-103428980D01*
X135191049Y-103428980D02*
X135224720Y-103462652D01*
X135224720Y-103462652D02*
X135258392Y-103563667D01*
X135258392Y-103563667D02*
X135258392Y-103631011D01*
X135258392Y-103631011D02*
X135224720Y-103732026D01*
X135224720Y-103732026D02*
X135090033Y-103866713D01*
X135090033Y-103866713D02*
X135056362Y-103967728D01*
X135056362Y-103967728D02*
X135056362Y-104035072D01*
X135056362Y-104035072D02*
X135090033Y-104136087D01*
X135090033Y-104136087D02*
X135224720Y-104270774D01*
X135224720Y-104270774D02*
X135325736Y-104304446D01*
X135325736Y-104304446D02*
X135393079Y-104304446D01*
X135393079Y-104304446D02*
X135494094Y-104270774D01*
X135494094Y-104270774D02*
X135628781Y-104136087D01*
X135628781Y-104136087D02*
X135662453Y-104035072D01*
X135662453Y-104035072D02*
X135662453Y-103967728D01*
X135662453Y-103967728D02*
X135628781Y-103866713D01*
X135628781Y-103866713D02*
X135494094Y-103732026D01*
X135494094Y-103732026D02*
X135393079Y-103698354D01*
X135393079Y-103698354D02*
X135325736Y-103698354D01*
X135325736Y-103698354D02*
X135224720Y-103732026D01*
X109725614Y-80176138D02*
X109018508Y-79469031D01*
X109018508Y-79469031D02*
X109186866Y-79300672D01*
X109186866Y-79300672D02*
X109321553Y-79233329D01*
X109321553Y-79233329D02*
X109456240Y-79233329D01*
X109456240Y-79233329D02*
X109557256Y-79267001D01*
X109557256Y-79267001D02*
X109725614Y-79368016D01*
X109725614Y-79368016D02*
X109826630Y-79469031D01*
X109826630Y-79469031D02*
X109927645Y-79637390D01*
X109927645Y-79637390D02*
X109961317Y-79738405D01*
X109961317Y-79738405D02*
X109961317Y-79873092D01*
X109961317Y-79873092D02*
X109893973Y-80007779D01*
X109893973Y-80007779D02*
X109725614Y-80176138D01*
X110264362Y-78694581D02*
X110735767Y-79165985D01*
X109826630Y-78593566D02*
X110163347Y-79267001D01*
X110163347Y-79267001D02*
X110601080Y-78829268D01*
X109056603Y-104111272D02*
X109763710Y-103404166D01*
X109763710Y-103404166D02*
X109932069Y-103572524D01*
X109932069Y-103572524D02*
X109999412Y-103707211D01*
X109999412Y-103707211D02*
X109999412Y-103841898D01*
X109999412Y-103841898D02*
X109965740Y-103942914D01*
X109965740Y-103942914D02*
X109864725Y-104111272D01*
X109864725Y-104111272D02*
X109763710Y-104212288D01*
X109763710Y-104212288D02*
X109595351Y-104313303D01*
X109595351Y-104313303D02*
X109494336Y-104346975D01*
X109494336Y-104346975D02*
X109359649Y-104346975D01*
X109359649Y-104346975D02*
X109224962Y-104279631D01*
X109224962Y-104279631D02*
X109056603Y-104111272D01*
X110773862Y-104414318D02*
X110639175Y-104279631D01*
X110639175Y-104279631D02*
X110538160Y-104245959D01*
X110538160Y-104245959D02*
X110470817Y-104245959D01*
X110470817Y-104245959D02*
X110302458Y-104279631D01*
X110302458Y-104279631D02*
X110134099Y-104380646D01*
X110134099Y-104380646D02*
X109864725Y-104650020D01*
X109864725Y-104650020D02*
X109831053Y-104751036D01*
X109831053Y-104751036D02*
X109831053Y-104818379D01*
X109831053Y-104818379D02*
X109864725Y-104919394D01*
X109864725Y-104919394D02*
X109999412Y-105054081D01*
X109999412Y-105054081D02*
X110100427Y-105087753D01*
X110100427Y-105087753D02*
X110167771Y-105087753D01*
X110167771Y-105087753D02*
X110268786Y-105054081D01*
X110268786Y-105054081D02*
X110437145Y-104885723D01*
X110437145Y-104885723D02*
X110470817Y-104784707D01*
X110470817Y-104784707D02*
X110470817Y-104717364D01*
X110470817Y-104717364D02*
X110437145Y-104616349D01*
X110437145Y-104616349D02*
X110302458Y-104481662D01*
X110302458Y-104481662D02*
X110201443Y-104447990D01*
X110201443Y-104447990D02*
X110134099Y-104447990D01*
X110134099Y-104447990D02*
X110033084Y-104481662D01*
X140408919Y-92534294D02*
X139408919Y-92534294D01*
X139408919Y-92534294D02*
X139408919Y-92296199D01*
X139408919Y-92296199D02*
X139456538Y-92153342D01*
X139456538Y-92153342D02*
X139551776Y-92058104D01*
X139551776Y-92058104D02*
X139647014Y-92010485D01*
X139647014Y-92010485D02*
X139837490Y-91962866D01*
X139837490Y-91962866D02*
X139980347Y-91962866D01*
X139980347Y-91962866D02*
X140170823Y-92010485D01*
X140170823Y-92010485D02*
X140266061Y-92058104D01*
X140266061Y-92058104D02*
X140361300Y-92153342D01*
X140361300Y-92153342D02*
X140408919Y-92296199D01*
X140408919Y-92296199D02*
X140408919Y-92534294D01*
X140408919Y-91010485D02*
X140408919Y-91581913D01*
X140408919Y-91296199D02*
X139408919Y-91296199D01*
X139408919Y-91296199D02*
X139551776Y-91391437D01*
X139551776Y-91391437D02*
X139647014Y-91486675D01*
X139647014Y-91486675D02*
X139694633Y-91581913D01*
X195576866Y-84570219D02*
X195576866Y-85284504D01*
X195576866Y-85284504D02*
X195529247Y-85427361D01*
X195529247Y-85427361D02*
X195434009Y-85522600D01*
X195434009Y-85522600D02*
X195291152Y-85570219D01*
X195291152Y-85570219D02*
X195195914Y-85570219D01*
X196005438Y-84665457D02*
X196053057Y-84617838D01*
X196053057Y-84617838D02*
X196148295Y-84570219D01*
X196148295Y-84570219D02*
X196386390Y-84570219D01*
X196386390Y-84570219D02*
X196481628Y-84617838D01*
X196481628Y-84617838D02*
X196529247Y-84665457D01*
X196529247Y-84665457D02*
X196576866Y-84760695D01*
X196576866Y-84760695D02*
X196576866Y-84855933D01*
X196576866Y-84855933D02*
X196529247Y-84998790D01*
X196529247Y-84998790D02*
X195957819Y-85570219D01*
X195957819Y-85570219D02*
X196576866Y-85570219D01*
X147653476Y-89735819D02*
X147653476Y-88735819D01*
X147653476Y-88735819D02*
X147986809Y-89450104D01*
X147986809Y-89450104D02*
X148320142Y-88735819D01*
X148320142Y-88735819D02*
X148320142Y-89735819D01*
X148701095Y-88735819D02*
X149320142Y-88735819D01*
X149320142Y-88735819D02*
X148986809Y-89116771D01*
X148986809Y-89116771D02*
X149129666Y-89116771D01*
X149129666Y-89116771D02*
X149224904Y-89164390D01*
X149224904Y-89164390D02*
X149272523Y-89212009D01*
X149272523Y-89212009D02*
X149320142Y-89307247D01*
X149320142Y-89307247D02*
X149320142Y-89545342D01*
X149320142Y-89545342D02*
X149272523Y-89640580D01*
X149272523Y-89640580D02*
X149224904Y-89688200D01*
X149224904Y-89688200D02*
X149129666Y-89735819D01*
X149129666Y-89735819D02*
X148843952Y-89735819D01*
X148843952Y-89735819D02*
X148748714Y-89688200D01*
X148748714Y-89688200D02*
X148701095Y-89640580D01*
D11*
X114023700Y-91806100D02*
G75*
G03*
X113423700Y-91806100I-300000J0D01*
G01*
X113423700Y-91806100D02*
G75*
G03*
X114023700Y-91806100I300000J0D01*
G01*
X128846426Y-85660189D02*
G75*
G03*
X128246426Y-85660189I-300000J0D01*
G01*
X128246426Y-85660189D02*
G75*
G03*
X128846426Y-85660189I300000J0D01*
G01*
X122706100Y-83118800D02*
G75*
G03*
X122106100Y-83118800I-300000J0D01*
G01*
X122106100Y-83118800D02*
G75*
G03*
X122706100Y-83118800I300000J0D01*
G01*
X122702700Y-100481500D02*
G75*
G03*
X122102700Y-100481500I-300000J0D01*
G01*
X122102700Y-100481500D02*
G75*
G03*
X122702700Y-100481500I300000J0D01*
G01*
D12*
X184041800Y-81678000D02*
X152101800Y-81678000D01*
X184041800Y-81678000D02*
X184041800Y-101978000D01*
X152101800Y-81678000D02*
X152101800Y-101978000D01*
X184041800Y-101978000D02*
X152101800Y-101978000D01*
D13*
X182219800Y-76595000D02*
G75*
G03*
X181719800Y-76595000I-250000J0D01*
G01*
X181719800Y-76595000D02*
G75*
G03*
X182219800Y-76595000I250000J0D01*
G01*
D11*
X128833310Y-97940110D02*
G75*
G03*
X128233310Y-97940110I-300000J0D01*
G01*
X128233310Y-97940110D02*
G75*
G03*
X128833310Y-97940110I300000J0D01*
G01*
X116572090Y-85678890D02*
G75*
G03*
X115972090Y-85678890I-300000J0D01*
G01*
X115972090Y-85678890D02*
G75*
G03*
X116572090Y-85678890I300000J0D01*
G01*
X116572090Y-97940110D02*
G75*
G03*
X115972090Y-97940110I-300000J0D01*
G01*
X115972090Y-97940110D02*
G75*
G03*
X116572090Y-97940110I300000J0D01*
G01*
X131381700Y-91809600D02*
G75*
G03*
X130781700Y-91809600I-300000J0D01*
G01*
X130781700Y-91809600D02*
G75*
G03*
X131381700Y-91809600I300000J0D01*
G01*
D14*
X190292300Y-96327000D02*
X190292300Y-93947000D01*
X204592300Y-96327000D02*
X190292300Y-96327000D01*
X190292300Y-89707000D02*
X190292300Y-87327000D01*
X190292300Y-87327000D02*
X191722300Y-87327000D01*
X204592300Y-87327000D02*
X204592300Y-96327000D01*
X204592300Y-87327000D02*
X195962300Y-87327000D01*
D15*
X189742300Y-91827000D02*
G75*
G03*
X189542300Y-91827000I-100000J0D01*
G01*
X189542300Y-91827000D02*
G75*
G03*
X189742300Y-91827000I100000J0D01*
G01*
%LPC*%
D16*
X199594039Y-108059639D02*
G75*
G03*
X200844039Y-106809600I-39J1250039D01*
G01*
X145742773Y-75559600D02*
G75*
G03*
X145742773Y-108059600I-23340073J-16250000D01*
G01*
X200844039Y-106809600D02*
X200844039Y-76809600D01*
X200844000Y-76809600D02*
G75*
G03*
X199594039Y-75559600I-1250000J0D01*
G01*
X199594039Y-75559600D02*
X145742773Y-75559600D01*
X145742773Y-108059600D02*
X199594039Y-108059600D01*
D17*
X109098700Y-91806100D03*
D18*
X106723700Y-91806100D03*
X111473700Y-91806100D03*
D19*
X131816795Y-82389820D03*
D20*
X133496174Y-80710441D03*
X130137416Y-84069199D03*
D21*
X122406100Y-78493800D03*
D22*
X122406100Y-76118800D03*
X122406100Y-80868800D03*
D21*
X122402700Y-105106500D03*
D22*
X122402700Y-107481500D03*
X122402700Y-102731500D03*
D23*
X182041800Y-79643000D03*
X179501800Y-79643000D03*
X176961800Y-79643000D03*
X174421800Y-79643000D03*
X171881800Y-79643000D03*
X161721800Y-79643000D03*
X159181800Y-79643000D03*
X156641800Y-79643000D03*
X154101800Y-79643000D03*
X154101800Y-104013000D03*
X156641800Y-104013000D03*
X159181800Y-104013000D03*
X161721800Y-104013000D03*
X171881800Y-104013000D03*
X174421800Y-104013000D03*
X176961800Y-104013000D03*
X179501800Y-104013000D03*
X182041800Y-104013000D03*
D24*
X131803679Y-101210479D03*
D25*
X133483058Y-102889858D03*
X130124300Y-99531100D03*
D26*
X113001721Y-82408521D03*
D27*
X111322342Y-80729142D03*
X114681100Y-84087900D03*
D28*
X113001721Y-101210479D03*
D29*
X111322342Y-102889858D03*
X114681100Y-99531100D03*
D17*
X135706700Y-91809600D03*
D18*
X138081700Y-91809600D03*
X133331700Y-91809600D03*
D30*
X190842300Y-91827000D03*
X197092300Y-91827000D03*
D31*
X193842300Y-87027000D03*
D32*
X148470886Y-91809600D03*
%LPD*%
M02*
