G04 #@! TF.GenerationSoftware,KiCad,Pcbnew,7.0.10*
G04 #@! TF.CreationDate,2024-05-27T20:12:39-07:00*
G04 #@! TF.ProjectId,K40-LED_PCB,4b34302d-4c45-4445-9f50-43422e6b6963,rev?*
G04 #@! TF.SameCoordinates,Original*
G04 #@! TF.FileFunction,Copper,L1,Top*
G04 #@! TF.FilePolarity,Positive*
%FSLAX46Y46*%
G04 Gerber Fmt 4.6, Leading zero omitted, Abs format (unit mm)*
G04 Created by KiCad (PCBNEW 7.0.10) date 2024-05-27 20:12:39*
%MOMM*%
%LPD*%
G01*
G04 APERTURE LIST*
G04 Aperture macros list*
%AMRotRect*
0 Rectangle, with rotation*
0 The origin of the aperture is its center*
0 $1 length*
0 $2 width*
0 $3 Rotation angle, in degrees counterclockwise*
0 Add horizontal line*
21,1,$1,$2,0,0,$3*%
G04 Aperture macros list end*
G04 #@! TA.AperFunction,ComponentPad*
%ADD10C,0.400000*%
G04 #@! TD*
G04 #@! TA.AperFunction,SMDPad,CuDef*
%ADD11R,1.100000X4.000000*%
G04 #@! TD*
G04 #@! TA.AperFunction,SMDPad,CuDef*
%ADD12R,1.750000X4.000000*%
G04 #@! TD*
G04 #@! TA.AperFunction,SMDPad,CuDef*
%ADD13RotRect,1.100000X4.000000X225.000000*%
G04 #@! TD*
G04 #@! TA.AperFunction,SMDPad,CuDef*
%ADD14RotRect,1.750000X4.000000X225.000000*%
G04 #@! TD*
G04 #@! TA.AperFunction,SMDPad,CuDef*
%ADD15R,4.000000X1.100000*%
G04 #@! TD*
G04 #@! TA.AperFunction,SMDPad,CuDef*
%ADD16R,4.000000X1.750000*%
G04 #@! TD*
G04 #@! TA.AperFunction,SMDPad,CuDef*
%ADD17R,1.500000X2.030000*%
G04 #@! TD*
G04 #@! TA.AperFunction,SMDPad,CuDef*
%ADD18RotRect,1.100000X4.000000X135.000000*%
G04 #@! TD*
G04 #@! TA.AperFunction,SMDPad,CuDef*
%ADD19RotRect,1.750000X4.000000X135.000000*%
G04 #@! TD*
G04 #@! TA.AperFunction,SMDPad,CuDef*
%ADD20RotRect,1.100000X4.000000X315.000000*%
G04 #@! TD*
G04 #@! TA.AperFunction,SMDPad,CuDef*
%ADD21RotRect,1.750000X4.000000X315.000000*%
G04 #@! TD*
G04 #@! TA.AperFunction,SMDPad,CuDef*
%ADD22RotRect,1.100000X4.000000X45.000000*%
G04 #@! TD*
G04 #@! TA.AperFunction,SMDPad,CuDef*
%ADD23RotRect,1.750000X4.000000X45.000000*%
G04 #@! TD*
G04 #@! TA.AperFunction,ComponentPad*
%ADD24O,1.400000X3.600000*%
G04 #@! TD*
G04 #@! TA.AperFunction,ComponentPad*
%ADD25O,3.600000X1.400000*%
G04 #@! TD*
G04 #@! TA.AperFunction,ViaPad*
%ADD26C,0.800000*%
G04 #@! TD*
G04 #@! TA.AperFunction,Conductor*
%ADD27C,0.250000*%
G04 #@! TD*
G04 APERTURE END LIST*
D10*
X108749200Y-90006100D03*
X108749200Y-90606100D03*
X108749200Y-91206100D03*
X108749200Y-91806100D03*
X108749200Y-92406100D03*
X108749200Y-93006100D03*
X108749200Y-93606100D03*
D11*
X109098700Y-91806100D03*
D10*
X109448700Y-90006100D03*
X109448700Y-90606100D03*
X109448700Y-91206100D03*
X109448700Y-91806100D03*
X109448700Y-92406100D03*
X109448700Y-93006100D03*
X109448700Y-93606100D03*
D12*
X106723700Y-91806100D03*
X111473700Y-91806100D03*
D10*
X133336721Y-83415478D03*
X132912457Y-82991214D03*
X132488193Y-82566950D03*
X132063929Y-82142686D03*
X131639665Y-81718422D03*
X131215401Y-81294158D03*
X130791137Y-80869894D03*
D13*
X131816795Y-82389820D03*
D10*
X131993572Y-83061571D03*
X131569308Y-82637307D03*
X131145044Y-82213043D03*
X132842100Y-83910100D03*
X132417836Y-83485836D03*
X130720779Y-81788779D03*
X130296515Y-81364515D03*
D14*
X133496174Y-80710441D03*
X130137416Y-84069199D03*
D10*
X124206100Y-78144300D03*
X123606100Y-78144300D03*
X123006100Y-78144300D03*
X122406100Y-78144300D03*
X121806100Y-78144300D03*
X121206100Y-78144300D03*
X120606100Y-78144300D03*
D15*
X122406100Y-78493800D03*
D10*
X124206100Y-78843800D03*
X123606100Y-78843800D03*
X123006100Y-78843800D03*
X122406100Y-78843800D03*
X121806100Y-78843800D03*
X121206100Y-78843800D03*
X120606100Y-78843800D03*
D16*
X122406100Y-76118800D03*
X122406100Y-80868800D03*
D10*
X120602700Y-105456000D03*
X121202700Y-105456000D03*
X121802700Y-105456000D03*
X122402700Y-105456000D03*
X123002700Y-105456000D03*
X123602700Y-105456000D03*
X124202700Y-105456000D03*
D15*
X122402700Y-105106500D03*
D10*
X120602700Y-104756500D03*
X121202700Y-104756500D03*
X121802700Y-104756500D03*
X122402700Y-104756500D03*
X123002700Y-104756500D03*
X123602700Y-104756500D03*
X124202700Y-104756500D03*
D16*
X122402700Y-107481500D03*
X122402700Y-102731500D03*
D17*
X182041800Y-79643000D03*
X179501800Y-79643000D03*
X176961800Y-79643000D03*
X174421800Y-79643000D03*
X171881800Y-79643000D03*
X161721800Y-79643000D03*
X159181800Y-79643000D03*
X156641800Y-79643000D03*
X154101800Y-79643000D03*
X154101800Y-104013000D03*
X156641800Y-104013000D03*
X159181800Y-104013000D03*
X161721800Y-104013000D03*
X171881800Y-104013000D03*
X174421800Y-104013000D03*
X176961800Y-104013000D03*
X179501800Y-104013000D03*
X182041800Y-104013000D03*
D10*
X130778021Y-102730405D03*
X131202285Y-102306141D03*
X131626549Y-101881877D03*
X132050813Y-101457613D03*
X132475077Y-101033349D03*
X132899341Y-100609085D03*
X133323605Y-100184821D03*
D18*
X131803679Y-101210479D03*
D10*
X131131928Y-101387256D03*
X131556192Y-100962992D03*
X131980456Y-100538728D03*
X130283399Y-102235784D03*
X130707663Y-101811520D03*
X132404720Y-100114463D03*
X132828984Y-99690199D03*
D19*
X133483058Y-102889858D03*
X130124300Y-99531100D03*
D10*
X114027379Y-80888595D03*
X113603115Y-81312859D03*
X113178851Y-81737123D03*
X112754587Y-82161387D03*
X112330323Y-82585651D03*
X111906059Y-83009915D03*
X111481795Y-83434179D03*
D20*
X113001721Y-82408521D03*
D10*
X113673472Y-82231744D03*
X113249208Y-82656008D03*
X112824944Y-83080272D03*
X114522001Y-81383216D03*
X114097737Y-81807480D03*
X112400680Y-83504537D03*
X111976416Y-83928801D03*
D21*
X111322342Y-80729142D03*
X114681100Y-84087900D03*
D10*
X111481795Y-100184821D03*
X111906059Y-100609085D03*
X112330323Y-101033349D03*
X112754587Y-101457613D03*
X113178851Y-101881877D03*
X113603115Y-102306141D03*
X114027379Y-102730405D03*
D22*
X113001721Y-101210479D03*
D10*
X112824944Y-100538728D03*
X113249208Y-100962992D03*
X113673472Y-101387256D03*
X111976416Y-99690199D03*
X112400680Y-100114463D03*
X114097737Y-101811520D03*
X114522001Y-102235784D03*
D23*
X111322342Y-102889858D03*
X114681100Y-99531100D03*
D10*
X136056200Y-93609600D03*
X136056200Y-93009600D03*
X136056200Y-92409600D03*
X136056200Y-91809600D03*
X136056200Y-91209600D03*
X136056200Y-90609600D03*
X136056200Y-90009600D03*
D11*
X135706700Y-91809600D03*
D10*
X135356700Y-93609600D03*
X135356700Y-93009600D03*
X135356700Y-92409600D03*
X135356700Y-91809600D03*
X135356700Y-91209600D03*
X135356700Y-90609600D03*
X135356700Y-90009600D03*
D12*
X138081700Y-91809600D03*
X133331700Y-91809600D03*
D24*
X190842300Y-91827000D03*
X197092300Y-91827000D03*
D25*
X193842300Y-87027000D03*
D26*
X179501800Y-81534000D03*
X182041800Y-81534000D03*
X180771800Y-81534000D03*
X156641800Y-81534000D03*
X129794000Y-97459800D03*
X154101800Y-81534000D03*
X155371800Y-81534000D03*
X128930400Y-98323400D03*
X128041400Y-99212400D03*
D27*
X133331700Y-87916300D02*
X133331700Y-91809600D01*
X136321900Y-84926100D02*
X133331700Y-87916300D01*
X136321900Y-83536167D02*
X136321900Y-84926100D01*
X133496174Y-80710441D02*
X136321900Y-83536167D01*
X115543959Y-77899837D02*
X118534159Y-80890037D01*
X114154026Y-77899837D02*
X115543959Y-77899837D01*
X118534159Y-80890037D02*
X122427459Y-80890037D01*
X111328300Y-80725563D02*
X114154026Y-77899837D01*
X133501859Y-102895974D02*
X130676133Y-105721699D01*
X130676133Y-105721699D02*
X129286200Y-105721699D01*
X129286200Y-105721699D02*
X126296000Y-102731500D01*
X126296000Y-102731500D02*
X122402700Y-102731500D01*
X108490501Y-100057533D02*
X108490501Y-98667600D01*
X111316226Y-102883259D02*
X108490501Y-100057533D01*
X108490501Y-98667600D02*
X111480700Y-95677400D01*
X111480700Y-95677400D02*
X111480700Y-91784100D01*
X122402700Y-76112300D02*
X126398880Y-76112300D01*
X127381711Y-77095131D02*
X127381711Y-81323912D01*
X126398880Y-76112300D02*
X127381711Y-77095131D01*
X127381711Y-81323912D02*
X130134690Y-84076891D01*
X106730900Y-87855610D02*
X107713731Y-86872779D01*
X106730900Y-91851790D02*
X106730900Y-87855610D01*
X107713731Y-86872779D02*
X111942512Y-86872779D01*
X111942512Y-86872779D02*
X114695491Y-84119800D01*
X117434079Y-106512860D02*
X117434079Y-102284079D01*
X122413090Y-107495691D02*
X118416910Y-107495691D01*
X117434079Y-102284079D02*
X114681100Y-99531100D01*
X118416910Y-107495691D02*
X117434079Y-106512860D01*
G04 #@! TA.AperFunction,Conductor*
G36*
X192944676Y-89249949D02*
G01*
X192965321Y-89266585D01*
X193892678Y-90193880D01*
X193926165Y-90255202D01*
X193929000Y-90281564D01*
X193929000Y-93284238D01*
X193909315Y-93351277D01*
X193892681Y-93371919D01*
X192965319Y-94299281D01*
X192903996Y-94332766D01*
X192877638Y-94335600D01*
X183515000Y-94335600D01*
X182778400Y-95021400D01*
X182779074Y-95524614D01*
X182790392Y-103976589D01*
X182770797Y-104043655D01*
X182754132Y-104064378D01*
X181828128Y-104991623D01*
X181766827Y-105025149D01*
X181740388Y-105028000D01*
X179803105Y-105028000D01*
X179736066Y-105008315D01*
X179715494Y-104991752D01*
X179250996Y-104528000D01*
X178786497Y-104064248D01*
X178752964Y-104002953D01*
X178750109Y-103976700D01*
X178728090Y-90282614D01*
X178747667Y-90215546D01*
X178764330Y-90194815D01*
X179690072Y-89267522D01*
X179751367Y-89233986D01*
X179777813Y-89231130D01*
X186327700Y-89230700D01*
X192877636Y-89230269D01*
X192944676Y-89249949D01*
G37*
G04 #@! TD.AperFunction*
G04 #@! TA.AperFunction,Conductor*
G36*
X182557477Y-78647685D02*
G01*
X182578119Y-78664319D01*
X182755481Y-78841681D01*
X182788966Y-78903004D01*
X182791800Y-78929362D01*
X182791800Y-81931438D01*
X182772115Y-81998477D01*
X182755481Y-82019119D01*
X182578119Y-82196481D01*
X182516796Y-82229966D01*
X182490438Y-82232800D01*
X179053162Y-82232800D01*
X178986123Y-82213115D01*
X178965481Y-82196481D01*
X178788119Y-82019119D01*
X178754634Y-81957796D01*
X178751800Y-81931438D01*
X178751800Y-78929362D01*
X178771485Y-78862323D01*
X178788119Y-78841681D01*
X178965481Y-78664319D01*
X179026804Y-78630834D01*
X179053162Y-78628000D01*
X182490438Y-78628000D01*
X182557477Y-78647685D01*
G37*
G04 #@! TD.AperFunction*
G04 #@! TA.AperFunction,Conductor*
G36*
X157157477Y-78647685D02*
G01*
X157178119Y-78664319D01*
X157355481Y-78841681D01*
X157388966Y-78903004D01*
X157391800Y-78929362D01*
X157391800Y-81931438D01*
X157372115Y-81998477D01*
X157355481Y-82019119D01*
X157178119Y-82196481D01*
X157116796Y-82229966D01*
X157090438Y-82232800D01*
X153653162Y-82232800D01*
X153586123Y-82213115D01*
X153565481Y-82196481D01*
X153388119Y-82019119D01*
X153354634Y-81957796D01*
X153351800Y-81931438D01*
X153351800Y-78929362D01*
X153371485Y-78862323D01*
X153388119Y-78841681D01*
X153565481Y-78664319D01*
X153626804Y-78630834D01*
X153653162Y-78628000D01*
X157090438Y-78628000D01*
X157157477Y-78647685D01*
G37*
G04 #@! TD.AperFunction*
G04 #@! TA.AperFunction,Conductor*
G36*
X157167789Y-82689990D02*
G01*
X157188451Y-82706644D01*
X157365691Y-82883965D01*
X157399162Y-82945296D01*
X157401990Y-82971683D01*
X157391938Y-104726657D01*
X157372222Y-104793688D01*
X157355603Y-104814297D01*
X157178110Y-104991719D01*
X157116782Y-105025191D01*
X157090461Y-105028019D01*
X153150529Y-105028281D01*
X142602641Y-105028980D01*
X142535600Y-105009300D01*
X142535552Y-105009269D01*
X142243190Y-104821216D01*
X142197456Y-104768394D01*
X142197432Y-104768341D01*
X140580192Y-101219000D01*
X139804167Y-99515865D01*
X139804166Y-99515864D01*
X139700509Y-99288368D01*
X138709401Y-98730438D01*
X138459401Y-98730669D01*
X135915400Y-98733021D01*
X133396127Y-98735350D01*
X133348553Y-98725906D01*
X133082188Y-98615535D01*
X132967679Y-98568087D01*
X132927362Y-98541110D01*
X130892649Y-96501603D01*
X130859236Y-96440241D01*
X130864302Y-96370555D01*
X130865889Y-96366530D01*
X130875868Y-96342478D01*
X130919741Y-96288102D01*
X130986048Y-96266076D01*
X130990401Y-96266000D01*
X135487600Y-96266000D01*
X135737600Y-96266000D01*
X137206700Y-94698600D01*
X137206700Y-90110962D01*
X137226385Y-90043923D01*
X137243019Y-90023281D01*
X137420381Y-89845919D01*
X137481704Y-89812434D01*
X137508062Y-89809600D01*
X139693050Y-89809600D01*
X139759998Y-89829226D01*
X140053056Y-90017199D01*
X140098812Y-90069863D01*
X143022885Y-96442985D01*
X144957800Y-100660200D01*
X145300700Y-100939600D01*
X145449791Y-101061082D01*
X145643600Y-101219000D01*
X151133998Y-101219000D01*
X151134000Y-101219000D01*
X151384000Y-101219000D01*
X152141953Y-100432975D01*
X153180939Y-99355507D01*
X153180938Y-99355507D01*
X153354473Y-99175546D01*
X153354680Y-98730438D01*
X153361989Y-82971649D01*
X153381705Y-82904620D01*
X153398324Y-82884010D01*
X153575814Y-82706602D01*
X153637145Y-82673133D01*
X153663475Y-82670305D01*
X157100750Y-82670305D01*
X157167789Y-82689990D01*
G37*
G04 #@! TD.AperFunction*
G04 #@! TA.AperFunction,Conductor*
G36*
X130036923Y-96615022D02*
G01*
X130057797Y-96631837D01*
X131944383Y-98522316D01*
X131977804Y-98583674D01*
X131980611Y-98609971D01*
X131980481Y-98861057D01*
X131960762Y-98928086D01*
X131944162Y-98948674D01*
X129541901Y-101350936D01*
X129480578Y-101384421D01*
X129454220Y-101387255D01*
X129203390Y-101387255D01*
X129136351Y-101367570D01*
X129115709Y-101350936D01*
X127237568Y-99472795D01*
X127204083Y-99411472D01*
X127201249Y-99385346D01*
X127200778Y-99133582D01*
X127220337Y-99066509D01*
X127236765Y-99046006D01*
X128434684Y-97839097D01*
X128880518Y-97389916D01*
X129632380Y-96632413D01*
X129693577Y-96598699D01*
X129720220Y-96595766D01*
X129844732Y-96595597D01*
X129969858Y-96595428D01*
X130036923Y-96615022D01*
G37*
G04 #@! TD.AperFunction*
M02*
