M48
; DRILL file {KiCad 7.0.10} date Mon May 27 20:12:56 2024
; FORMAT={-:-/ absolute / inch / decimal}
; #@! TF.CreationDate,2024-05-27T20:12:56-07:00
; #@! TF.GenerationSoftware,Kicad,Pcbnew,7.0.10
; #@! TF.FileFunction,Plated,1,2,PTH
FMAT,2
INCH
; #@! TA.AperFunction,Plated,PTH,ComponentDrill
T1C0.0079
; #@! TA.AperFunction,Plated,PTH,ViaDrill
T2C0.0157
; #@! TA.AperFunction,Plated,PTH,ComponentDrill
T3C0.0315
%
G90
G05
T1
X4.2815Y-3.5435
X4.2815Y-3.5672
X4.2815Y-3.5908
X4.2815Y-3.6144
X4.2815Y-3.638
X4.2815Y-3.6617
X4.2815Y-3.6853
X4.309Y-3.5435
X4.309Y-3.5672
X4.309Y-3.5908
X4.309Y-3.6144
X4.309Y-3.638
X4.309Y-3.6617
X4.309Y-3.6853
X4.389Y-3.2848
X4.389Y-3.9443
X4.4058Y-3.2681
X4.4058Y-3.961
X4.4085Y-3.3043
X4.4085Y-3.9248
X4.4225Y-3.2514
X4.4225Y-3.9777
X4.4252Y-3.2876
X4.4252Y-3.9415
X4.4392Y-3.2347
X4.4392Y-3.9944
X4.4419Y-3.2709
X4.4419Y-3.9582
X4.4559Y-3.218
X4.4559Y-4.0111
X4.4586Y-3.2542
X4.4586Y-3.9749
X4.4726Y-3.2013
X4.4726Y-4.0278
X4.4753Y-3.2375
X4.4753Y-3.9916
X4.4893Y-3.1846
X4.4893Y-4.0445
X4.492Y-3.2208
X4.492Y-4.0083
X4.5087Y-3.2041
X4.5087Y-4.025
X4.7481Y-4.1243
X4.7481Y-4.1518
X4.7483Y-3.0765
X4.7483Y-3.1041
X4.7718Y-4.1243
X4.7718Y-4.1518
X4.7719Y-3.0765
X4.7719Y-3.1041
X4.7954Y-4.1243
X4.7954Y-4.1518
X4.7955Y-3.0765
X4.7955Y-3.1041
X4.819Y-4.1243
X4.819Y-4.1518
X4.8191Y-3.0765
X4.8191Y-3.1041
X4.8426Y-4.1243
X4.8426Y-4.1518
X4.8428Y-3.0765
X4.8428Y-3.1041
X4.8662Y-4.1243
X4.8662Y-4.1518
X4.8664Y-3.0765
X4.8664Y-3.1041
X4.8899Y-4.1243
X4.8899Y-4.1518
X4.89Y-3.0765
X4.89Y-3.1041
X5.1293Y-4.025
X5.1298Y-3.2033
X5.146Y-4.0083
X5.1465Y-3.22
X5.1487Y-4.0445
X5.1493Y-3.1839
X5.1627Y-3.9916
X5.1632Y-3.2367
X5.1654Y-4.0278
X5.166Y-3.2006
X5.1794Y-3.9749
X5.1799Y-3.2534
X5.1821Y-4.0111
X5.1827Y-3.2173
X5.1961Y-3.9582
X5.1966Y-3.2701
X5.1989Y-3.9944
X5.1994Y-3.234
X5.2128Y-3.9415
X5.2133Y-3.2868
X5.2156Y-3.9777
X5.2161Y-3.2507
X5.2295Y-3.9248
X5.23Y-3.3035
X5.2323Y-3.961
X5.2328Y-3.2674
X5.249Y-3.9443
X5.2495Y-3.2841
X5.329Y-3.5437
X5.329Y-3.5673
X5.329Y-3.5909
X5.329Y-3.6146
X5.329Y-3.6382
X5.329Y-3.6618
X5.329Y-3.6854
X5.3565Y-3.5437
X5.3565Y-3.5673
X5.3565Y-3.5909
X5.3565Y-3.6146
X5.3565Y-3.6382
X5.3565Y-3.6618
X5.3565Y-3.6854
T2
X5.041Y-3.906
X5.076Y-3.871
X5.11Y-3.837
X6.067Y-3.21
X6.117Y-3.21
X6.167Y-3.21
X7.067Y-3.21
X7.117Y-3.21
X7.167Y-3.21
T3
G00X7.5135Y-3.6585
M15
G01X7.5135Y-3.5719
M16
G05
G00X7.5883Y-3.4263
M15
G01X7.6749Y-3.4263
M16
G05
G00X7.7595Y-3.6585
M15
G01X7.7595Y-3.5719
M16
G05
M30
