G04 #@! TF.GenerationSoftware,KiCad,Pcbnew,7.0.10*
G04 #@! TF.CreationDate,2024-05-27T20:12:39-07:00*
G04 #@! TF.ProjectId,K40-LED_PCB,4b34302d-4c45-4445-9f50-43422e6b6963,rev?*
G04 #@! TF.SameCoordinates,Original*
G04 #@! TF.FileFunction,Copper,L2,Bot*
G04 #@! TF.FilePolarity,Positive*
%FSLAX46Y46*%
G04 Gerber Fmt 4.6, Leading zero omitted, Abs format (unit mm)*
G04 Created by KiCad (PCBNEW 7.0.10) date 2024-05-27 20:12:39*
%MOMM*%
%LPD*%
G01*
G04 APERTURE LIST*
G04 #@! TA.AperFunction,ComponentPad*
%ADD10C,0.400000*%
G04 #@! TD*
G04 #@! TA.AperFunction,ComponentPad*
%ADD11O,1.400000X3.600000*%
G04 #@! TD*
G04 #@! TA.AperFunction,ComponentPad*
%ADD12O,3.600000X1.400000*%
G04 #@! TD*
G04 #@! TA.AperFunction,ViaPad*
%ADD13C,0.800000*%
G04 #@! TD*
G04 APERTURE END LIST*
D10*
X108749200Y-90006100D03*
X108749200Y-90606100D03*
X108749200Y-91206100D03*
X108749200Y-91806100D03*
X108749200Y-92406100D03*
X108749200Y-93006100D03*
X108749200Y-93606100D03*
X109448700Y-90006100D03*
X109448700Y-90606100D03*
X109448700Y-91206100D03*
X109448700Y-91806100D03*
X109448700Y-92406100D03*
X109448700Y-93006100D03*
X109448700Y-93606100D03*
X133336721Y-83415478D03*
X132912457Y-82991214D03*
X132488193Y-82566950D03*
X132063929Y-82142686D03*
X131639665Y-81718422D03*
X131215401Y-81294158D03*
X130791137Y-80869894D03*
X131993572Y-83061571D03*
X131569308Y-82637307D03*
X131145044Y-82213043D03*
X132842100Y-83910100D03*
X132417836Y-83485836D03*
X130720779Y-81788779D03*
X130296515Y-81364515D03*
X124206100Y-78144300D03*
X123606100Y-78144300D03*
X123006100Y-78144300D03*
X122406100Y-78144300D03*
X121806100Y-78144300D03*
X121206100Y-78144300D03*
X120606100Y-78144300D03*
X124206100Y-78843800D03*
X123606100Y-78843800D03*
X123006100Y-78843800D03*
X122406100Y-78843800D03*
X121806100Y-78843800D03*
X121206100Y-78843800D03*
X120606100Y-78843800D03*
X120602700Y-105456000D03*
X121202700Y-105456000D03*
X121802700Y-105456000D03*
X122402700Y-105456000D03*
X123002700Y-105456000D03*
X123602700Y-105456000D03*
X124202700Y-105456000D03*
X120602700Y-104756500D03*
X121202700Y-104756500D03*
X121802700Y-104756500D03*
X122402700Y-104756500D03*
X123002700Y-104756500D03*
X123602700Y-104756500D03*
X124202700Y-104756500D03*
X130778021Y-102730405D03*
X131202285Y-102306141D03*
X131626549Y-101881877D03*
X132050813Y-101457613D03*
X132475077Y-101033349D03*
X132899341Y-100609085D03*
X133323605Y-100184821D03*
X131131928Y-101387256D03*
X131556192Y-100962992D03*
X131980456Y-100538728D03*
X130283399Y-102235784D03*
X130707663Y-101811520D03*
X132404720Y-100114463D03*
X132828984Y-99690199D03*
X114027379Y-80888595D03*
X113603115Y-81312859D03*
X113178851Y-81737123D03*
X112754587Y-82161387D03*
X112330323Y-82585651D03*
X111906059Y-83009915D03*
X111481795Y-83434179D03*
X113673472Y-82231744D03*
X113249208Y-82656008D03*
X112824944Y-83080272D03*
X114522001Y-81383216D03*
X114097737Y-81807480D03*
X112400680Y-83504537D03*
X111976416Y-83928801D03*
X111481795Y-100184821D03*
X111906059Y-100609085D03*
X112330323Y-101033349D03*
X112754587Y-101457613D03*
X113178851Y-101881877D03*
X113603115Y-102306141D03*
X114027379Y-102730405D03*
X112824944Y-100538728D03*
X113249208Y-100962992D03*
X113673472Y-101387256D03*
X111976416Y-99690199D03*
X112400680Y-100114463D03*
X114097737Y-101811520D03*
X114522001Y-102235784D03*
X136056200Y-93609600D03*
X136056200Y-93009600D03*
X136056200Y-92409600D03*
X136056200Y-91809600D03*
X136056200Y-91209600D03*
X136056200Y-90609600D03*
X136056200Y-90009600D03*
X135356700Y-93609600D03*
X135356700Y-93009600D03*
X135356700Y-92409600D03*
X135356700Y-91809600D03*
X135356700Y-91209600D03*
X135356700Y-90609600D03*
X135356700Y-90009600D03*
D11*
X190842300Y-91827000D03*
X197092300Y-91827000D03*
D12*
X193842300Y-87027000D03*
D13*
X179501800Y-81534000D03*
X182041800Y-81534000D03*
X180771800Y-81534000D03*
X156641800Y-81534000D03*
X129794000Y-97459800D03*
X154101800Y-81534000D03*
X155371800Y-81534000D03*
X128930400Y-98323400D03*
X128041400Y-99212400D03*
G04 #@! TA.AperFunction,Conductor*
G36*
X157157477Y-78647685D02*
G01*
X157178119Y-78664319D01*
X157355481Y-78841681D01*
X157388966Y-78903004D01*
X157391800Y-78929362D01*
X157391800Y-104715238D01*
X157372115Y-104782277D01*
X157355481Y-104802919D01*
X157178119Y-104980281D01*
X157116796Y-105013766D01*
X157090438Y-105016600D01*
X153351800Y-105016600D01*
X153103380Y-105016879D01*
X153101833Y-105016880D01*
X147834000Y-105022800D01*
X145701629Y-105025195D01*
X142602675Y-105028678D01*
X142535616Y-105009069D01*
X142243230Y-104821219D01*
X142197468Y-104768421D01*
X142197417Y-104768309D01*
X142196638Y-104766600D01*
X139804167Y-99515865D01*
X139804166Y-99515864D01*
X139700509Y-99288368D01*
X139482716Y-99165625D01*
X139482716Y-99165624D01*
X139024472Y-98907368D01*
X138709400Y-98729800D01*
X138459401Y-98729800D01*
X132406199Y-98729800D01*
X132156200Y-98729800D01*
X131980217Y-98907367D01*
X131980217Y-98907368D01*
X129549052Y-101360434D01*
X129487879Y-101394194D01*
X129461256Y-101397147D01*
X129211547Y-101397707D01*
X129144464Y-101378173D01*
X129123588Y-101361388D01*
X127238381Y-99476181D01*
X127204896Y-99414858D01*
X127202062Y-99388779D01*
X127201958Y-99342267D01*
X127201496Y-99136829D01*
X127221030Y-99069748D01*
X127237416Y-99049272D01*
X129673765Y-96590975D01*
X129695482Y-96573513D01*
X130039742Y-96355473D01*
X130085149Y-96338012D01*
X130495161Y-96267779D01*
X130516096Y-96266000D01*
X135487600Y-96266000D01*
X135737600Y-96266000D01*
X136474200Y-95491300D01*
X137038535Y-94897776D01*
X137038535Y-94897774D01*
X137210800Y-94716600D01*
X137210800Y-93802200D01*
X137210800Y-90115762D01*
X137230485Y-90048723D01*
X137247119Y-90028081D01*
X137424481Y-89850719D01*
X137485804Y-89817234D01*
X137512162Y-89814400D01*
X139693049Y-89814400D01*
X139759997Y-89834026D01*
X140053053Y-90022000D01*
X140098809Y-90074666D01*
X142940193Y-96267780D01*
X144803928Y-100330000D01*
X144955837Y-100661101D01*
X145643600Y-101219000D01*
X151134000Y-101219000D01*
X151384000Y-101219000D01*
X153351800Y-99161600D01*
X153351800Y-78929362D01*
X153371485Y-78862323D01*
X153388119Y-78841681D01*
X153565481Y-78664319D01*
X153626804Y-78630834D01*
X153653162Y-78628000D01*
X157090438Y-78628000D01*
X157157477Y-78647685D01*
G37*
G04 #@! TD.AperFunction*
G04 #@! TA.AperFunction,Conductor*
G36*
X123286981Y-63409117D02*
G01*
X123291642Y-63409262D01*
X124344238Y-63461763D01*
X124348904Y-63462084D01*
X125398747Y-63553750D01*
X125403388Y-63554242D01*
X126449155Y-63684955D01*
X126453723Y-63685613D01*
X127493879Y-63855185D01*
X127498466Y-63856021D01*
X128531589Y-64064220D01*
X128536143Y-64065227D01*
X129560782Y-64311760D01*
X129565286Y-64312933D01*
X130580046Y-64597463D01*
X130584448Y-64598786D01*
X131587957Y-64920933D01*
X131592323Y-64922425D01*
X132583085Y-65281707D01*
X132587438Y-65283378D01*
X133564115Y-65679307D01*
X133568405Y-65681140D01*
X134529666Y-66113178D01*
X134533866Y-66115161D01*
X135478363Y-66582701D01*
X135482487Y-66584839D01*
X136408925Y-67087241D01*
X136412988Y-67089544D01*
X137320035Y-67626085D01*
X137324030Y-67628549D01*
X137603540Y-67808266D01*
X138210466Y-68198503D01*
X138214327Y-68201087D01*
X138575013Y-68452468D01*
X139078931Y-68803674D01*
X139082731Y-68806429D01*
X139924270Y-69440784D01*
X139927965Y-69443679D01*
X140745302Y-70108948D01*
X140748860Y-70111956D01*
X141540856Y-70807211D01*
X141544300Y-70810349D01*
X141880366Y-71128295D01*
X142309855Y-71534627D01*
X142313204Y-71537916D01*
X143051226Y-72290181D01*
X143054444Y-72293586D01*
X143763970Y-73072858D01*
X143767034Y-73076352D01*
X143986431Y-73336128D01*
X144447010Y-73881475D01*
X144449971Y-73885116D01*
X145099491Y-74715010D01*
X145102315Y-74718760D01*
X145711662Y-75560105D01*
X145721063Y-75576922D01*
X145721996Y-75577855D01*
X145723790Y-75580000D01*
X145726581Y-75580969D01*
X145726582Y-75580970D01*
X145730227Y-75582236D01*
X145737110Y-75584855D01*
X145740786Y-75586378D01*
X145754688Y-75586658D01*
X145765211Y-75585100D01*
X199589091Y-75585100D01*
X199598980Y-75585489D01*
X199627573Y-75587740D01*
X199775704Y-75599402D01*
X199795225Y-75602494D01*
X199962782Y-75642726D01*
X199981576Y-75648833D01*
X200140781Y-75714782D01*
X200158390Y-75723756D01*
X200305316Y-75813796D01*
X200321293Y-75825404D01*
X200452332Y-75937327D01*
X200466304Y-75951300D01*
X200578210Y-76082328D01*
X200589828Y-76098319D01*
X200616047Y-76141105D01*
X200679862Y-76245245D01*
X200688837Y-76262861D01*
X200754774Y-76422051D01*
X200760884Y-76440855D01*
X200801109Y-76608408D01*
X200804202Y-76627934D01*
X200810600Y-76709218D01*
X200818153Y-76805200D01*
X200818541Y-76815068D01*
X200818541Y-106804643D01*
X200818153Y-106814530D01*
X200804242Y-106991273D01*
X200801149Y-107010799D01*
X200760924Y-107178355D01*
X200754814Y-107197160D01*
X200688874Y-107356355D01*
X200679899Y-107373970D01*
X200589863Y-107520901D01*
X200578241Y-107536897D01*
X200466336Y-107667924D01*
X200452356Y-107681905D01*
X200321324Y-107793821D01*
X200305329Y-107805442D01*
X200158408Y-107895480D01*
X200140793Y-107904456D01*
X199981601Y-107970401D01*
X199962796Y-107976512D01*
X199795235Y-108016744D01*
X199775708Y-108019837D01*
X199599502Y-108033711D01*
X199589612Y-108034100D01*
X145765211Y-108034100D01*
X145754688Y-108032541D01*
X145740789Y-108032821D01*
X145737090Y-108034353D01*
X145730251Y-108036954D01*
X145723806Y-108039193D01*
X145722059Y-108041281D01*
X145721064Y-108042275D01*
X145711663Y-108059091D01*
X145102315Y-108900439D01*
X145099491Y-108904189D01*
X144449971Y-109734083D01*
X144447010Y-109737724D01*
X143767050Y-110542829D01*
X143763955Y-110546359D01*
X143054450Y-111325607D01*
X143051226Y-111329018D01*
X142313204Y-112081283D01*
X142309855Y-112084572D01*
X141544313Y-112808838D01*
X141540843Y-112812000D01*
X140748873Y-113507232D01*
X140745289Y-113510262D01*
X139927965Y-114175520D01*
X139924270Y-114178415D01*
X139082731Y-114812770D01*
X139078931Y-114815525D01*
X138214347Y-115418098D01*
X138210446Y-115420710D01*
X137324030Y-115990650D01*
X137320035Y-115993114D01*
X136412988Y-116529655D01*
X136408904Y-116531970D01*
X135482508Y-117034349D01*
X135478341Y-117036509D01*
X134533888Y-117504027D01*
X134529643Y-117506031D01*
X133568418Y-117938053D01*
X133564102Y-117939897D01*
X132587453Y-118335815D01*
X132583071Y-118337497D01*
X131592361Y-118696761D01*
X131587919Y-118698279D01*
X130584495Y-119020399D01*
X130579999Y-119021750D01*
X129565305Y-119306261D01*
X129560763Y-119307444D01*
X128536157Y-119553969D01*
X128531574Y-119554982D01*
X127498481Y-119763175D01*
X127493863Y-119764016D01*
X126453762Y-119933580D01*
X126449115Y-119934249D01*
X125403401Y-120064955D01*
X125398734Y-120065450D01*
X124348912Y-120157114D01*
X124344229Y-120157436D01*
X123291657Y-120209936D01*
X123286965Y-120210082D01*
X122233227Y-120223339D01*
X122228533Y-120223311D01*
X121174977Y-120197309D01*
X121170288Y-120197105D01*
X120118506Y-120131884D01*
X120113827Y-120131507D01*
X119065137Y-120027147D01*
X119060475Y-120026595D01*
X118016426Y-119883251D01*
X118011789Y-119882526D01*
X116973814Y-119700396D01*
X116969206Y-119699499D01*
X115938716Y-119478829D01*
X115934146Y-119477761D01*
X114912591Y-119218861D01*
X114908063Y-119217623D01*
X113896864Y-118920854D01*
X113892385Y-118919448D01*
X112892961Y-118585226D01*
X112888538Y-118583655D01*
X111902237Y-118212433D01*
X111897875Y-118210698D01*
X110926082Y-117802994D01*
X110921789Y-117801098D01*
X109965870Y-117357488D01*
X109961649Y-117355433D01*
X109332276Y-117034349D01*
X109022886Y-116876509D01*
X109018772Y-116874312D01*
X108405310Y-116531970D01*
X108098514Y-116360762D01*
X108094459Y-116358399D01*
X107193974Y-115810933D01*
X107190009Y-115808420D01*
X106310533Y-115227788D01*
X106306665Y-115225129D01*
X105449449Y-114612157D01*
X105445682Y-114609356D01*
X104611884Y-113964874D01*
X104608224Y-113961935D01*
X103798994Y-113286832D01*
X103795446Y-113283758D01*
X103453988Y-112976617D01*
X103011932Y-112578988D01*
X103008505Y-112575787D01*
X102251790Y-111842327D01*
X102248481Y-111838998D01*
X101519611Y-111077862D01*
X101516428Y-111074412D01*
X101044054Y-110542829D01*
X100816378Y-110286615D01*
X100813366Y-110283094D01*
X100143152Y-109469777D01*
X100140269Y-109466144D01*
X99500818Y-108628434D01*
X99498046Y-108624659D01*
X98890244Y-107763715D01*
X98887618Y-107759844D01*
X98832642Y-107675467D01*
X98312309Y-106876864D01*
X98309847Y-106872928D01*
X97767801Y-105969089D01*
X97765473Y-105965037D01*
X97513879Y-105507714D01*
X97322785Y-105160361D01*
X97257519Y-105041726D01*
X97255333Y-105037572D01*
X96782095Y-104095933D01*
X96780066Y-104091700D01*
X96342255Y-103133139D01*
X96340384Y-103128834D01*
X95938554Y-102154566D01*
X95936846Y-102150194D01*
X95843150Y-101896613D01*
X95571592Y-101161660D01*
X95570074Y-101157304D01*
X95241868Y-100155773D01*
X95240506Y-100151337D01*
X94949845Y-99138323D01*
X94948655Y-99133864D01*
X94695918Y-98110680D01*
X94694889Y-98106154D01*
X94480446Y-97074307D01*
X94479587Y-97069747D01*
X94303733Y-96030663D01*
X94303036Y-96026021D01*
X94166010Y-94981135D01*
X94165486Y-94976471D01*
X94125754Y-94551121D01*
X94067469Y-93927158D01*
X94067121Y-93922487D01*
X94061807Y-93827500D01*
X94008258Y-92870287D01*
X94008084Y-92865612D01*
X93998847Y-92369785D01*
X93988454Y-91811908D01*
X93988454Y-91809605D01*
X114372308Y-91809605D01*
X114391870Y-92369770D01*
X114391871Y-92369785D01*
X114450458Y-92927211D01*
X114450460Y-92927221D01*
X114547791Y-93479212D01*
X114683388Y-94023062D01*
X114683397Y-94023093D01*
X114856600Y-94556155D01*
X114856604Y-94556167D01*
X115066565Y-95075840D01*
X115066573Y-95075858D01*
X115312281Y-95579634D01*
X115312287Y-95579644D01*
X115592534Y-96065049D01*
X115592540Y-96065058D01*
X115905970Y-96529738D01*
X115905977Y-96529748D01*
X116251053Y-96971424D01*
X116251072Y-96971446D01*
X116626105Y-97387965D01*
X116626110Y-97387970D01*
X117029315Y-97777341D01*
X117029319Y-97777344D01*
X117458697Y-98137635D01*
X117458700Y-98137637D01*
X117912152Y-98467090D01*
X117912169Y-98467102D01*
X118371150Y-98753904D01*
X118387504Y-98764123D01*
X118696495Y-98928417D01*
X118882395Y-99027262D01*
X118882398Y-99027264D01*
X118882401Y-99027265D01*
X118882408Y-99027269D01*
X119394462Y-99255250D01*
X119921172Y-99446957D01*
X120459972Y-99601455D01*
X121008237Y-99717992D01*
X121563295Y-99796001D01*
X122122443Y-99835100D01*
X122122457Y-99835100D01*
X122682943Y-99835100D01*
X122682957Y-99835100D01*
X123242105Y-99796001D01*
X123797163Y-99717992D01*
X124345428Y-99601455D01*
X124884228Y-99446957D01*
X125410938Y-99255250D01*
X125922992Y-99027269D01*
X126417896Y-98764123D01*
X126611558Y-98643109D01*
X126679926Y-98623974D01*
X126747787Y-98644839D01*
X126793596Y-98699080D01*
X126802807Y-98769477D01*
X126793057Y-98802050D01*
X126735692Y-98928407D01*
X126735687Y-98928421D01*
X126716155Y-98995494D01*
X126716154Y-98995499D01*
X126716154Y-98995502D01*
X126716149Y-98995530D01*
X126695997Y-99137957D01*
X126695997Y-99137963D01*
X126695997Y-99137965D01*
X126696563Y-99389915D01*
X126699521Y-99443390D01*
X126699522Y-99443402D01*
X126699523Y-99443414D01*
X126702355Y-99469476D01*
X126702355Y-99469477D01*
X126710946Y-99522306D01*
X126710948Y-99522313D01*
X126761226Y-99657110D01*
X126761229Y-99657117D01*
X126794714Y-99718441D01*
X126880939Y-99833623D01*
X126880942Y-99833626D01*
X128766132Y-101718817D01*
X128766146Y-101718830D01*
X128806837Y-101755341D01*
X128827713Y-101772126D01*
X128827727Y-101772137D01*
X128872120Y-101804036D01*
X128872128Y-101804041D01*
X128942724Y-101836089D01*
X129003137Y-101863515D01*
X129057563Y-101879363D01*
X129070216Y-101883048D01*
X129070224Y-101883050D01*
X129155320Y-101895089D01*
X129212681Y-101903206D01*
X129462390Y-101902646D01*
X129516984Y-101899566D01*
X129543607Y-101896613D01*
X129597545Y-101887655D01*
X129704657Y-101847156D01*
X129732120Y-101836773D01*
X129732131Y-101836768D01*
X129742060Y-101831288D01*
X129793300Y-101803010D01*
X129908094Y-101716270D01*
X132329942Y-99272604D01*
X132392101Y-99238301D01*
X132419436Y-99235300D01*
X138543702Y-99235300D01*
X138605565Y-99251532D01*
X139273039Y-99627706D01*
X139322563Y-99678577D01*
X139325835Y-99685230D01*
X140895877Y-103130985D01*
X141682622Y-104857649D01*
X141737485Y-104978055D01*
X141737675Y-104978471D01*
X141737677Y-104978474D01*
X141815481Y-105099504D01*
X141815484Y-105099507D01*
X141815487Y-105099512D01*
X141815486Y-105099512D01*
X141861236Y-105152295D01*
X141861239Y-105152298D01*
X141861243Y-105152302D01*
X141969993Y-105246509D01*
X141970001Y-105246514D01*
X141970002Y-105246515D01*
X142262298Y-105434307D01*
X142262358Y-105434376D01*
X142262372Y-105434355D01*
X142262795Y-105434627D01*
X142262802Y-105434631D01*
X142393730Y-105494246D01*
X142393734Y-105494247D01*
X142393742Y-105494251D01*
X142458569Y-105513207D01*
X142460205Y-105513719D01*
X142460786Y-105513855D01*
X142460801Y-105513860D01*
X142460804Y-105513861D01*
X142603243Y-105534178D01*
X153352368Y-105522100D01*
X157090438Y-105522100D01*
X157090449Y-105522100D01*
X157134962Y-105519713D01*
X157144478Y-105519203D01*
X157170836Y-105516369D01*
X157224248Y-105507714D01*
X157359057Y-105457432D01*
X157420380Y-105423947D01*
X157535561Y-105337723D01*
X157712923Y-105160361D01*
X157749088Y-105120100D01*
X157765722Y-105099458D01*
X157797367Y-105055574D01*
X157857138Y-104924697D01*
X157876823Y-104857658D01*
X157876824Y-104857654D01*
X157897300Y-104715238D01*
X157897300Y-92974197D01*
X189941800Y-92974197D01*
X189956625Y-93115256D01*
X190015118Y-93295278D01*
X190015122Y-93295286D01*
X190109765Y-93459214D01*
X190109766Y-93459216D01*
X190236426Y-93599886D01*
X190389567Y-93711149D01*
X190389567Y-93711150D01*
X190436912Y-93732229D01*
X190562497Y-93788144D01*
X190747654Y-93827500D01*
X190936946Y-93827500D01*
X191122103Y-93788144D01*
X191295030Y-93711151D01*
X191295030Y-93711150D01*
X191295032Y-93711150D01*
X191295032Y-93711149D01*
X191448171Y-93599888D01*
X191574833Y-93459216D01*
X191669479Y-93295284D01*
X191727974Y-93115256D01*
X191742800Y-92974192D01*
X191742800Y-90679808D01*
X191727974Y-90538744D01*
X191669479Y-90358716D01*
X191632755Y-90295109D01*
X191574834Y-90194785D01*
X191574833Y-90194783D01*
X191448173Y-90054113D01*
X191295032Y-89942850D01*
X191295032Y-89942849D01*
X191169445Y-89886934D01*
X191122103Y-89865856D01*
X191122101Y-89865855D01*
X191122100Y-89865855D01*
X190936946Y-89826500D01*
X190747654Y-89826500D01*
X190562499Y-89865855D01*
X190389567Y-89942849D01*
X190389567Y-89942850D01*
X190236426Y-90054113D01*
X190109766Y-90194783D01*
X190109765Y-90194785D01*
X190015122Y-90358713D01*
X190015118Y-90358721D01*
X189956625Y-90538743D01*
X189941800Y-90679802D01*
X189941800Y-92974197D01*
X157897300Y-92974197D01*
X157897300Y-87121646D01*
X191841800Y-87121646D01*
X191881155Y-87306800D01*
X191958150Y-87479732D01*
X192069413Y-87632873D01*
X192210083Y-87759533D01*
X192210085Y-87759534D01*
X192310409Y-87817455D01*
X192374016Y-87854179D01*
X192374018Y-87854179D01*
X192374021Y-87854181D01*
X192554044Y-87912674D01*
X192554041Y-87912674D01*
X192618999Y-87919500D01*
X192695108Y-87927500D01*
X192695111Y-87927500D01*
X194989489Y-87927500D01*
X194989492Y-87927500D01*
X195130556Y-87912674D01*
X195310584Y-87854179D01*
X195474516Y-87759533D01*
X195615188Y-87632871D01*
X195726451Y-87479730D01*
X195803444Y-87306803D01*
X195842800Y-87121646D01*
X195842800Y-86932354D01*
X195803444Y-86747197D01*
X195726451Y-86574270D01*
X195708440Y-86549479D01*
X195615186Y-86421126D01*
X195474516Y-86294466D01*
X195474514Y-86294465D01*
X195310586Y-86199822D01*
X195310578Y-86199818D01*
X195130555Y-86141325D01*
X195130558Y-86141325D01*
X194989497Y-86126500D01*
X194989492Y-86126500D01*
X192695108Y-86126500D01*
X192695102Y-86126500D01*
X192554043Y-86141325D01*
X192374021Y-86199818D01*
X192374013Y-86199822D01*
X192210085Y-86294465D01*
X192210083Y-86294466D01*
X192069413Y-86421126D01*
X191958150Y-86574267D01*
X191958149Y-86574267D01*
X191881155Y-86747199D01*
X191841800Y-86932353D01*
X191841800Y-87121646D01*
X157897300Y-87121646D01*
X157897300Y-78929362D01*
X157897300Y-78929356D01*
X157897300Y-78929350D01*
X157894404Y-78875342D01*
X157894403Y-78875322D01*
X157891569Y-78848964D01*
X157882914Y-78795552D01*
X157832632Y-78660743D01*
X157799147Y-78599420D01*
X157712923Y-78484239D01*
X157535561Y-78306877D01*
X157495300Y-78270712D01*
X157474658Y-78254078D01*
X157430774Y-78222433D01*
X157430771Y-78222431D01*
X157430769Y-78222430D01*
X157299902Y-78162663D01*
X157232863Y-78142978D01*
X157232849Y-78142975D01*
X157090443Y-78122500D01*
X157090438Y-78122500D01*
X153653162Y-78122500D01*
X153653151Y-78122500D01*
X153599142Y-78125395D01*
X153599110Y-78125398D01*
X153572793Y-78128227D01*
X153572785Y-78128228D01*
X153572771Y-78128230D01*
X153572764Y-78128231D01*
X153519352Y-78136886D01*
X153519348Y-78136887D01*
X153519344Y-78136888D01*
X153384551Y-78187164D01*
X153384544Y-78187167D01*
X153323220Y-78220652D01*
X153208040Y-78306876D01*
X153030682Y-78484233D01*
X152994511Y-78524501D01*
X152977882Y-78545136D01*
X152946230Y-78589030D01*
X152886463Y-78719897D01*
X152866778Y-78786936D01*
X152866775Y-78786950D01*
X152846300Y-78929356D01*
X152846300Y-98908219D01*
X152826298Y-98976340D01*
X152811356Y-98995310D01*
X151205208Y-100674591D01*
X151143669Y-100709994D01*
X151114152Y-100713500D01*
X145867525Y-100713500D01*
X145799404Y-100693498D01*
X145788148Y-100685354D01*
X145388892Y-100361485D01*
X145353749Y-100316177D01*
X140558260Y-89863871D01*
X140480407Y-89743135D01*
X140434651Y-89690469D01*
X140434650Y-89690467D01*
X140325976Y-89596508D01*
X140032921Y-89408535D01*
X139902201Y-89348940D01*
X139835248Y-89329312D01*
X139693055Y-89308900D01*
X139693049Y-89308900D01*
X137512162Y-89308900D01*
X137512151Y-89308900D01*
X137458142Y-89311795D01*
X137458110Y-89311798D01*
X137431793Y-89314627D01*
X137431785Y-89314628D01*
X137431771Y-89314630D01*
X137431764Y-89314631D01*
X137378352Y-89323286D01*
X137378348Y-89323287D01*
X137378344Y-89323288D01*
X137243551Y-89373564D01*
X137243544Y-89373567D01*
X137182220Y-89407052D01*
X137067040Y-89493276D01*
X136889682Y-89670633D01*
X136853511Y-89710901D01*
X136836882Y-89731536D01*
X136805230Y-89775430D01*
X136745463Y-89906297D01*
X136725778Y-89973336D01*
X136725775Y-89973350D01*
X136705300Y-90115756D01*
X136705300Y-94464299D01*
X136685298Y-94532420D01*
X136670613Y-94551121D01*
X135557963Y-95721322D01*
X135496528Y-95756906D01*
X135466650Y-95760500D01*
X130516096Y-95760500D01*
X130509981Y-95760759D01*
X130473282Y-95762315D01*
X130452370Y-95764092D01*
X130409806Y-95769536D01*
X129999805Y-95839768D01*
X129999803Y-95839768D01*
X129903708Y-95866196D01*
X129903703Y-95866198D01*
X129858318Y-95883650D01*
X129813786Y-95906039D01*
X129769265Y-95928422D01*
X129769261Y-95928424D01*
X129769254Y-95928428D01*
X129449004Y-96131261D01*
X129380753Y-96150812D01*
X129312766Y-96130360D01*
X129266629Y-96076398D01*
X129256990Y-96006059D01*
X129272467Y-95961815D01*
X129493113Y-95579644D01*
X129493118Y-95579634D01*
X129505913Y-95553401D01*
X129738828Y-95075855D01*
X129948800Y-94556156D01*
X130122008Y-94023076D01*
X130257609Y-93479212D01*
X130354941Y-92927215D01*
X130413530Y-92369772D01*
X130433092Y-91809600D01*
X130413530Y-91249428D01*
X130354941Y-90691985D01*
X130257609Y-90139988D01*
X130122008Y-89596124D01*
X129948800Y-89063044D01*
X129884496Y-88903888D01*
X129738834Y-88543359D01*
X129738826Y-88543341D01*
X129493118Y-88039565D01*
X129493117Y-88039564D01*
X129493115Y-88039559D01*
X129258314Y-87632871D01*
X129212865Y-87554150D01*
X129212859Y-87554141D01*
X128899429Y-87089461D01*
X128899422Y-87089451D01*
X128554346Y-86647775D01*
X128554341Y-86647770D01*
X128554337Y-86647764D01*
X128465841Y-86549479D01*
X128179294Y-86231234D01*
X128179289Y-86231229D01*
X127776084Y-85841858D01*
X127381496Y-85510760D01*
X127346703Y-85481565D01*
X127346699Y-85481562D01*
X126893247Y-85152109D01*
X126893230Y-85152097D01*
X126417905Y-84855082D01*
X126417898Y-84855078D01*
X125923004Y-84591937D01*
X125923001Y-84591935D01*
X125917675Y-84589563D01*
X125410938Y-84363950D01*
X124884228Y-84172243D01*
X124884220Y-84172240D01*
X124884209Y-84172237D01*
X124345436Y-84017747D01*
X124345432Y-84017746D01*
X124345428Y-84017745D01*
X123797163Y-83901208D01*
X123797162Y-83901207D01*
X123797158Y-83901207D01*
X123361350Y-83839958D01*
X123242105Y-83823199D01*
X123242103Y-83823198D01*
X123242097Y-83823198D01*
X122682959Y-83784100D01*
X122682957Y-83784100D01*
X122122443Y-83784100D01*
X122122440Y-83784100D01*
X121563302Y-83823198D01*
X121008241Y-83901207D01*
X120459963Y-84017747D01*
X119921190Y-84172237D01*
X119921166Y-84172245D01*
X119394467Y-84363948D01*
X119394462Y-84363950D01*
X119278068Y-84415772D01*
X118882398Y-84591935D01*
X118882395Y-84591937D01*
X118387501Y-84855078D01*
X118387494Y-84855082D01*
X117912169Y-85152097D01*
X117912152Y-85152109D01*
X117458700Y-85481562D01*
X117029315Y-85841858D01*
X116626110Y-86231229D01*
X116626105Y-86231234D01*
X116251072Y-86647753D01*
X116251053Y-86647775D01*
X115905977Y-87089451D01*
X115905970Y-87089461D01*
X115592540Y-87554141D01*
X115592534Y-87554150D01*
X115312287Y-88039555D01*
X115312281Y-88039565D01*
X115066573Y-88543341D01*
X115066565Y-88543359D01*
X114856604Y-89063032D01*
X114856600Y-89063044D01*
X114683397Y-89596106D01*
X114683388Y-89596137D01*
X114547791Y-90139987D01*
X114450460Y-90691978D01*
X114450458Y-90691988D01*
X114391871Y-91249414D01*
X114391870Y-91249429D01*
X114372308Y-91809594D01*
X114372308Y-91809605D01*
X93988454Y-91809605D01*
X93988454Y-91807291D01*
X94008084Y-90753568D01*
X94008259Y-90748896D01*
X94012125Y-90679802D01*
X94067122Y-89696698D01*
X94067470Y-89692031D01*
X94069469Y-89670639D01*
X94165486Y-88642722D01*
X94166010Y-88638064D01*
X94178432Y-88543345D01*
X94303036Y-87593172D01*
X94303733Y-87588536D01*
X94479588Y-86549443D01*
X94480444Y-86544902D01*
X94694892Y-85513034D01*
X94695915Y-85508530D01*
X94948658Y-84485322D01*
X94949842Y-84480889D01*
X95240510Y-83467847D01*
X95241863Y-83463441D01*
X95570079Y-82461878D01*
X95571586Y-82457556D01*
X95936849Y-81468995D01*
X95938554Y-81464633D01*
X96340384Y-80490365D01*
X96342255Y-80486060D01*
X96572705Y-79981504D01*
X96780083Y-79527461D01*
X96782077Y-79523302D01*
X97255336Y-78581621D01*
X97257519Y-78577473D01*
X97308811Y-78484239D01*
X97765496Y-77654120D01*
X97767787Y-77650132D01*
X98309862Y-76746247D01*
X98312294Y-76742359D01*
X98887644Y-75859316D01*
X98890227Y-75855509D01*
X99498071Y-74994504D01*
X99500799Y-74990790D01*
X100140290Y-74153029D01*
X100143130Y-74149447D01*
X100813388Y-73336077D01*
X100816355Y-73332610D01*
X101516452Y-72544759D01*
X101519586Y-72541363D01*
X102248503Y-71780178D01*
X102251767Y-71776894D01*
X103008536Y-71043382D01*
X103011903Y-71040238D01*
X103795483Y-70335408D01*
X103798957Y-70332398D01*
X104608239Y-69657251D01*
X104611868Y-69654337D01*
X105445709Y-69009822D01*
X105449421Y-69007062D01*
X106306699Y-68394046D01*
X106310499Y-68391434D01*
X107190033Y-67810763D01*
X107193949Y-67808281D01*
X108094482Y-67260786D01*
X108098491Y-67258450D01*
X109018814Y-66744864D01*
X109022844Y-66742712D01*
X109961679Y-66263751D01*
X109965840Y-66261725D01*
X110921806Y-65818093D01*
X110926064Y-65816212D01*
X111897903Y-65408489D01*
X111902209Y-65406777D01*
X112888550Y-65035539D01*
X112892948Y-65033977D01*
X113892421Y-64699739D01*
X113896828Y-64698356D01*
X114908111Y-64401562D01*
X114912543Y-64400351D01*
X115934174Y-64141431D01*
X115938687Y-64140376D01*
X116969254Y-63919690D01*
X116973766Y-63918812D01*
X118011799Y-63736671D01*
X118016415Y-63735949D01*
X119060477Y-63592603D01*
X119065137Y-63592052D01*
X120113852Y-63487689D01*
X120118480Y-63487317D01*
X121170323Y-63422092D01*
X121174942Y-63421891D01*
X122228569Y-63395887D01*
X122233191Y-63395860D01*
X123286981Y-63409117D01*
G37*
G04 #@! TD.AperFunction*
M02*
